<?xml version="1.0" encoding="iso-8859-1"?>
<!-- Generator: Adobe Illustrator 16.0.0, SVG Export Plug-In . SVG Version: 6.00 Build 0)  -->
<!DOCTYPE svg PUBLIC "-//W3C//DTD SVG 1.1//EN" "http://www.w3.org/Graphics/SVG/1.1/DTD/svg11.dtd">
<svg version="1.1" id="Layer_1" xmlns="http://www.w3.org/2000/svg" xmlns:xlink="http://www.w3.org/1999/xlink" x="0px" y="0px"
	 width="100px" height="100px" viewBox="0 0 100 100" style="enable-background:new 0 0 100 100;" xml:space="preserve">
<g>
	<path style="fill-rule:evenodd;clip-rule:evenodd;fill:#CDCDCD;" d="M42.897,63.437c-2.33-0.503-4.684-0.914-6.985-1.525
		c-7.558-2.006-14.295-5.603-20.255-10.661c-0.166-0.14-0.349-0.258-0.523-0.386c-0.683-0.586-1.365-1.174-2.047-1.761
		c-1.166-1.392-2.367-2.757-3.492-4.182c-3.197-4.05-6.059-8.304-7.606-13.291c-0.243-0.783-0.159-1.667-0.227-2.505
		c3.18,6.655,6.5,13.217,12.036,18.324c0.702,0.606,1.403,1.214,2.104,1.821c1.502,1.307,3,2.618,4.52,3.903
		c0.056,0.047,0.321-0.156,0.489-0.241c0.439,0.504,0.8,1.125,1.335,1.488c1.067,0.722,2.231,1.303,3.355,1.941
		c4.586,2.62,9.557,4.142,14.692,5.239c2.458,0.525,4.88,1.219,7.319,1.835C46.041,63.437,44.469,63.437,42.897,63.437z"/>
	<path style="fill-rule:evenodd;clip-rule:evenodd;fill:#474747;" d="M79.178,57.758c-1.707,0.273-3.133,0.703-4.552,0.682
		c-2.133-0.034-3.475-1.778-3.462-4.101c0.012-2.168,1.565-4.036,3.533-4.181c1.027-0.076,2.063-0.061,3.095-0.085
		c1.208-0.028,1.459-0.405,1.022-1.543c-0.595-1.553-2.971-2.013-4.45-0.856c-0.609,0.476-1.15,1.455-1.986,0.318
		c-0.544-0.74-0.156-1.868,0.865-2.384c2.053-1.038,4.168-0.982,6.211-0.019c1.668,0.787,1.809,2.455,1.925,4.023
		c0.088,1.169-0.04,2.353,0.003,3.528c0.034,0.949,0.13,1.902,0.29,2.839c0.135,0.794,0.635,1.615-0.387,2.178
		C80.305,58.697,79.535,58.438,79.178,57.758z M79.261,53.557c-0.27-0.545-0.512-1.537-0.816-1.557
		c-1.183-0.076-2.454-0.047-3.565,0.324c-1.439,0.48-1.677,2.484-0.544,3.43c1.151,0.962,2.341,0.493,3.538,0.065
		C78.935,55.44,79.214,54.688,79.261,53.557z"/>
	<path style="fill-rule:evenodd;clip-rule:evenodd;fill:#474747;" d="M87.54,45.558c1.515-0.172,3.048-0.577,4.54-0.462
		c2.16,0.167,3.535,1.712,3.745,3.878c0.137,1.425,0.032,2.872,0.124,4.303c0.074,1.168,0.163,2.358,0.456,3.484
		c0.321,1.233-0.446,1.454-1.266,1.644c-0.887,0.205-1.604-0.096-1.724-1.088c-0.103-0.858-0.059-1.733-0.078-2.603
		c-0.043-1.822-0.012-3.65-0.154-5.464c-0.091-1.154-0.866-2.116-2.036-1.971c-1.226,0.152-2.394,0.801-3.569,1.275
		c-0.109,0.044-0.139,0.398-0.13,0.606c0.099,2.519,0.172,5.042,0.339,7.557c0.073,1.099-0.279,1.616-1.501,1.707
		c-1.007,0.075-1.521-0.312-1.504-1.424c0.049-2.914,0.034-5.829,0.016-8.743c-0.005-0.606-0.186-1.209-0.195-1.816
		c-0.007-0.443,0.005-1.172,0.231-1.273c0.46-0.205,1.097-0.172,1.611-0.042c0.379,0.096,0.678,0.504,1.014,0.773
		C87.485,45.786,87.514,45.672,87.54,45.558z"/>
	<path style="fill-rule:evenodd;clip-rule:evenodd;fill:#474747;" d="M42.989,52.462c-0.304,2.312,1.746,4.185,4.282,3.759
		c0.679-0.114,1.316-0.486,1.994-0.584c0.424-0.061,1.245,0.113,1.271,0.278c0.088,0.563,0.1,1.347-0.23,1.71
		c-0.389,0.426-1.146,0.579-1.772,0.714c-3.43,0.734-6.812-0.754-7.786-3.469c-0.904-2.521-0.667-5.008,0.729-7.285
		c1.257-2.05,3.292-2.852,5.598-2.692c2.038,0.141,3.629,1.114,4.307,3.223c0.705,2.197-0.055,3.721-2.306,4.029
		C47.109,52.414,45.101,52.365,42.989,52.462z M43.11,50.313c1.693,0,3.295,0.04,4.894-0.016c0.882-0.031,1.16-0.583,0.987-1.452
		c-0.207-1.038-0.852-1.596-1.815-1.828C45.041,46.502,43.23,47.933,43.11,50.313z"/>
	<path style="fill-rule:evenodd;clip-rule:evenodd;fill:#474747;" d="M32.27,55.652c2.41-3.318,4.037-6.449,3.528-10.266
		c0.541-0.11,0.895-0.216,1.255-0.25c0.998-0.093,1.664,0.365,1.654,1.373c-0.009,0.898-0.026,1.914-0.428,2.671
		c-1.485,2.797-3.009,5.59-4.759,8.224c-1.165,1.753-2.587,1.529-3.434-0.408c-0.729-1.67-1.162-3.467-1.851-5.157
		c-0.57-1.4-1.272-2.753-2.01-4.075c-0.526-0.942-0.376-1.727,0.648-2.372c0.931-0.587,1.673-0.243,2.021,0.646
		c0.728,1.861,1.314,3.776,1.969,5.666C31.282,52.913,31.72,54.113,32.27,55.652z"/>
	<path style="fill-rule:evenodd;clip-rule:evenodd;fill:#474747;" d="M25.602,56.362c-1.124-0.639-2.288-1.22-3.355-1.941
		c-0.535-0.363-0.896-0.984-1.335-1.488c-0.972-2.687-1.944-5.373-2.916-8.06c-0.157,0.016-0.313,0.031-0.469,0.047
		c-0.542,1.45-1.083,2.9-1.624,4.351c-0.701-0.607-1.403-1.215-2.104-1.821c0.801-1.637,1.632-3.261,2.377-4.923
		c0.145-0.323,0.107-0.918-0.104-1.175c-0.618-0.751-0.246-1.322,0.354-1.577c0.534-0.227,1.316-0.245,1.834-0.013
		c0.435,0.194,0.729,0.85,0.945,1.36C21.354,46.194,23.473,51.28,25.602,56.362z"/>
	<path style="fill-rule:evenodd;clip-rule:evenodd;fill:#474747;" d="M67.416,45.002c0.347,0.026,0.754-0.053,1.023,0.104
		c0.358,0.209,0.867,0.625,0.843,0.911c-0.035,0.417-0.426,0.877-0.788,1.164c-0.217,0.171-0.701-0.046-1.008,0.069
		c-0.643,0.24-1.553,0.442-1.778,0.927s0.1,1.395,0.458,1.938c0.471,0.711,1.23,1.226,1.828,1.86
		c1.379,1.461,1.596,3.316,0.588,4.773c-1.055,1.525-3.871,2.487-5.357,1.665c-0.357-0.199-0.514-1.113-0.42-1.637
		c0.049-0.272,1.049-0.712,1.269-0.562c1.141,0.777,1.873,0.046,2.421-0.658c0.688-0.885-0.188-1.513-0.722-2.105
		c-0.7-0.775-1.491-1.473-2.171-2.266c-0.945-1.104-1.131-2.398-0.398-3.646c0.809-1.378,1.912-2.469,3.688-2.483
		c0.174-0.002,0.349-0.001,0.523-0.001C67.414,45.039,67.414,45.021,67.416,45.002z"/>
	<path style="fill-rule:evenodd;clip-rule:evenodd;fill:#474747;" d="M53.936,51.395c-0.098-1.733-0.211-3.467-0.279-5.202
		c-0.012-0.309,0.174-0.897,0.252-0.895c0.676,0.025,1.391,0.05,2.002,0.298c0.305,0.123,0.419,0.713,0.503,0.872
		c1.167-0.465,2.257-0.998,3.407-1.298c0.35-0.091,0.979,0.365,1.286,0.733c0.743,0.888,0.366,1.958-0.874,2.79
		c-1.766-1.151-2.861-0.749-3.625,1.389c-0.779,2.176-0.154,4.309,0.299,6.434c0.156,0.732,0.322,1.401-0.66,1.646
		c-2.084-0.576-2.059-0.577-2.094-2.914C54.133,53.962,54.012,52.679,53.936,51.395z"/>
	<path style="fill-rule:evenodd;clip-rule:evenodd;fill:#414141;" d="M53.936,51.395c0.076,1.284,0.197,2.567,0.217,3.853
		c0.035,2.337,0.01,2.338,2.094,2.914c-0.742,0.058-1.482,0.115-2.311,0.179C53.936,55.861,53.936,53.629,53.936,51.395z"/>
	<path style="fill-rule:evenodd;clip-rule:evenodd;fill:#474747;" d="M13.086,49.103c0.682,0.587,1.365,1.174,2.047,1.761
		c-0.802,2.148-1.648,4.282-2.385,6.452c-0.285,0.835-0.671,1.325-1.574,1.121c-0.851-0.192-1.483-0.705-1.268-1.655
		c0.209-0.921,0.564-1.818,0.937-2.692C11.561,52.414,12.335,50.764,13.086,49.103z"/>
</g>
</svg>
