<svg id="e5Ffg9CDekP1" xmlns="http://www.w3.org/2000/svg" xmlns:xlink="http://www.w3.org/1999/xlink"  viewBox="0 0 512 512" >
<path d="M268.791,321.676c2.283-1.883,5.584-4.852,9.301-1.656c12.924,7.504,15.42,20.621,17.746,33.633.257,1.437.371,2.861.373,4.277-.002-1.418-.115-2.846-.373-4.285-2.326-13.012-4.822-26.137-17.746-33.641-3.717-3.195-7.018-.243-9.301,1.64-.539.444-.729.89-.694,1.332-.022-.434.17-.869.694-1.3Z" fill="none"/><path d="M262.999,215.195c.142.014.269.03.396.044-.132-.016-.264-.031-.396-.044Z" fill="none"/><path d="M262.862,215.839c.002-.203.05-.419.137-.644-.001,0-.002,0-.002,0-.087.226-.135.441-.135.644Z" fill="none"/><path d="M272.618,330.951c-.03,1.352-.458,2.709-1.046,4.106.01.022.019.04.028.062.588-1.407,1.006-2.791,1.018-4.168Z" fill="none"/><path d="M279.169,338.094c.055,1.363.592,2.691.951,4.05.574.624.865,1.726.886,3.272.036-1.681-.256-2.853-.886-3.537-.353-1.336-.881-2.512-.951-3.785Z" fill="none"/><path d="M199.261,330.188c-.008-.004-.016-.008-.024-.012.166.714.567,1.284,1.045,1.824-.461-.521-.845-1.129-1.021-1.812Z" fill="none"/><path d="M254.816,401.91c-.176-.006-.352-.015-.528-.021-.03.027-.06.053-.088.051-.05.01-.09.061-.14.061.05,0,.09-.043.14-.053.028.002.058-.017.088-.044.176.007.352.03.528.036c4.203.139,8.863.061,12.939-1.939.339,0,.674-.371,1.004-.563.66-.072,1.32-.172,1.986-.271-.666.1-1.326.169-1.986.241-.33.191-.665.369-1.004.533-4.075,1.979-8.735,2.108-12.939,1.969Z" fill="none"/><path d="M240.525,370.867c-.061.023-.121.044-.182.067c2.243.184,4.435.083,6.584-.118-2.09.197-4.223.223-6.402.051Z" fill="none"/><path d="M328.782,215.623c.271.002.543-.046.815-.188-.271.067-.544.142-.815.188Z" fill="none"/><path d="M327.885,215.727c-.12.011-.241.034-.361.042c1.302.547,2.116,1.802,2.84,3.042.011-.034.019-.069.029-.103-.662-1.137-1.399-2.349-2.508-2.981Z" fill="none"/><path d="M248.339,360.11c-.012.002-.024.004-.036.006c2.058,2.336,6.62.808,7.622,5.293.007-.002.014-.005.021-.007-.961-4.556-5.522-2.997-7.607-5.292Z" fill="none"/><path d="M280.919,337.527c.019-1.334.315-2.608,1.251-3.744-.004-.08-.006-.158-.008-.237-.955,1.166-1.24,2.546-1.243,3.981Z" fill="none"/><path d="M219.155,229.395c1.69.147,3.381.121,5.072-.053-1.691.132-3.382.159-5.072.053Z" fill="none"/><path d="M280.984,346c.004,0,.008,0,.012,0c.35,0,.486-1.35.509-2.197-.033.721-.175,1.25-.503,1.811-.004.167-.008.386-.018.386Z" fill="none"/><path d="M323.689,246.499c0-.001.001-.001.002-.002.068.461.097.912.081,1.35.017-.44-.012-.892-.079-1.355-.001.001-.001.002-.002.003-.001.002-.002.003-.002.004Z" fill="none"/><path d="M280.67,203.008c6.643,1.752,13.376,3.165,20.104,4.604-6.728-1.5-13.461-3.004-20.104-4.756-13.138-3.462-14.667-1.813-17.66,12.066v0c2.993-13.878,4.522-15.376,17.66-11.914Z" fill="none"/><path d="M270.479,205.233c-1.861,1.236-3.34,3.703-5.574,7.866.009-.008.018-.016.026-.023c2.225-4.146,3.7-6.606,5.548-7.843Z" fill="none"/><path d="M283.771,208.31c-.701-.108-1.398-.229-2.091-.378-.458-.098-.907-.176-1.351-.24.378.058.761.125,1.149.208.776.166,1.536.296,2.293.41Z" fill="none"/><path d="M288.276,149.388c-.001-.001-.001-.001-.002-.002.227,4.08,1.563,7.016,1.204,10.084.363-3.069-.973-6.006-1.202-10.082Z" fill="none"/><path d="M153.373,172.722c.077-.222.167-.448.265-.677-.104.243-.2.482-.281.717-.022,0-.039-.004-.061-.003-5.466,20.452-9.525,41.265-13.125,62.147c0,.005.001.01.002.015c3.616-20.975,7.699-41.66,13.2-62.199Z" fill="none"/><path d="M330.151,215c-3.338-1.038-6.722-1.967-10.125-2.85c3.323.915,6.623,1.922,9.885,3.072.08-.067.16-.132.24-.222Z" fill="none"/><path d="M221.396,231.077c-3.558-.503-7.134-.982-10.694-1.512-.012.005-.024.014-.036.019c3.571.532,7.16,1,10.729,1.505c4.892.691,10.427.271,12.452-5.355-.001.001-.002.002-.004.003-2.028,5.617-7.559,6.031-12.447,5.34Z" fill="none"/><path d="M212.063,228.633c.001-.001.003-.002.004-.003-.002-.083-.012-.176-.02-.265-.002,0-.004,0-.007,0c.007.092.019.176.023.268Z" fill="none"/><path d="M213.947,228.64c-.248-.056-.496-.112-.744-.173c5.219,2.397,10.453,2.422,15.699.231-.006.001-.012.002-.018.004-4.99,2.058-9.97,2.024-14.937-.062Z" fill="none"/><path d="M263.09,214.969c.498-.518,1.007-1.005,1.519-1.483.01-.018.019-.037.028-.054-.525.428-1.058.658-1.565,1.526.005.003.011.007.018.011c0,0,0,0,0,0Z" fill="none"/><path d="M158.9,464.7c3.3-10.36,3.96-20.66.46-31.12-11.88,10.44-1.62,20.82-.46,31.12Z" fill="none"/><path d="M275.035,405.102c.006.244.004.494-.005.748-.017.438-.024.87-.024,1.295c0-.42.008-.847.024-1.28.01-.26.011-.514.005-.763Z" fill="none"/><path d="M155.108,161.854c1.993,1.267,1.881,3.064,1.11,5.005.796-1.974.936-3.804-1.078-5.084-2.613-1.659-4.125,4.273-5.125,7.335c1.229-3.105,2.524-8.887,5.093-7.256Z" fill="none"/><path d="M240.471,209.815v0c.013-.001.025-.002.038-.003c1.502-3.828,2.341-6.957,2.446-9.446-.12,2.489-.972,5.616-2.48,9.445-.001.002-.003.003-.004.004Z" fill="none"/><path d="M150,169.149v-.149c0,0-.061,0-.065,0c.007.081.023.155.033.234.01-.027.021-.057.032-.085Z" fill="none"/><path d="M275.206,272.665c-.003,1.501,2.648.988,2.801,2.145-.152-1.158-2.804-.644-2.801-2.145Z" fill="none"/><path d="M218,395.187c11,5.672,22.684,9.027,34.447,9.122-11.764-.097-23.447-3.452-34.447-9.125c0,.001,0,.002,0,.003Z" fill="none"/><polygon points="208.885,263.003 208.884,263.003 208.885,263.004" fill="none"/><path d="M203.918,260.814c.171.063.349.162.53.285-1.528-1.232-3.056-2.448-4.575-3.676-.008.01-.016.016-.024.025c1.352,1.094,2.71,2.249,4.069,3.366Z" fill="none"/><path d="M276.465,419.463c-4.574-1.248-3.473-8.412-3.188-13.211.176-2.961-.406-4.334-2.673-4.229c2.253-.1,2.826,1.273,2.65,4.229-.285,4.799-1.409,11.963,3.165,13.211c5.764,1.574,8.58,5.457,12.58,8.865.115.065.218.13.315.194-.073-.066-.152-.128-.225-.194-3.702-3.408-6.86-7.291-12.624-8.865Z" fill="none"/><path d="M289.364,160.175c.005-.024.007-.049.012-.073-.005.024-.007.048-.012.073Z" fill="none"/><path d="M202.219,256.865c.826.133,1.6.211,2.054-.866-.006-.003-.012-.006-.019-.01-.456,1.036-1.22.986-2.035.876Z" fill="none"/><path d="M292.364,413.938c.099-.04.026-.089.076-.118-.05.029-.177.078-.275.118.061.235.13.469.194.703.004-.233.066-.467.005-.703Z" fill="none"/><path d="M290.951,429.976c0,.015.049.029.049.044c0-.015-.003-.029-.004-.044-.221-.176-.422-.369-.637-.55.184.185.366.369.592.55Z" fill="none"/><path d="M292.487,415.103c.039.139.073.277.114.415c0,.001,0,.001,0,.002.052-.052.104-.104.156-.156-.119-.088-.211-.175-.27-.261Z" fill="none"/><path d="M191.371,406.67c-.384-13.568-.168-27.137-1.821-40.68-.936-7.678-2.066-14.986-7.421-20.547c5.355,5.561,6.485,12.869,7.421,20.547c1.653,13.543,1.437,27.111,1.82,40.68.063,2.226.018,6.141,2.122,6.319-2.102-.181-2.058-4.094-2.121-6.319Z" fill="none"/><path d="M178.59,338.829c-.218-.954-.437-1.909-.654-2.863.218.966.436,1.979.654,2.863Z" fill="none"/><path d="M179.771,343.139c-.471-1.793-1.948-3.139-2.299-5.139h-.055c.351,2,1.911,3.346,2.382,5.14.003-.007.202-.069.202-.076c0-.001,0-.002,0-.003-.001.005-.227.072-.23.078Z" fill="none"/><path d="M202.151,261.857c-.019.024-.039.047-.058.072c6.871,13.258,15.577,24.207,31.542,26.895-15.921-2.68-24.622-13.756-31.484-26.967Z" fill="none"/><path d="M182.944,182.41c.019.001.038.004.056.005-.676-.412-1.306-.932-1.864-1.618c0,0,0,0,0,0c9.826-14.204,15.686-31.374,31.198-42.688-15.577,11.316-21.643,28.564-31.333,42.79v.101c0,0,.135,0,.134,0c.001,0,.001,0,.001,0c.543.771,1.153,1.096,1.808,1.41Z" fill="none"/><polygon points="293.44,404.48 293.444,404.48 293.443,404.475" fill="none"/><path d="M173.023,215.304c.049.042.097.089.147.131-1.105-2.285-1.606-5.034-1.312-8.371-.1-8.169,6.8-14.329,6.461-22.563.001-.001.002-.002.003-.003c1.384-1.554,3.292-2.111,5.147-1.787.023.004.046.008.07.012-.102-.052-.2-.114-.3-.17-.1-.048-.198-.095-.296-.142-1.685-.1-3.368.684-4.622,1.59-.001,0-.032.25-.033.251.339,8.234-6.59,14.643-6.491,22.812-.288,3.274.164,5.98,1.226,8.24Z" fill="none"/><path d="M225.607,369.352c-.108-.004-.213-.015-.32-.02.003.014.011.028.015.042.103.009.203.053.306.057c1.573-.861,3.146-1.806,5.503-3.095-2.357,1.289-3.93,2.154-5.504,3.016Z" fill="none"/><path d="M233.89,129.617c-9.242,7.053-15.885,16.884-25.38,25.849-.001.004-.002.007-.003.011c9.51-8.969,16.141-18.8,25.383-25.86Z" fill="none"/><path d="M272.501,336.68c-.147-.303-.338-.601-.55-.897.202.32.372.553.516,1.093.004-.005.009-.01.014-.015c0-.005,0,.033.002.07.006.025.013.043.019.069.4.75.572,1.546.604,2.375-.016-.916-.177-1.816-.605-2.695Z" fill="none"/><path d="M272.113,347.172c.001.058-.003.115-.002.172c6.242-4.677,6.248-4.831,7.475-.822.002-.003.003-.005.004-.008-1.231-4.021-1.231-4.022-7.477.658Z" fill="none"/><path d="M242.84,346.7c-14.5-3.36-29.14-4.7-41.86-14.7c12.72,10,27.36,11.42,41.86,14.78c12.213,2.817,21.729-.776,29.627-9.905v0c-7.899,9.129-17.414,12.643-29.627,9.825Z" fill="none"/><path d="M193.18,261.48c0-.001.001-.002.002-.003.187-3.417.64-5.677,1.599-6.919-.962,1.234-1.415,3.491-1.601,6.922Z" fill="none"/><path d="M295,390.156c0-.006-.002-.008-.011-.017.006-.006-.001-.008-.004-.011c0,.009.001.019.001.027-.001.002.014.002.014.004c0,0,0-.001,0-.003Z" fill="none"/><path d="M258.61,142.214c.1-.295.218-.505.352-.647-.135.142-.255.353-.355.651-.409,1.214-.87,1.949-1.364,2.361.495-.411.957-1.147,1.367-2.365Z" fill="none"/><path d="M171.992,214.386c-.103-.097-.209-.193-.327-.292.108.1.218.195.327.292Z" fill="none"/><path d="M171.049,213.644c-1.905,8.441-3.064,17.114-5.844,25.254c2.776-8.128,3.996-16.789,5.896-25.218-.018-.013-.033-.025-.052-.036Z" fill="none"/><path d="M292.559,375.994c.662.057,1.326.109,1.988.166-.662-.056-1.326-.11-1.988-.166-.001,0-.002.001-.003.002c0,.001,0,.002-.001.003.002-.002.003-.003.004-.005Z" fill="none"/><path d="M266.786,238.322c.171-.148.341-.281.511-.393-.239-.124-.478-.252-.719-.372.059.27.128.524.208.765Z" fill="#010101"/><path d="M212.041,228.366c.002,0,.005,0,.007,0-.003-.032-.005-.067-.007-.096.075-.009.15-.041.225-.072-.083-.035-.166-.07-.248-.105.009.089.017.179.023.273Z" fill="#010101"/><path d="M218.522,192.535c.136.005.272.011.408.016c0,0,0,0,.001,0-.112-.038-.224-.075-.335-.113-.024.033-.049.064-.074.097Z" fill="#010101"/><path d="M360.22,337.76c-2.08-4.1-4.76-4.66-8.439-4.46-16.7.94-33.261-1.479-49.92-1.96-3.5-.08-7.301.16-9.2-3.78-2.18-4.56-5.76-8.04-9.44-11.54c14.38-6.899,28.24-13.539,35.96-27.92c2-3.739,4.141-1.859,6.7-.88c6,2.28,12.4,4.08,17.68-1c7.641-7.359,16.44-13.92,18.78-25.34.94-4.5,3.101-8.78,3.86-13.28c1.6-9.52,2.5-18.76,1.02-28.84-1.34-8.96-6.12-17.48-3.88-27.42c3-13.3,3.42-27.02,1.521-40.72-4.42-32.06-18.261-56.68-51.16-67.18-18.48-5.88-37.2-10.36-56.28-13.74-34.8-6.18-60.52,7.06-79.82,35.52-9,13.26-14.36,28.02-19.42,42.98-.92,2.72-.9,5.92-3.9,7.76-8.04,4.96-12.7,13.28-15.88,21.18-6.68,16.68-12.26,33.68-5.4,52.52c4.74,13.08,6.36,16.24,20.76,17.14c3.5.22,4.58,1,4.68,4.58.3,9.521,4.34,17.86,9.26,25.82c6.96,11.28,16.26,20.439,26.64,29.16-6.84,3.52-16.24,3.12-18.72,11.5-2.72,9.199-9.64,11.479-17.24,11.8-13.38.52-21,7.84-25.66,19.28-6.28,15.359-11.8,31.04-19.54,45.76-1.36,2.56-2.88,5.479.12,8.1c3.32,2.9,2.26,6.12,1.3,9.72-4.6,17.471-9.14,35.16-5.23,53.351c1.96,1.37,3.94,2.71,5.93,4.03.06.04.11.069.17.109-.01-.04-.02-.069-.03-.109-.57-2.44-1.18-4.891-1.65-7.36-3.3-17.03,1.98-32.93,5.5-49.08.58-2.6,1.87-3.68,4.58-1.7c8.75,6.46,18.76,9.811,29.44,11.181c3.27.409,4.43,1.42,2.66,4.6-1.58,2.85-2.98,5.81-4.47,8.71-1.16,2.24-2.36,2.65-3.89.26-.78-1.229-2.11-2.029-3.41-1.18-1.26.83-1.23,2.439-.45,3.729c9.89,16.641,12.45,34.66,12.58,52.811c1.63.689,3.28,1.37,4.93,2.02.11-13.149,1.59-26.33,4.8-39.33c1.88-7.71-.22-15.739-2.3-23.39-1.21-4.479-1.28-8.13,4.69-8.89c3.33-.41,4.05-3.101,4.54-5.971c1.98-11.779,4.11-23.529,6.15-35.3.26-1.529,1.03-3.72-.81-4.3-2.26-.74-3.31,1.3-3.65,3.3-1.74,9.9-3.61,19.78-5.02,29.73-.96,6.819-4.05,9.56-11.23,8.979-14.34-1.109-26.96-5.859-37.78-15.41-2.62-2.31-4.56-4.55-2.41-8.369c8.43-15,12.88-31.73,20.34-47.16c3.95-8.2,9.97-13.21,19.8-13.011c7.09.141,11.68,3.261,15.12,8.99c1.37,2.28,1.5,5.12,5.5,5.021v-5.61l.01.01c.01.011.02.011.03.021.08.02.26.04.38.06.02,0,.04-.029.06-.069c0-.011.01-.011.01-.021-2.93-3.56-5.88-7.12-8.8-10.65-.02-.02-.03-.039-.05-.06c3.91-2.68,5.26.59,7.1,2.65.68-.04,1.36-.07,2.04-.11.23-4.42-4.45-8.71-.33-13.23c3.27-6.279,14.88-11.75,21.31-10.029c1.02.279,2.2.41,2.4,1.8.22,1.63-.96,2.55-2.04,3.24-8.2,5.29-8.22,5.26-1.88,13.399c0,0,.01,0,.02.011-.01-.03-.02-.051-.02-.08c13.75,7.01,28.26,11.6,43.39,14.72c11.81,2.439,21.14-.83,28.91-9.83.01,0,.01,0,.01,0c.01.02.01.04.021.06.59-1.399,1.02-2.76,1.05-4.109.01-1.37-.38-2.74-1.42-4.12-.91-1.19-3.04-2.521-3.101-3.85-.04-.45.15-.891.69-1.341c2.28-1.88,5.59-4.83,9.3-1.64c12.93,7.51,15.42,20.63,17.75,33.64.26,1.44.59,2.87.59,4.29.011,6.141-2.43,12.11-3.43,18.061c0,.01,0,.01,0,.01l-.22-.01c.66.06,1.22.109,1.88.17c4.439,12.31,3.77,24.62.08,36.93.02.16.01.33.029.49-.649.64-1.77,1.29-1.77,1.939-.1-.05-.17-.1-.24-.159-.05.06-.109.109-.16.159-.819,4.07,1.69,8.53-1.439,12.33-.03.721-.07,1.45-.101,2.181-.02-.021-.04-.04-.06-.05v.05c3,9.05,2.19,18.68,4.18,27.979c1.761,8.23,3.221,16.51,4.23,24.86c1.02,8.34,1.59,16.729,1.59,25.189c2.01-.359,4-.739,5.99-1.14-.15-9.59-1.24-19.46-2.95-28.9-4.48-24.8-8.78-49.52-2.3-74.6c1.14-4.4.939-9.36.319-13.9-.76-5.779.86-5.64,5.54-4.199c12.74,3.939,25.561,7.319,38.42,10.939c2.04.601,5.12,2.2,6.061.36c4.38-8.521,12.1-5.94,18.62-5.82.46.01.91.021,1.359.021.58-1.11,1.12-2.86,1.62-5.16-4.6.29-9.399.229-14.41-.15c4.261-11.75,5.87-22.97,3.971-34.55-.431-2.61-.16-5.87,3.37-4c2.64,1.4,8.97-2.15,7.85,4.92-.57,3.561-3.89,9.16-.08,10.12.82.21,1.47.22,1.97.07.351-6.2.561-13.07.58-20.32C371.1,344.36,363,343.19,360.22,337.76ZM159.36,433.58c3.5,10.46,2.84,20.76-.46,31.12-1.16-10.3-11.42-20.68.46-31.12Zm164.1-157.31c-.64-.17-1.27-.34-1.91-.5c6.23-24.33,12.47-48.649,18.7-72.979.86.23,1.71.45,2.57.67-4.74,24.719-12.09,48.749-19.36,72.809Zm-4.62-134.04c-.26,1.77.94,4.24-1.32,5.05-2.38.85-2.829-1.86-4.05-3.19-3.319-3.6-6.6-7.27-10.2-10.59-4.6-4.24-9.399-7.66-11.42,3.2-3.619-5.12-6.529-9.25-9.68-13.71-2.66,5.76-2.71,11.34-2.62,16.94.08,4.28-.79,5.42-5.04,2.54-9.84-6.63-16.37-16.39-24.24-24.95-3.15,2.23-.89,5.48-2.33,7.77-.43.03-1.28.18-1.32.07-3.5-11.01-10.96-9.32-19.69-7.13-11.96,2.99-22.68,8.51-33.59,14.57-1.5-4.99,1.89-8.39,2.02-12.62-3.24-.72-3.77,4.02-7.52,3.65c12.29-19.9,29.51-31.28,52.42-32.91c19.851-1.42,38.82,4.02,57.391,10.11c9.31,3.06,14.63,11.89,21,18.91c1.6,1.75,2.819,3.85,4.42,6.07c1.239-2.94.689-6.05,3.34-7.85c3.729,1.56,1.28,7.31,2.93,7.46c7.96.72,5.82,8.77,9.57,11.9c6.72,5.61,6.87,12.98,7.34,20.94-8.59-7.85-18.04-14.25-27.48-20.67-1.961,1.72.269,3,.069,4.44Zm10.44,141.34c-5.3-1.84-3.061-5.301-2.12-8.59c5.22-18.19,11.17-36.181,14.87-54.791.779-3.91,1.55-7.82,2.359-11.73.57-2.72,1.2-5.45,5.061-4.31c3.229.96,6.09,1.93,4.81,6.54-.85,3.04-.72,6.35-1.029,9.54-4.511,19.5-9.37,38.9-16.16,57.77-1.371,3.791-2.391,7.451-7.791,5.571Zm30.7-58.27c-.79,20.94-11.221,50.72-20.801,57.37c5.88-20.18,12.75-39.21,15.971-59.19.489-4.27.979-8.53,1.46-12.8.189-1.6.22-3.47,2.54-3.2c1.489.17,2.39,1.46,2.35,2.87-.14,5.01,1.33,10.21-1.52,14.95ZM161.8,152.37c8.07-26.79,19.47-51.48,42.95-68.65c16.52-12.08,35.04-12.15,54.02-9.03c18.521,3.05,36.601,7.79,54.48,13.65c29.47,9.65,42.03,31.79,46.6,60.33.86,5.37,1.23,10.81,1.881,16.73-1.12,9.85-2.4,20.11-3.391,30.4-.3,3.09-.62,5.38-4.6,4.83-3.98-.54-6.03-2.36-5.04-6.56c3.12-13.12,3.189-26.44,3.04-39.82-.29-25.19-16.69-49.42-40.181-58.45-20.68-7.94-42.189-13.22-64.189-14.48-27.29-1.55-47.51,11.43-61.02,34.91-6.83,11.88-11.25,24.79-14.82,37.95-1.04,3.85-2.93,4.02-5.94,3.15-2.5-.72-4.8-1.58-3.79-4.96ZM149.93,169c.01,0,.07,0,.07,0v.15c0-.01.01-.03.02-.04c1-3.06,2.51-8.99,5.12-7.34c2.01,1.29,1.88,3.12,1.08,5.09-.68,1.7-1.86,3.52-2.58,5.18-.1.23-.19.46-.27.68-5.5,20.54-9.58,41.22-13.2,62.19-3.55-22.87,2.97-43.92,9.76-65.91Zm6.55,62.48c-.84,4.37.3,11.38-8.15,10.04-2.72-.43-4.51-1.29-4.06-4.7c2.8-21.17,5.52-42.34,12.63-62.63-.64-3.14,1.29-5.72,1.9-8.59c1.04-4.94,4.22-4.24,8.06-3.42c4.86,1.04,3.11,3.98,2.58,6.67-.36,1.84-.96,3.63-1.46,5.44-5.7,18.7-7.8,38.1-11.5,57.19Zm1.92,6.76c4.17-24.45,8.21-48.93,14.18-73c.92.18,1.84.37,2.76.55-4.93,24.34-9.85,48.68-14.78,73.02-.72-.19-1.44-.38-2.16-.57Zm110.73,93.72c1.57.36-1.13,4.32-2.92,5.65-2.56,1.89-5.36,3.83-8.75,3.989-18.23.87-35.51-2.569-51.5-11.64-2.91-1.64-6.29-3.05-.61-5.88c3.1-1.54,1.44-5.58,3.27-8.76c16.2,8.859,33.48,10.05,51.39,7.13c6.49-1.059,3.48,8.221,9.12,9.511Zm-97.3-57.68c-1.57-2.49-3.08-5.08-4.55-7.771-4.69-8.63-5.41-17.84-2.07-27.61c2.78-8.14,3.93-16.82,5.84-25.26-.02-.01-.03-.02-.05-.03c0-2.18.55-4.37.8-6.55-.1-8.17,6.83-14.57,6.49-22.81l.03-.25c-.21-.35-.31-.64-.31-.89c0-1.14,2.02-1.29,3.12-2.11h-.13v-.1c9.69-14.23,15.76-31.47,31.33-42.79.52-.38,1.05-.75,1.59-1.12-1.81,6.19-3.32,11.32-5.41,18.48c9.5-8.97,16.14-18.8,25.38-25.85c1.32-1.01,2.7-1.97,4.15-2.86c2.81,7.59,5.94,14.6,14.33,16.91c1.59.44,3.38,2.14,4.87.91.5-.41.96-1.15,1.37-2.36.1-.3.22-.51.35-.65.94-1,2.6,1.45,3.521,2.22c8.14,6.84,17.06,12.45,26.439,17.83.2-.49.35-.97.44-1.45.01-.02.01-.04.02-.07.04-.21.07-.42.101-.63.359-3.03-1.08-6.125-1.33-10.116-.051-.05-.091-.354-.141-.354h.13c0,0,.011.305.011.354c3.92,4.53,6.779,8.238,10.489,12.788.71-6.94,1.351-12.471,2.021-18.971c13.32,10.77,17.5,25.654,22.18,40.794c2.68-4.58,1.891-9.398,3.45-14.568c5.86,15.45-.12,31.596,3.86,45.596.069,1,.159,2.523.239,3.713-.01.03-.02.071-.029.102.01.02.02.03.029.05-2.77,9.08-2.46,18.911-6.699,27.631.069.46.1.92.079,1.36-.039,1.33-.5,2.55-1.5,3.61-.97,10.51-5.649,20.2-5.909,31.06-.15,5.891-5.66,11.021-10.851,14.811-48.75,35.731-101.8,27.491-133.68-23.049ZM352.62,387.77c-1.73,3.36-3.45,4.7-7.66,3.391-12.69-3.96-25.56-7.391-38.4-10.86-4.609-1.25-6.89-4.12-7.199-8.68-.74-10.561-.011-21.24-3.17-31.57-.74-2.41.829-3.399,3.21-3.37c4.09.061,8.18.021,12.279.021c12.79.45,25.53,2.31,38.38,1.46c3.881-.25,5.761,1.34,6.86,5.25c4.35,15.418,3.03,30.118-4.3,44.358Z" fill="#010101"/><g id="e5Ffg9CDekP64"><path d="M493,264.3c-1.32.94-2.74,1.76-4.18,2.54-8.261,4.4-16.061,9.141-19.181,18.88-.72,2.2-2.439,4.62-4.399,5.78-9.48,5.56-12.5,15.3-16.58,24.44-6.62,14.96-14.96,29-23,43.22-11.92,21.09-29.46,31.729-53.601,31.66.58-1.11,1.12-2.86,1.62-5.16c22.141-1.38,39.36-10.95,50.5-33.3c7.141-14.32,15.78-27.931,22.07-42.721c3-7.029,4.43-14.699,13.18-17.84c3.62-1.3,6.5-5.25,7.811-9.16c2.84-8.42,8.939-13.33,16.51-17.04c2.43-1.189,4.67-2.8,7-4.199c1.54-.92,2.72-2.061,1.43-3.881-1.14-1.609-2.439-.289-3.569.221-5.46,2.43-10.91,4.88-16.311,7.439-1.79.84-3.89,1.931-5.25.29-1.77-2.13.16-3.939,1.681-5.52c5.3-5.511,10.619-11,15.859-16.56c1.28-1.37,2.88-3.18.73-4.84-1.46-1.13-3.03.09-4.28,1.26-5.18,4.85-10.33,9.73-15.63,14.459-1.49,1.32-3.2,3.591-5.57,1.58-1.899-1.619-.46-3.68.2-5.29c2.4-5.77,5.53-11.27,7.44-17.18c1.159-3.59,6.899-8.53,1.569-11.01-4.29-2-4.96,5.08-6.8,8.32-2.8,4.95-4.9,10.3-7.54,15.35-1.08,2.06-2.3,4.96-5.35,4.01-2.971-.92-2.341-3.95-2.351-6.33-.05-7.1.101-14.2-.06-21.3-.04-2.2.62-5.62-3.16-5.35-3.16.23-2.22,3.29-2.271,5.24-.27,10.37-.449,20.79-3.84,30.69-1.359,3.98-2.02,6.39,2.07,9.44c4.54,3.38,6.98,8.55,4.52,16.76-1.199-6.4-1.789-11.21-5.529-14.21-6.28-5.05-12.391-10.211-17.63-16.38-1.16-1.37-3.2-2.01-4.88-2.91-1.211-.65-2.631-1.25-3.75-.1-1.801,1.86.189,2.87,1.22,3.94c4.16,4.36,8.08,8.67,8.6,15.26.41,5.19,2.83,9.86,5.76,14.2c2.82,4.16,5.521,8.4,8.28,12.6-5.439-2.22-8.27.521-11.229,3.891-11.891,13.54-24.011,26.87-35.88,40.42-4.5,5.14-7.49,11.229-10.29,17.5-1.15,2.57.18,7.88-2.591,8.66.351-6.2.561-13.07.58-20.32c1.83-.82,3.44-2.01,4.59-3.57C394.16,321,409.04,305.74,423.8,290.4c3.28-3.44,4-5.721,1.22-9.561-3.56-4.899-5.8-10.399-6.399-16.56-.54-5.54-4.44-9.2-8.18-12.84-2-1.94-4.04-3.9-2.101-7.02c1.92-3.1,4.9-3.38,7.94-2.52c5.479,1.6,9.42,5.24,12.319,10.12.801,1.34,1.82,3,3.74,2.681c2.021-.3,1.86-2.5,2.28-3.84c2.34-7.36,2.68-15,2.82-22.66.04-3.26.199-6.54.52-9.78.36-3.62,2.92-5.16,6.2-5.34c3.62-.2,5.24,1.98,6.04,5.36c1.88,8.14.38,16.34.62,24.98c4.439-3.68,4.899-9.22,7.66-13.36c3.239-4.8,3.22-15.42,12.5-11.16c8.579,3.9,1.239,10.8-.221,16.24-.84,3.1-2.66,5.92-4.22,9.28c5.58,1.66,7.3-3.54,10.36-5.82c3.479-2.66,6.64-6.84,11.18-2.74c5.2,4.66.56,8.3-2.34,11.66-3.3,3.88-6.92,7.44-11.94,12.8c5.88-2.58,9.88-4.08,13.66-6.021c3.46-1.78,6.42-1.72,8.44,1.74c2.122,3.621-.078,6.181-2.898,8.261Z" fill="#010101"/><path d="M497,297.309c3.344-5.072,5.77-10.775,1.168-17.32.199,14.273-7.926,22.004-20.113,26.992c8.576.48,14.718-3.251,18.945-9.672Z" fill="#1a1a1a"/><path d="M505.996,287.553c-1.652,5.994-.979,12.092-5.18,16.973-4.107,4.779-10.824,5.689-15.203,10.822c15.285-.348,26.989-16.219,20.383-27.795Z" fill="#1a1a1a"/><path d="M490.75,261.4c-2.33,1.399-4.57,3.01-7,4.199-7.57,3.71-13.67,8.62-16.51,17.04-1.311,3.91-4.19,7.86-7.811,9.16-8.75,3.141-10.18,10.811-13.18,17.84-6.29,14.79-14.93,28.4-22.07,42.721-11.14,22.35-28.359,31.92-50.5,33.3c1.17-5.33,2.11-13.601,2.67-23.59c2.771-.78,1.44-6.09,2.591-8.66c2.8-6.271,5.79-12.36,10.29-17.5c11.869-13.55,23.989-26.88,35.88-40.42c2.96-3.37,5.79-6.11,11.229-3.891-2.76-4.199-5.46-8.439-8.28-12.6-2.93-4.34-5.35-9.01-5.76-14.2-.52-6.59-4.439-10.899-8.6-15.26-1.03-1.07-3.021-2.08-1.22-3.94c1.119-1.15,2.539-.55,3.75.1c1.68.9,3.72,1.54,4.88,2.91c5.239,6.169,11.35,11.331,17.63,16.38c3.74,3,4.33,7.81,5.529,14.21c2.461-8.21.021-13.38-4.52-16.76-4.09-3.051-3.43-5.46-2.07-9.44c3.391-9.9,3.57-20.32,3.84-30.69.051-1.95-.89-5.01,2.271-5.24c3.78-.27,3.12,3.15,3.16,5.35.16,7.1.01,14.2.06,21.3.01,2.38-.62,5.41,2.351,6.33c3.05.95,4.27-1.95,5.35-4.01c2.64-5.05,4.74-10.4,7.54-15.35c1.84-3.24,2.51-10.32,6.8-8.32c5.33,2.48-.41,7.42-1.569,11.01-1.91,5.91-5.04,11.41-7.44,17.18-.66,1.61-2.1,3.67-.2,5.29c2.37,2.011,4.08-.26,5.57-1.58c5.3-4.729,10.45-9.609,15.63-14.459c1.25-1.17,2.82-2.39,4.28-1.26c2.149,1.66.55,3.47-.73,4.84-5.24,5.56-10.56,11.049-15.859,16.56-1.521,1.58-3.45,3.39-1.681,5.52c1.36,1.641,3.46.55,5.25-.29c5.4-2.56,10.851-5.01,16.311-7.439c1.13-.51,2.43-1.83,3.569-.221c1.289,1.82.109,2.96-1.431,3.88Z" fill="#fecb98"/></g><path d="M291.494,209.262c-.188-.023-.374-.047-.561-.071.194.116.39.254.585.337-.009-.087-.022-.17-.024-.266Z" fill="#010101"/><path d="M144.2,435.33c1.3-.85,2.63-.05,3.41,1.18c1.53,2.391,2.73,1.98,3.89-.26c1.49-2.9,2.89-5.86,4.47-8.71c1.77-3.18.61-4.19-2.66-4.6-10.68-1.37-20.69-4.721-29.44-11.181-2.71-1.979-4-.899-4.58,1.7-3.52,16.15-8.8,32.05-5.5,49.08.47,2.47,1.08,4.92,1.65,7.36.01.04.02.069.03.109.83.54,1.67,1.09,2.5,1.63c11.52,7.391,23.68,13.88,36.37,19.37.66.29,1.32.58,1.99.86-.13-18.15-2.69-36.17-12.58-52.811-.78-1.287-.81-2.897.45-3.727Z" fill="#fecb98"/><path d="M316.359,282.523c.266-10.863,4.945-20.551,5.914-31.061-4.262,2.468-8.965,1.984-13.518,1.698-14.119-.888-27.729-4.019-40.697-9.808-5.844-2.607-9.1-6.63-7.973-13.411c2.203.128,1.059,2.952,2.781,3.401.146-1.406-.805-3.313,1.662-3.661c0,0,.001,0,.001.001-1.06-1.969-2.117-3.932-3.175-5.894-4.771-9.275-17.435-11.29-22.499-3.579-1.488.191-2.961.41-3.729,1.966-.023.013-.049.023-.072.036c3.768,5.111.075,7.542-3.772,9.514-4.798,2.459-10.175,2.307-15.189,1.335-11.406-2.216-22.759-4.764-33.74-8.743-5.387-1.953-9.453-4.984-11.196-10.602-.019-.012-.036-.025-.055-.037-1.901,8.43-3.12,17.09-5.896,25.218-3.332,9.769-2.615,18.987,2.078,27.614c1.462,2.69,2.979,5.278,4.547,7.764c31.883,50.544,84.93,58.784,133.681,23.059c5.183-3.798,10.703-8.919,10.847-14.81Zm-56.982-34.752c-3.997,9.038-11.066,7.462-17.11,6.771-6.305-.72-10.463-4.771-11.291-11.907c8.69,5.177,17.87,6.689,28.401,5.136ZM193.18,261.48c.187-3.432.64-5.689,1.601-6.922c1.528-1.979,4.348-1.362,9.492,1.396-.006.014-.013.022-.019.035.006.004.012.006.019.01-.454,1.077-1.228.999-2.054.866-.817-.109-1.684-.268-2.345.559c1.519,1.228,3.047,2.443,4.575,3.676.056.038.11.067.167.111c1.422.598,2.845,1.189,4.266,1.787.001.002.06.002.061.002c0,0,.058,0,.058,0s0,.001,0,0c15,3.682,31.112,5.697,46.111,11.006c7.51,1.137,14.903,3.357,22.77,1.537.137-.302.166-.541.141-.733-.152-1.156-2.812-.644-2.809-2.145.001-.25.072-.556.244-.935c4.422.359,9.236.084,9.096,6.883-.029,1.232-.567,3.328-2.122,1.176-3.275-4.529-6.345-2.102-8.778.32-11.553,11.479-25.102,13.063-40.018,8.715-15.964-2.688-24.67-13.637-31.542-26.895-.018.024-.037.045-.055.07-.001,0-.001,0-.002,0-2.97,0-5.347-7.006-8.856-.497c0-.009.001-.017.002-.025-.002.002-.003.002-.003.003Z" fill="#fecb98"/><path d="M181.136,180.797c0,0,0,0,0,0c18.968,2.625,37.293,8.229,55.979,12.164c4.208.884,6.041,3.257,5.841,7.405-.105,2.489-.944,5.619-2.446,9.446c8.065-.758,15.572.917,22.501,5.11c2.993-13.879,4.522-15.528,17.66-12.066c6.643,1.752,13.376,3.255,20.104,4.756c6.452,1.379,12.897,2.789,19.253,4.539c3.403.883,6.787,1.812,10.125,2.85.001,0,.002,0,.003,0-3.971-14,2.01-30.139-3.842-45.592-1.563,5.167-.76,10-3.434,14.579-4.682-15.14-8.828-30-22.152-40.768-.666,6.5-1.372,12.081-2.087,19.02-3.762-4.61-6.64-8.251-10.64-12.863c0,.004,0,.008,0,.012c1,4.076,1.703,7.013,1.34,10.082-.025.21.009.421-.033.632-.005.024.028.049.023.073-.098.477-.225.958-.424,1.45-9.385-5.382-18.294-10.996-26.435-17.838-.92-.771-2.577-3.213-3.514-2.22-.134.142-.25.352-.35.647-.41,1.218-.871,1.954-1.367,2.365-1.487,1.23-3.277-.466-4.875-.905-8.385-2.312-11.519-9.324-14.328-16.909-1.447.887-2.825,1.842-4.148,2.853-9.242,7.06-15.874,16.891-25.383,25.859.001-.004.002-.007.003-.011c2.094-7.154,3.601-12.289,5.413-18.474-.542.365-1.07.738-1.589,1.117-15.513,11.313-21.372,28.483-31.198,42.687Zm123.202,6.617c8.533,1.493,8.838,9.093,11.234,15.46-6.998-3.888-14.092-7.263-21.846-8.599-7.648-1.318-15.396-2.056-23.102-3.048-.152-.818-.307-1.638-.461-2.457c11.04-4.65,22.579-3.386,34.175-1.356Zm-79.306-17.681c6.172,2.708,11.987,6.24,17.895,9.527c1.714.954,3.308,2.748,2.285,4.668-1.296,2.437-3.406.337-4.848-.23-13.366-5.279-26.789-9.961-41.767-6.467c9.413-12.009,13.323-13.257,26.435-7.498Z" fill="#fecb98"/><path d="M376.35,362.07c-.56,9.989-1.5,18.26-2.67,23.59-4.6.29-9.399.229-14.41-.15c4.261-11.75,5.87-22.97,3.971-34.55-.431-2.61-.16-5.87,3.37-4c2.64,1.4,8.97-2.15,7.85,4.92-.57,3.561-3.89,9.16-.08,10.12.819.21,1.469.22,1.969.07Z" fill="#fecb98"/><path d="M318.766,137.79c9.447,6.419,18.895,12.824,27.488,20.671-.471-7.961-.619-15.334-7.344-20.943-3.746-3.125-1.609-11.182-9.566-11.896-1.656-.147.801-5.897-2.934-7.462-2.648,1.801-2.102,4.906-3.344,7.853-1.598-2.224-2.816-4.318-4.412-6.075-6.377-7.021-11.697-15.85-21.008-18.905-18.568-6.092-37.541-11.535-57.388-10.116-22.913,1.639-40.125,13.013-52.414,32.91c3.744.378,4.275-4.368,7.519-3.647-.137,4.23-3.527,7.63-2.025,12.618c10.91-6.061,21.629-11.578,33.59-14.569c8.732-2.184,16.197-3.877,19.692,7.132.035.109.888-.04,1.315-.067c1.441-2.291-.811-5.538,2.338-7.776c7.87,8.563,14.398,18.325,24.232,24.959c4.256,2.871,5.121,1.736,5.049-2.547-.098-5.602-.047-11.174,2.615-16.937c3.15,4.459,6.064,8.592,9.68,13.713c2.018-10.865,6.822-7.44,11.416-3.206c3.602,3.318,6.883,6.99,10.203,10.597c1.219,1.321,1.672,4.036,4.051,3.186c2.258-.809,1.064-3.28,1.318-5.054.202-1.437-2.024-2.717-.071-4.439Z" fill="#272b2b"/><path d="M165.593,157.33c3.012.871,4.894.696,5.938-3.153c3.567-13.158,7.987-26.065,14.82-37.944c13.511-23.485,33.729-36.467,61.015-34.912c22.005,1.255,43.517,6.535,64.192,14.479c23.492,9.027,39.895,33.256,40.18,58.447.156,13.381.086,26.707-3.035,39.825-.996,4.196,1.055,6.014,5.033,6.559c3.982.547,4.303-1.736,4.602-4.835.994-10.289,2.273-20.55,3.393-30.392-.652-5.923-1.023-11.368-1.883-16.735-4.57-28.535-17.129-50.677-46.596-60.327-17.881-5.858-35.959-10.605-54.482-13.65-18.979-3.118-37.498-3.051-54.021,9.032-23.482,17.171-34.876,41.854-42.943,68.643-1.019,3.385,1.286,4.239,3.787,4.963Z" fill="#646464"/><path d="M197.557,356.406c10.488,4.551,20.937,9.23,33.554,9.93-2.356,1.289-3.93,2.233-5.503,3.095c4.733,1.645,9.587,1.569,14.55,1.569.003,0,.005,0,.008,0-.003,0-.005-.078-.008-.076.063.006.124.006.186.011.061-.023.121-.044.182-.067-.123-.01-.245-.013-.368-.023.003-.001.005-.002.008-.003c5.241-1.81,10.483-3.614,15.759-5.432-1.002-4.485-5.564-2.957-7.622-5.293.012-.002.024-.004.036-.006-.011-.013-.025-.021-.036-.034c11.684-1.93,25.347,1.16,31.283-13.555-1.227-4.009-1.232-3.854-7.475.822-.001-.057.003-.114.002-.172c0,.001-.001.001-.002.002-.058-2.641,1.037-5.279.994-7.799-.032-.829-.204-1.625-.604-2.375-.006-.026-.013-.044-.019-.069-.002-.037-.002-.075-.002-.07-.005.005-.01.01-.014.015v0c-7.898,9.129-17.414,12.723-29.627,9.905-14.5-3.36-29.14-4.78-41.86-14.78c12.72,10,27.36,11.34,41.86,14.7c12.213,2.817,21.729-.696,29.627-9.825-.144-.54-.313-.772-.516-1.093-.127-.176-.252-.352-.404-.525-.001-.001-.001-.002-.002-.003.02-.045.036-.09.056-.135-.01-.021-.019-.039-.028-.062-.009-.021-.017-.036-.025-.058-.001,0-.001,0-.002,0-7.771,9-17.105,12.272-28.917,9.835-15.132-3.123-29.637-7.718-43.392-14.724.006.026.018.051.024.076.176.684.561,1.292,1.021,1.813c1.11,1.255,2.639,2.348,2.644,4.688-5.026-.91-9.704-2.621-12.452-6.609-2.534-3.675-5.741-5.911-9.463-7.629-.512-.235-1.033-.463-1.563-.682-4.119,4.518.565,8.814.328,13.236.1.237.208.467.312.701c3.789,8.59,10.032,15.142,17.47,20.701Z" fill="#4f4f59"/><path d="M278.092,320.02c-.13.986.005,1.842.304,2.616c1.335,3.462,6.019,5.274,5.702,9.552c1.441,17.061-4.697,31.477-16.84,42.879-5.65,5.309-13.799,2.99-20.936,1.975-4.772-.682-9.471-1.896-14.203-2.871-2.157,4.033,3.966,2.832,3.539,6.049-11.882-1.027-21.563-8.988-33.187-10.766c4.233,9.068,9.53,17.299,18.079,22.967c3.492-.764,6.564,2.648,10.134,1.162.495-2.398-2.327-2.992-2.517-6.283c14.064,6.361,27.887,12.117,43.285,10.129c9.715-4.403,15.421-12.974,21.203-21.254.041-.059.344-.116.344-.175c0-.001,0-.002,0-.003s0-.001,0-.002c1-5.957,3.442-11.923,3.433-18.064-.002-1.416-.228-2.841-.483-4.277-2.326-13.013-4.933-26.131-17.857-33.634Z" fill="#53545c"/><path d="M177.876,335.697c.02.088.04.18.06.269.218.954.436,1.909.654,2.863.014.056.249.116.262.171.309,1,.147,2.708,1.147,4.059c0,.001,0,.001,0,.002s0,.002,0,.003c0,.04-.203.081-.193.121.499.379.857.771,1.304,1.17.396.354.716.718,1.073,1.089c5.355,5.561,6.458,12.869,7.394,20.547c1.653,13.543,1.423,27.111,1.807,40.68.063,2.225.012,6.138,2.113,6.319.485.042,1.076-.115,1.817-.538c8.274-4.715,20.685-4.135,22.685-17.265c0-.001,0-.002,0-.003c11,5.673,22.689,9.028,34.453,9.125c5.349.044,10.776-.586,16.3-1.979.714-.18,1.327-.283,1.851-.307c2.266-.105,2.849,1.268,2.673,4.229-.285,4.799-1.386,11.963,3.188,13.211c5.764,1.574,8.922,5.457,12.626,8.865.072.066.151.128.225.194.339.309.692.605,1.044.903.215.181.416.374.637.55.021.018.041.035.063.052.035-.727.068-1.453.104-2.18-.284-.372-.559-.757-.83-1.145-1.448-2.075-2.771-4.301-4.643-5.875-12.871-10.816-13.098-17.184-.693-29.449.939-.928,1.918-1.811,3.662-3.453c1.584,9.132,1.391,17.79,3.507,26.013.099-.04.226-.089.275-.118-.05.029.022.078-.076.118.061.235-.001.47-.005.703.042.154.084.308.128.461.059.087.15.174.271.261.071.052.145.103.242.154c0,.001,0,.001,0,.002c0-.648,1.098-1.295,1.744-1.943-.018-.161-.04-.322-.059-.483-.049.161-.092.082-.141.243-.335-3.036-.736-5.336-1.101-9.336-.001,0-.004,0-.004,0c.001,0,.002.236.003.234-.661-5.484-1.198-10.86-.977-16.442.084-2.104.215-4.104.537-6.122.302-1.893.771-3.72,1.543-5.54-.662-.057-1.326-.094-1.988-.15-.001.002-.002.01-.004.012-.04.059-.08.12-.121.179-5.782,8.28-11.266,16.853-20.98,21.256-.851.786-1.754,1.438-2.693,1.98.66-.072,1.32-.141,1.986-.24-.666.1-1.326.199-1.986.271-.33.191-.665.563-1.004.563-4.076,2-8.736,2.078-12.939,1.939-.176-.006-.352-.029-.528-.036-.03.027-.06.046-.088.044-.05.01-.09.053-.14.053.05,0,.09-.051.14-.061.028.002.058-.023.088-.051-10.087-.367-20.158-1.698-29.158-6.599-1.559-.849-3.09-1.792-4.58-2.87-8.549-5.668-13.846-13.898-18.079-22.967-.042-.057-.086-.112-.128-.17-.748-1.004-1.565-1.974-2.171-3.059-.317-.568-.198-1.383-.42-3.359c9.71,7.523,20.961,7.731,31.238,10.948.376.118.754.23,1.128.356c4.732.975,9.431,2.189,14.203,2.871c7.137,1.016,15.285,3.334,20.936-1.975c12.143-11.402,18.281-25.818,16.84-42.879-.835.49-1.459,1.026-1.928,1.596-.936,1.136-1.232,2.41-1.251,3.744-.006,2.236.672,4.609.586,6.524-.022.848-.159,1.67-.509,2.446-.007.063-.02.123-.026.187-.042.362-.096.717-.153,1.067-.096.578-.209,1.143-.347,1.689-.146.582-.313,1.147-.505,1.695-2.111,6.025-6.889,10.008-12.721,13.025-6.464,3.346-13.151,5.983-20.316,6.654-2.149.201-4.342.302-6.584.118-.063-.005-.124-.005-.186-.011.003-.002.005.076.008.076-.003,0-.005,0-.008,0-4.963,0-9.816.075-14.55-1.569-.103-.004-.203-.048-.306-.057-.003-.014-.011-.028-.015-.042-9.279-.43-17.458-3.249-24.159-9.266-1.24-1.113-2.436-2.322-3.571-3.66-7.438-5.56-13.681-12.111-17.469-20.701-.104-.234-.212-.464-.312-.701-.678.035-1.357.07-2.035.105.044.2.089.397.135.592v0Zm92.233,30.944c-7.402,8.541-14.491,10.584-24.321,6.605c9.334-.676,16.931-2.902,24.321-6.605Zm4.921,39.209c.009-.254.011-.504.005-.748.006.249.005.504-.005.763-.017.434-.024.86-.024,1.28c0-.425.008-.857.024-1.295Zm-67.935-21.61c1.434,5.154,2.473,12.189,1.021,17.389-.985,3.533-7.724,5.668-12.159,7.883-1.152.578-1.603-1.807-1.514-3.115c1.016-15.188-2.126-30.236-.282-45.875c4.503,7.853,10.58,15.267,12.934,23.718Z" fill="#080909"/><path d="M260.01,322.447c-17.913,2.92-35.188,1.729-51.389-7.131-1.835,3.186-.167,7.219-3.269,8.764-5.686,2.83-2.306,4.236.605,5.885c15.992,9.066,33.27,12.506,51.503,11.631c3.391-.16,6.186-2.092,8.746-3.986c1.793-1.328,4.496-5.289,2.926-5.648-5.64-1.288-2.628-10.571-9.122-9.515Z" fill="#fdcb98"/><path d="M193.378,217.049c-4.252-5.049-5.374-10.803-3.39-16.637c2.039-5.992,7.308-8.438,13.53-8.386c5.001.044,10.002.323,15.004.508.024-.033.05-.063.074-.097-13.07-4.434-26.225-8.449-40.274-7.94-.001.001-.002.002-.003.003.339,8.234-6.561,14.395-6.461,22.563.625,5.205,2.594,8.944,5.602,11.614c1.853,1.645,4.104,2.878,6.677,3.798c1.687.603,3.507,1.075,5.455,1.43c7.502,1.367,14.488,5.414,22.449,4.46-.006-.093-.014-.184-.023-.273-6.698-2.838-13.654-5.116-18.64-11.043Z" fill="#fdcb99"/><path d="M291.494,209.262c.002.096.015.179.024.266.002,0,.004.002.006.003.002.024.008.043.01.066c4.532,1.907,9.11,3.718,13.55,5.827c5.291,2.517,8.809,6.859,8.547,12.751-.268,6.016-3.877,10.53-9.264,13.373-10.553,5.572-20.959,3.234-31.273-.774-2-.778-3.881-1.856-5.797-2.846-.17.112-.34.245-.511.393.411,1.238,1.102,2.101,1.951,2.741.959.722,2.121,1.16,3.32,1.526.872.267,1.762.497,2.606.772c10.325,3.361,20.952,5.5,31.615,7.452.801.146,1.603.294,2.404.439c2.833.513,5.455.277,7.901-.533c2.546-.843,4.902-2.31,7.104-4.221c0-.001.001-.002.002-.004.001-.001.001-.002.002-.003c4.24-8.725,3.928-18.551,6.699-27.632-12.421-5.424-25.562-7.918-38.896-9.596Z" fill="#fdcb99"/><path d="M156.904,174.188c-7.11,20.294-9.832,41.466-12.634,62.631-.452,3.414,1.339,4.272,4.063,4.703c8.444,1.337,7.305-5.669,8.151-10.04c3.694-19.091,5.799-38.496,11.5-57.187-3.693-.035-7.387-.07-11.08-.107Z" fill="#323231"/><path d="M342.027,220.194c-3.699,18.603-9.652,36.594-14.865,54.786-.941,3.285-3.178,6.754,2.119,8.59c5.398,1.875,6.418-1.775,7.787-5.574c6.787-18.869,11.656-38.266,16.158-57.771-3.74,2.558-7.472,2.214-11.199-.031Z" fill="#323231"/><path d="M292.687,415.103c-.044-.153-.186-.307-.228-.461-.064-.234-.184-.468-.244-.703-2.116-8.223-1.947-16.881-3.531-26.013-1.744,1.643-2.735,2.525-3.675,3.453-12.404,12.266-12.185,18.633.687,29.449c1.871,1.574,3.191,3.8,4.64,5.875.271.388.744.772,1.028,1.145c3.133-3.798.637-8.259,1.637-12.328c0-.001,0-.001,0-.002-.001-.138-.275-.277-.314-.415Z" fill="#4f5057"/><path d="M339.176,282.674c9.586-6.658,20.016-36.43,20.805-57.376-1.609-.604-3.223-1.211-4.834-1.815-3.213,19.972-10.084,39.005-15.971,59.191Z" fill="#4b4b4b"/><path d="M149.935,169.318c0,0,0-.001,0,0c.011-.027.021-.058.033-.084-.01-.079-.026-.153-.033-.234h-.002c-6.789,22-13.323,43.064-9.768,65.941.002-.012.004-.023.006-.035c3.6-20.883,7.658-41.695,13.125-62.147-2.295.02-3.188-1.354-3.361-3.441Z" fill="#4a4a4a"/><path d="M190.474,330.078c2.748,3.988,7.426,5.699,12.452,6.609-.005-2.34-1.534-3.433-2.644-4.688-.478-.54-.879-1.11-1.045-1.824-6.334-8.137-6.316-8.109,1.884-13.395c1.083-.695,2.26-1.613,2.036-3.246-.191-1.383-1.377-1.516-2.399-1.791-6.424-1.725-18.034,3.746-21.31,10.023.531.219,1.051.446,1.563.682c3.722,1.719,6.929,3.955,9.463,7.63Z" fill="#636869"/><path d="M182.944,182.41c-.655-.314-1.265-.64-1.808-1.41c0,0-.001,0-.002,0-1.342,1-4.025,1-2.816,3c.001,0,.003,0,.005,0c1.253-.906,2.936-1.689,4.621-1.59Z" fill="#fbebdb"/><path d="M218.597,192.438c.111.038.223.075.335.113v0c4.193,1.582,8.515,2.891,12.544,4.818c4.94,2.358,9.563,5.273,7.317,12.144-.051.152.291.618.438.612.209-.006.416-.055.624-.117.205-.061.41-.135.616-.192.001-.001.002-.002.003-.004c1.509-3.829,2.36-6.957,2.48-9.445.2-4.148-1.632-6.521-5.841-7.405-18.686-3.935-37.01-9.54-55.978-12.164.558.687,1.188,1.207,1.864,1.618-.019-.001-.038-.004-.056-.005.098.047.196.094.296.142.1.057.198.119.3.17-.023-.004-.046-.008-.07-.012-1.855-.324-3.764.233-5.147,1.787c14.05-.509,27.204,3.505,40.275,7.94Z" fill="#f2f2f2"/><path d="M329.911,215.223c-3.262-1.15-6.562-2.157-9.885-3.072-6.355-1.75-12.801-3.159-19.253-4.539-6.728-1.439-13.461-2.852-20.104-4.604-13.138-3.462-14.667-1.964-17.66,11.915.021.012.041.023.062.036.508-.869,1.04-1.098,1.565-1.526.028-.056.057-.116.086-.171.061-.056.122-.107.183-.162c2.234-4.163,3.713-6.63,5.574-7.866-1.849,1.237-3.323,3.697-5.548,7.842c4.346-3.933,9.168-6.342,15.397-5.383.443.063.893.142,1.351.24.692.148,1.39.27,2.091.378c2.035.305,4.042.471,6.229.752v-.063c0,0,.401,0,.4,0c.001,0,.002,0,.003,0c.176,0,.353.086.53.191.187.024.373.047.561.071c13.334,1.678,26.475,4.171,38.898,9.597-.01-.017-.02-.033-.029-.049-.724-1.24-1.538-2.495-2.84-3.042.12-.008.241-.031.361-.042c1.109.632,1.847,1.845,2.508,2.98-.08-1.186-.16-2.707-.238-3.707-.001,0-.002,0-.003,0-.079.091-.159.156-.239.224Zm-1.129.4c.271-.046.544-.121.815-.188-.272.142-.544.19-.815.188Z" fill="#f2f2f2"/><path d="M271.601,335.119c-.02.045-.036.09-.056.135.001.001.001.002.002.003.152.174.277.35.404.525.212.297.402.595.55.897.428.879.589,1.779.604,2.695.043,2.52-1.052,5.158-.994,7.799.001-.001.002-.001.002-.002c6.246-4.68,6.246-4.679,7.477-.658.21-.001.421-.005.631-.007.254-.003.509-.005.764-.009.01-.178.014-.344.018-.512.328-.56.47-1.214.503-1.935.086-1.915-.592-4.288-.586-6.524.003-1.436.288-2.815,1.243-3.981.002.079.004.157.008.237.469-.569,1.093-1.105,1.928-1.596.316-4.277-4.367-6.09-5.702-9.552-.299-.774-.434-1.63-.304-2.616-3.717-3.195-7.018-.227-9.301,1.656-.524.432-.716.866-.694,1.3.067,1.338,2.198,2.662,3.099,3.854c1.041,1.38,1.435,2.747,1.423,4.121-.014,1.379-.432,2.763-1.019,4.17Zm9.405,10.297c-.021-1.547-.312-2.648-.886-3.272-.359-1.358-.896-2.687-.951-4.05.07,1.273.598,2.449.951,3.785.63.684.922,1.856.886,3.537Z" fill="#34323b"/><path d="M340.25,202.793c-6.234,24.323-12.467,48.649-18.703,72.975.641.166,1.277.332,1.914.498c7.273-24.054,14.621-48.088,19.359-72.804-.859-.224-1.715-.446-2.57-.669Z" fill="#323231"/><path d="M172.584,165.236c-5.974,24.075-10.01,48.553-14.182,73.001.721.189,1.44.38,2.16.569c4.925-24.337,9.85-48.674,14.775-73.012-.917-.185-1.836-.37-2.753-.558Z" fill="#30302f"/><path d="M171.156,213.716c1.743,5.618,5.809,8.649,11.196,10.602c10.981,3.979,22.334,6.527,33.74,8.743c5.015.972,10.392,1.124,15.189-1.335c3.848-1.973,7.541-4.403,3.772-9.514-.014.008-.028.014-.042.021.213,1.606-.33,2.66-1.166,3.5-2.025,5.627-7.56,6.047-12.452,5.355-3.569-.505-7.158-.974-10.729-1.505.012-.005.023-.014.036-.019c3.56.53,7.136,1.009,10.694,1.512c4.889.691,10.42.278,12.448-5.34-.986.99-2.372,1.688-3.401,2.646-.003.001-.006.001-.009.002-.51.118-1.021.213-1.531.313-5.247,2.191-10.48,2.01-15.699-.387-.221-.055-.441-.311-.662-.311c0,0-.001,0-.002,0-.021,0-.04.022-.061.025-.031-.015-.061-.025-.092-.025.021,0,.043,0,.065,0-.062,0-.124.085-.186.06-.075.031-.15.132-.225.141.002.028.004.098.007.13.008.088.018.2.02.282-.001.001-.002.01-.004.011-.005-.092-.017-.171-.022-.263-7.961.953-14.947-3.091-22.449-4.458-1.947-.355-3.768-.826-5.455-1.429-2.574-.919-4.825-2.153-6.677-3.797-3.007-2.67-4.977-6.41-5.602-11.614-.295,3.337.206,6.087,1.312,8.372-.05-.042-.098-.089-.147-.131-1.062-2.259-1.514-4.965-1.224-8.24-.246,2.181-.799,4.365-.799,6.544c0,.001,0,.001,0,.002.018.011.032.022.049.034.019.012.034.023.052.036.02.012.038.025.056.037Zm.836.67c-.109-.098-.219-.192-.327-.292.118.099.225.196.327.292Z" fill="#f2f2f2"/><path d="M323.689,246.499c-2.202,1.911-4.559,3.377-7.104,4.221-2.446.811-5.068,1.046-7.901.533-.802-.145-1.604-.293-2.404-.439-10.663-1.952-21.29-4.091-31.615-7.452-.845-.275-1.734-.505-2.606-.772-1.199-.367-2.361-.804-3.32-1.526-.85-.64-1.54-1.503-1.951-2.741-.08-.241-.149-.495-.208-.765-1.087-1.235-2.177-2.473-3.268-3.709-.147-.168-.295-.336-.443-.504-1.723-.449-.578-3.273-2.781-3.401-1.127,6.781,2.129,10.804,7.973,13.411c12.969,5.789,26.578,8.92,40.697,9.808c4.553.286,9.256.77,13.518-1.698c1.001-1.063,1.454-2.282,1.499-3.616.016-.438-.013-.888-.081-1.35-.004-.001-.005-.001-.005,0Z" fill="#f2f2f2"/><path d="M353.227,220.226c.309-3.188.188-6.496,1.031-9.537c1.279-4.613-1.576-5.583-4.807-6.538-3.865-1.143-4.494,1.587-5.059,4.312-.814,3.905-1.578,7.819-2.365,11.732c3.727,2.244,7.459,2.588,11.2.031Z" fill="#626262"/><path d="M169.444,168.853c.526-2.688,2.274-5.63-2.584-6.668-3.842-.822-7.018-1.522-8.064,3.42-.609,2.867-2.532,5.444-1.892,8.583c3.692.037,7.387.072,11.08.107.496-1.812,1.099-3.605,1.46-5.442Z" fill="#626262"/><path d="M361.504,210.354c.039-1.41-.859-2.7-2.352-2.873-2.318-.267-2.355,1.595-2.539,3.201-.486,4.269-.977,8.533-1.467,12.801c1.611.604,3.225,1.211,4.834,1.815c2.852-4.736,1.379-9.935,1.524-14.944Z" fill="#757575"/><path d="M149.935,169.317c0,0,0,.001,0,0c.174,2.087,1.066,3.462,3.361,3.441.021,0,.039.004.061.003.082-.235.177-.475.281-.717.718-1.666,1.903-3.481,2.581-5.185.771-1.941.883-3.738-1.11-5.005-2.569-1.631-3.865,4.15-5.093,7.255-.005.013-.011.027-.016.04-.011.028-.022.058-.033.084-.011.028-.022.058-.032.084Z" fill="#757575"/><path d="M266.578,237.557c.241.12.479.248.719.372c1.916.99,3.797,2.067,5.797,2.846c10.314,4.009,20.721,6.347,31.273.774c5.387-2.843,8.996-7.357,9.264-13.373.262-5.892-3.256-10.234-8.547-12.751-4.439-2.109-9.018-3.92-13.55-5.827-.002-.023-.008-.042-.01-.066-.002-.001-.004-.002-.006-.003-.195-.083-.391-.221-.585-.337-.178-.105-.354-.191-.53-.191-.001,0-.002,0-.003,0c.001,0-.4,0-.4,0v.062c-2.188-.281-4.194-.447-6.229-.752-.757-.113-1.517-.243-2.292-.409-.389-.083-.771-.15-1.149-.208-6.229-.958-11.052,1.451-15.397,5.383-.009.008-.018.016-.026.023-.061.055-.122.106-.183.162-.029.055-.058.115-.086.171-.01.018-.019.036-.028.054-.512.478-1.021.965-1.519,1.483c0,0,0,0-.001,0-.006-.003-.012-.007-.018-.01-.021-.012-.041-.023-.062-.036v0c-6.929-4.193-14.436-5.868-22.501-5.11-.012.001-.024.002-.037.003v0c-.206.058-.411.131-.616.192-.208.062-.415.111-.624.117-.147.006-.489-.46-.438-.612c2.246-6.87-2.377-9.785-7.317-12.144-4.029-1.927-8.351-3.236-12.544-4.818v0c0,0,0,0,0,0-.137-.005-.272-.011-.409-.016-5.001-.185-10.002-.464-15.004-.508-6.223-.052-11.491,2.394-13.53,8.386-1.984,5.834-.862,11.588,3.39,16.637c4.986,5.927,11.942,8.206,18.64,11.043.083.035.165.07.248.105.062.026.124.052.186.079.102,0,.204.001.306.002.126,0,.252.001.379.002-.198-.093-.396-.28-.594-.28c0,0-.001,0-.002,0c0,0-.001,0-.002,0-.021,0-.04-.033-.061-.03.021.011.043.02.064.03.32.107.64.186.959.282c5.214.03,10.429.063,15.645.095.429-.123.858-.233,1.287-.377.003,0,.005,0,.008,0-.271.135-.541.257-.812.38.268.001.536.003.803.005.003-.001.006-.001.009-.002c1.029-.958,2.415-1.656,3.401-2.646.001-.001.002-.002.004-.003.835-.84,1.378-1.894,1.166-3.5-.18.099-.373.181-.556.275-.004.002-.009.004-.013.006-10.885,5.622-27.258,3.568-36.439-4.751-3.749-3.394-7.05-7.631-5.983-12.668c1.147-5.412,6.396-6.696,12.647-7.673-4.386,6.969-4.555,13.27,1.262,18.501c4.531,4.076,9.885,5.58,15.846,3.397c6.879-2.524,9.389-7.772,8.619-15.567c4.594,2.792,8.55,5.238,6.004,10.755-.833,1.809.474,2.466,1.568,3.156.928.585,1.704,1.193.889,2.546c5.064-7.711,17.728-5.696,22.499,3.579.074-.841.666-1.007,1.371-1.109c1.165-.17,2.643-.17,2.627-2.755-.025-4.441,5.361-5.095,10.646-7.22-4.059,8.029-5.068,14.633,1.359,19.94c4.695,3.877,10.014,5.285,15.967,2.848c6.518-2.666,8.846-7.619,8.047-14.691c5.379,1.275,7.893,5.081,8.238,9.876.132,1.829-.394,3.296-1.292,4.516-.556.754-1.252,1.416-2.03,2.004-1.222.923-2.636,1.673-3.99,2.349-11.321,5.654-29.247,1.159-36.989-8.796-.271-.348-.531-.701-.776-1.062-.001-.002-.002-.003-.003-.005c0,0-.001-.001-.001-.001-2.467.349-1.516,2.255-1.662,3.661.148.168.296.336.443.504c1.089,1.232,2.179,2.47,3.266,3.706ZM212.03,206.094c-2.65-.122-4.635-1.508-4.407-4.482.186-2.401,1.792-4.04,4.208-3.879c2.572.171,4.47,1.597,4.466,4.747-.324,2.327-1.852,3.723-4.267,3.614Zm51.365,9.145c-.127-.015-.254-.03-.396-.044-.087.225-.135.441-.137.644c0-.203.048-.418.135-.645c0,0,.001,0,.002,0c.132.014.264.029.396.045Zm19.154,7.301c-2.467-.2-3.887-1.908-3.803-4.351.084-2.433,1.543-4.182,4.078-4.027c2.553.154,4.588,1.413,4.826,4.5-.556,2.71-2.369,4.101-5.101,3.878Z" fill="#070707"/><path d="M204.434,261.241c.061.049.121.101.181.149-.076-.059-.149-.098-.223-.143-.67.111-1.34.222-2.009.334-.08.084-.157.177-.233.275c6.862,13.211,15.563,24.286,31.484,26.967c3.298-2.375,6.714-1.326,10.152-.404c8.369,2.248,15.633-.924,22.416-5.154c4.836-3.012,1.707-4.402-1.689-5.277-.584.159-1.157.248-1.725.307-16.64,2.917-31.697-2.824-46.647-9.156-3.21-1.113-6.106-2.587-7.256-6.135c0,0,0,0-.001-.001s-.002-.002-.003-.003c-1.421-.598-2.844-1.191-4.266-1.789-.06.01-.12.02-.181.03Z" fill="#600f0e"/><path d="M265.31,230.75c7.742,9.956,25.668,14.45,36.989,8.796c1.354-.676,2.769-1.426,3.99-2.349.778-.588,1.475-1.25,2.03-2.004.898-1.219,1.424-2.687,1.292-4.516-.346-4.795-2.859-8.601-8.238-9.876.799,7.072-1.529,12.025-8.047,14.691-5.953,2.438-11.271,1.029-15.967-2.848-6.428-5.308-5.418-11.911-1.359-19.94-5.285,2.125-10.672,2.778-10.646,7.22.016,2.585-1.462,2.584-2.627,2.755-.705.103-1.297.268-1.371,1.109c1.058,1.962,2.115,3.924,3.175,5.894.001.001.002.003.003.005.244.362.505.716.776,1.063Z" fill="#fafafa"/><path d="M237.968,217.665c-1.095-.69-2.402-1.347-1.568-3.156c2.546-5.517-1.41-7.963-6.004-10.755.77,7.795-1.74,13.043-8.619,15.567-5.961,2.183-11.314.679-15.846-3.397-5.816-5.231-5.647-11.532-1.262-18.501-6.252.977-11.5,2.261-12.647,7.673-1.066,5.037,2.234,9.274,5.983,12.668c9.181,8.32,25.554,10.373,36.439,4.751.004-.002.008-.004.013-.006.183-.095.376-.176.556-.275.014-.007.028-.013.042-.021.023-.013.049-.022.072-.036.769-1.556,2.241-1.774,3.729-1.966.815-1.354.04-1.961-.888-2.546Z" fill="#fafafa"/><path d="M255.037,275.67c2.306.563,4.611,1.128,6.916,1.692.854.208,1.707.417,2.561.626c3.396.875,6.525,2.266,1.689,5.277-6.783,4.23-14.047,7.402-22.416,5.154-3.438-.922-6.854-1.971-10.152.404c14.916,4.348,28.465,2.764,40.018-8.715c2.434-2.422,5.502-4.85,8.777-.32c1.555,2.152,2.092.057,2.121-1.176.141-6.799-4.676-6.523-9.098-6.883-.172.379-.246.685-.247.935-.003,1.501,2.649.987,2.801,2.145.025.192-.019.432-.155.733-7.867,1.82-15.289-.4-22.799-1.537-.005.556-.009,1.11-.016,1.665Z" fill="#2c1d17"/><path d="M264.514,277.988c-.578.122-1.149.206-1.725.307.567-.059,1.141-.148,1.725-.307Z" fill="#2c1d17"/><path d="M242.267,254.541c6.044.691,13.113,2.268,17.11-6.771-10.531,1.554-19.711.041-28.401-5.137.828,7.137,4.986,11.188,11.291,11.908Z" fill="#d67c5e"/><path d="M216.142,269.137c.854-.309,1.696-.517,2.532-.658c6.39-1.082,12.29,2.264,18.452,3.117c5.902.814,11.67,2.589,17.492,3.973.14.033.28.068.42.102.007-.555.069-1.109.074-1.664-15-5.31-31.112-7.325-46.112-11.007c0,.001,0,0,0,0h-.057c1.15,4,3.989,5.023,7.199,6.137Z" fill="#463b33"/><path d="M202.036,262c0,0,.001,0,.002,0c.018-.025.037-.046.055-.07.019-.025.039-.048.058-.072.076-.099.153-.191.233-.275.669-.112,1.338-.223,2.009-.334.074.045.147.084.223.143-.061-.049-.121-.101-.181-.149.061-.01.121-.021.181-.03-.057-.044-.111-.073-.167-.111-.182-.123-.359-.223-.53-.285-1.359-1.117-2.718-2.272-4.069-3.365.008-.01.016-.016.024-.025.661-.826,1.528-.667,2.345-.559.815.109,1.579.16,2.035-.876.006-.013.013-.021.019-.035-5.144-2.758-7.964-3.375-9.492-1.396-.959,1.243-1.412,3.502-1.599,6.919c0,.009-.001.017-.002.025c3.509-6.511,5.886.495,8.856.495Z" fill="#463b33"/><path d="M270.164,188.771c.154.819.309,1.639.461,2.457c7.705.992,15.453,1.729,23.102,3.048c7.754,1.336,14.848,4.711,21.846,8.599-2.396-6.367-2.701-13.967-11.234-15.46-11.597-2.031-23.136-3.295-34.175,1.356Z" fill="#21211f"/><path d="M198.598,177.231c14.978-3.494,28.4,1.188,41.767,6.467c1.441.567,3.552,2.667,4.848.23c1.022-1.92-.571-3.714-2.285-4.668-5.907-3.287-11.723-6.819-17.895-9.527-13.113-5.759-17.023-4.511-26.435,7.498Z" fill="#1f201e"/><path d="M279.965,351.137c.191-.548.358-1.113.505-1.695" fill="none" stroke="#322f39" stroke-width="0" stroke-linecap="round" stroke-linejoin="round"/><path d="M280.221,346.258c-.21.002-.421.131-.631.131-.001.004-.002.067-.004.07-5.937,14.715-19.6,11.656-31.283,13.586.011.013.025.037.036.05c2.085,2.295,6.646.743,7.606,5.3-.007.002-.014.009-.021.011-5.276,1.817-10.519,3.624-15.759,5.434-.003.001-.005.003-.008.004.123.011.245.015.368.024c2.179.172,4.312.146,6.403-.051c7.165-.671,13.853-3.309,20.316-6.654c5.832-3.018,10.609-7,12.721-13.025.191-.548.358-1.113.505-1.695.138-.547.251-1.111.347-1.689.058-.351.111-.954.153-1.316.007-.063.02.564.026-.436-.004,0-.008,0-.012,0-.255.998-.509.253-.763.256Z" fill="#322f39"/><path d="M231.11,366.336c-12.617-.699-23.065-5.379-33.554-9.93c1.136,1.338,2.331,2.547,3.571,3.66c6.701,6.017,14.88,8.836,24.159,9.266.107.005.212.016.32.02c1.575-.862,3.148-1.727,5.504-3.016Z" fill="#312f38"/><path d="M228.168,387.299c.189,3.291,3.012,3.885,2.517,6.283-3.569,1.486-6.642-1.926-10.134-1.162c1.489,1.078,3.021,2.021,4.58,2.87c9,4.9,19.071,6.231,29.158,6.599.176.007.352.016.528.021c4.203.139,8.863.01,12.939-1.97.339-.164.674-.342,1.004-.533.939-.543,1.843-1.193,2.693-1.979-15.398,1.988-29.221-3.768-43.285-10.129Z" fill="#323039"/><path d="M232.119,374.17c-.374-.126-.751-.238-1.128-.356-10.277-3.217-21.528-3.425-31.238-10.948.222,1.977.103,2.791.42,3.359.605,1.085,1.423,2.055,2.171,3.059.042.058.086.113.128.17c11.623,1.777,21.305,9.738,33.187,10.766.426-3.218-5.697-2.017-3.54-6.05Z" fill="#323039"/><path d="M194.442,406.396c-.089,1.309.361,3.693,1.514,3.115c4.436-2.215,11.174-4.35,12.159-7.883c1.452-5.199.413-12.234-1.021-17.389-2.354-8.451-8.431-15.865-12.935-23.719-1.843,15.64,1.299,30.689.283,45.876Z" fill="#4e4f57"/><g><path d="M291,430.03v-.011c0-.015-.049-.029-.049-.044-.227-.181-.408-.364-.592-.55-.352-.298-.705-.595-1.044-.903-.098-.064-.2-.129-.315-.194-4-3.408-6.816-7.291-12.58-8.865-4.574-1.248-3.45-8.412-3.165-13.211.176-2.955-.397-4.328-2.65-4.229-.522.023-1.135.127-1.849.307-5.523,1.393-10.948,2.022-16.297,1.979-11.764-.095-23.161-3.45-34.448-9.122-1.803,13.13-14.42,12.55-22.694,17.265-.742.423-1.341.58-1.826.538-2.104-.179-2.059-4.094-2.122-6.319-.384-13.568-.167-27.137-1.82-40.68-.936-7.678-2.065-14.986-7.421-20.547-.357-.371-.732-.734-1.128-1.089-.446-.399-.915-.791-1.415-1.17-.009-.04-.018-.081-.027-.121-.003.007-.005.007-.008.014-.471-1.794-1.838-3.382-2.188-5.202c0,0,0,0,0-.001.351,1.82,1.939,3.408,2.41,5.202.003-.006.229-.01.229-.016c0-.001,0-.001,0-.002-1-1.351-.839-3.059-1.147-4.059-.014-.055-.138-.115-.152-.171-.218-.884-.492-1.746-.709-2.712-.02-.089-.067-.117-.087-.117h-.015c-.045,0-.097-.545-.142-.74-1.845-2.057-3.192-5.403-7.102-2.722c2.937,3.552,5.892,7.09,8.849,10.665-.025.042-.06.082-.073.075-.16-.02-.421-.068-.421-.108v5.61c-4,.1-4.13-2.74-5.5-5.021-3.44-5.729-8.03-8.85-15.12-8.99-9.83-.199-15.85,4.811-19.8,13.011-7.46,15.43-11.91,32.16-20.34,47.16-2.15,3.819-.21,6.06,2.41,8.369c10.82,9.551,23.44,14.301,37.78,15.41c7.18.58,10.27-2.16,11.23-8.979c1.41-9.95,3.28-19.83,5.02-29.73.34-2,1.39-4.04,3.65-3.3c1.84.58,1.07,2.771.81,4.3-2.04,11.771-4.17,23.521-6.15,35.3-.49,2.87-1.21,5.561-4.54,5.971-5.97.76-5.9,4.41-4.69,8.89c2.08,7.65,4.18,15.68,2.3,23.39-3.21,13-4.69,26.181-4.8,39.33.57.24,1.16.46,1.74.69.03.01.05.02.08.03.01,0,.01.01.02.01C191.9,505.84,223.23,512,256,512c13.96,0,27.66-1.12,41.02-3.28.11-5.72.66-10.52.141-15.7.52,5.181-.014,9.98-.123,15.7c1.314-.199,2.963-.428,3.963-.657c0,0,0-.002,0-.003v0c0-16.909-2.293-33.59-5.822-50.05-1.991-9.3-1.179-18.93-4.179-27.98Z" fill="#800000"/><path d="M356.922,343.412c-1.102-3.914-2.984-5.504-6.859-5.248-12.85.85-25.594-1.01-38.387-1.465-4.094,0-8.188.041-12.277-.018-2.375-.033-3.945.957-3.207,3.367c3.16,10.332,2.428,21.016,3.164,31.568.318,4.566,2.598,7.436,7.203,8.68c12.846,3.469,25.711,6.9,38.406,10.867c4.201,1.311,5.928-.035,7.656-3.393c7.332-14.237,8.652-28.942,4.301-44.358Z" fill="#800000"/><path d="M292.245,387.912c-.222,5.582.755,11.078.755,16.563c0,.002,0,.004,0,.006c1,3.031.988,6.06,1.322,9.096.049-.161.203-.322.252-.483c3.688-12.312,4.358-24.621-.083-36.933-.771,1.82-1.324,3.677-1.626,5.569-.322,2.018-.536,4.078-.62,6.182Zm2.741,2.244c0-.009-.001-.019-.001-.027.003.003.01.005.004.011.009.009.011.011.011.017c0,.002,0,.003,0,.004c0-.003-.015-.003-.014-.005Z" fill="#800000"/><path d="M270.109,366.641c-7.391,3.703-14.987,5.93-24.321,6.605c9.83,3.979,16.919,1.936,24.321-6.605Z" fill="#800000"/></g><path d="M212.539,228c0,0,.001,0,.001,0c.001,0,.002,0,.002,0-.021-.011-.042-.02-.064-.03.021-.003.041.03.061.03Z" fill="#fdcb99"/><path d="M229.63,228.38c.271-.123.541-.245.812-.38-.003,0-.005,0-.008,0-.429.144-.858.254-1.287.377-5.215-.032-10.43-.064-15.645-.095-.319-.096-.639-.174-.959-.282.198.099.396.188.594.28-.126-.001-.252-.14-.379-.141-.102-.001-.204-.14-.306-.14-.022,0-.044,0-.065,0c.031,0,.061.01.092.025.021-.003.04-.025.061-.025c0,0,.001,0,.001,0c.221,0,.442.256.663.311.248.062.496.195.744.251c4.967,2.086,9.946,2.16,14.938.101.006-.001.012.017.018.016.51-.1,1.021-.186,1.531-.303-.269-.001-.538.006-.805.005Zm-10.475,1.015c1.69.106,3.381.079,5.072-.053-1.691.174-3.382.2-5.072.053Z" fill="#fdcb99"/><path d="M282.824,214.162c-2.535-.154-3.994,1.595-4.078,4.027-.084,2.442,1.336,4.15,3.803,4.351c2.732.223,4.545-1.168,5.102-3.878-.239-3.087-2.274-4.346-4.827-4.5Z" fill="#e2e2e2"/><path d="M211.831,197.732c-2.416-.161-4.022,1.478-4.208,3.879-.228,2.975,1.757,4.36,4.407,4.482c2.415.109,3.942-1.287,4.267-3.614.004-3.15-1.894-4.576-4.466-4.747Z" fill="#eaeaea"/><path d="M255.037,275.67c-.14-.033-.28-.068-.42-.102-5.822-1.384-11.59-3.158-17.492-3.973-6.162-.854-12.062-4.198-18.452-3.116-.835.142-1.678.351-2.532.659c14.951,6.332,30.008,12.073,46.647,9.156.575-.101,1.146-.185,1.725-.307-.854-.209-1.707-.418-2.561-.626-2.304-.563-4.609-1.128-6.915-1.691Z" fill="#f2f1f1"/><path d="M293.25,328.875c-.25,2.179,1.23,4.798,1.681,6.848.472,2.148,1.403,4.498,1.822,6.625.921,4.675,1.684,9.4,2.247,14.281.591,5.124.374,10.646.375,16.023c0,2.6.372,4.971.754,7.441.357,2.314.72,4.595,1.492,6.873.863,2.543,1.403,5.189,2.227,7.713.387,1.184.87,2.449,1.223,3.625.374,1.249,1.122,2.676,1.18,3.945" fill="none"/><path d="M372.06,390.82c-.46.899-.939,1.37-1.439,1.37" fill="none"/><path d="M376.94,340.12c0,.55,0,1.09-.011,1.63" fill="none"/>
<script><![CDATA[
!function(t,n){"object"==typeof exports&&"undefined"!=typeof module?module.exports=n():"function"==typeof __SVGATOR_DEFINE__&&__SVGATOR_DEFINE__.amd?__SVGATOR_DEFINE__(n):((t="undefined"!=typeof globalThis?globalThis:t||self).__SVGATOR_PLAYER__=t.__SVGATOR_PLAYER__||{},t.__SVGATOR_PLAYER__["5c7f360c"]=n())}(this,(function(){"use strict";function t(t,n){var e=Object.keys(t);if(Object.getOwnPropertySymbols){var r=Object.getOwnPropertySymbols(t);n&&(r=r.filter((function(n){return Object.getOwnPropertyDescriptor(t,n).enumerable}))),e.push.apply(e,r)}return e}function n(n){for(var e=1;e<arguments.length;e++){var r=null!=arguments[e]?arguments[e]:{};e%2?t(Object(r),!0).forEach((function(t){u(n,t,r[t])})):Object.getOwnPropertyDescriptors?Object.defineProperties(n,Object.getOwnPropertyDescriptors(r)):t(Object(r)).forEach((function(t){Object.defineProperty(n,t,Object.getOwnPropertyDescriptor(r,t))}))}return n}function e(t){return(e="function"==typeof Symbol&&"symbol"==typeof Symbol.iterator?function(t){return typeof t}:function(t){return t&&"function"==typeof Symbol&&t.constructor===Symbol&&t!==Symbol.prototype?"symbol":typeof t})(t)}function r(t,n){if(!(t instanceof n))throw new TypeError("Cannot call a class as a function")}function i(t,n){for(var e=0;e<n.length;e++){var r=n[e];r.enumerable=r.enumerable||!1,r.configurable=!0,"value"in r&&(r.writable=!0),Object.defineProperty(t,r.key,r)}}function o(t,n,e){return n&&i(t.prototype,n),e&&i(t,e),t}function u(t,n,e){return n in t?Object.defineProperty(t,n,{value:e,enumerable:!0,configurable:!0,writable:!0}):t[n]=e,t}function a(t){return(a=Object.setPrototypeOf?Object.getPrototypeOf:function(t){return t.__proto__||Object.getPrototypeOf(t)})(t)}function l(t,n){return(l=Object.setPrototypeOf||function(t,n){return t.__proto__=n,t})(t,n)}function s(){if("undefined"==typeof Reflect||!Reflect.construct)return!1;if(Reflect.construct.sham)return!1;if("function"==typeof Proxy)return!0;try{return Boolean.prototype.valueOf.call(Reflect.construct(Boolean,[],(function(){}))),!0}catch(t){return!1}}function f(t,n,e){return(f=s()?Reflect.construct:function(t,n,e){var r=[null];r.push.apply(r,n);var i=new(Function.bind.apply(t,r));return e&&l(i,e.prototype),i}).apply(null,arguments)}function c(t,n){if(n&&("object"==typeof n||"function"==typeof n))return n;if(void 0!==n)throw new TypeError("Derived constructors may only return object or undefined");return function(t){if(void 0===t)throw new ReferenceError("this hasn't been initialised - super() hasn't been called");return t}(t)}function h(t,n,e){return(h="undefined"!=typeof Reflect&&Reflect.get?Reflect.get:function(t,n,e){var r=function(t,n){for(;!Object.prototype.hasOwnProperty.call(t,n)&&null!==(t=a(t)););return t}(t,n);if(r){var i=Object.getOwnPropertyDescriptor(r,n);return i.get?i.get.call(e):i.value}})(t,n,e||t)}function v(t){return function(t){if(Array.isArray(t))return y(t)}(t)||function(t){if("undefined"!=typeof Symbol&&null!=t[Symbol.iterator]||null!=t["@@iterator"])return Array.from(t)}(t)||function(t,n){if(!t)return;if("string"==typeof t)return y(t,n);var e=Object.prototype.toString.call(t).slice(8,-1);"Object"===e&&t.constructor&&(e=t.constructor.name);if("Map"===e||"Set"===e)return Array.from(t);if("Arguments"===e||/^(?:Ui|I)nt(?:8|16|32)(?:Clamped)?Array$/.test(e))return y(t,n)}(t)||function(){throw new TypeError("Invalid attempt to spread non-iterable instance.\nIn order to be iterable, non-array objects must have a [Symbol.iterator]() method.")}()}function y(t,n){(null==n||n>t.length)&&(n=t.length);for(var e=0,r=new Array(n);e<n;e++)r[e]=t[e];return r}function g(t,n,e){if(Number.isInteger(t))return t;var r=Math.pow(10,n);return Math[e]((+t+Number.EPSILON)*r)/r}Number.isInteger||(Number.isInteger=function(t){return"number"==typeof t&&isFinite(t)&&Math.floor(t)===t}),Number.EPSILON||(Number.EPSILON=2220446049250313e-31);var d=p(Math.pow(10,-6));function p(t){var n=arguments.length>1&&void 0!==arguments[1]?arguments[1]:6;return g(t,n,"round")}function m(t,n){var e=arguments.length>2&&void 0!==arguments[2]?arguments[2]:d;return Math.abs(t-n)<e}p(Math.pow(10,-2)),p(Math.pow(10,-4));var b=Math.PI/180;function w(t){return t}function A(t,n,e){var r=1-e;return 3*e*r*(t*r+n*e)+e*e*e}function _(){var t=arguments.length>0&&void 0!==arguments[0]?arguments[0]:0,n=arguments.length>1&&void 0!==arguments[1]?arguments[1]:0,e=arguments.length>2&&void 0!==arguments[2]?arguments[2]:1,r=arguments.length>3&&void 0!==arguments[3]?arguments[3]:1;return t<0||t>1||e<0||e>1?null:m(t,n)&&m(e,r)?w:function(i){if(i<=0)return t>0?i*n/t:0===n&&e>0?i*r/e:0;if(i>=1)return e<1?1+(i-1)*(r-1)/(e-1):1===e&&t<1?1+(i-1)*(n-1)/(t-1):1;for(var o,u=0,a=1;u<a;){var l=A(t,e,o=(u+a)/2);if(m(i,l))break;l<i?u=o:a=o}return A(n,r,o)}}function x(){return 1}function k(t){return 1===t?1:0}function S(){var t=arguments.length>0&&void 0!==arguments[0]?arguments[0]:1,n=arguments.length>1&&void 0!==arguments[1]?arguments[1]:0;if(1===t){if(0===n)return k;if(1===n)return x}var e=1/t;return function(t){return t>=1?1:(t+=n*e)-t%e}}var O=Math.sin,j=Math.cos,M=Math.acos,E=Math.asin,P=Math.tan,I=Math.atan2,R=Math.PI/180,F=180/Math.PI,N=Math.sqrt,T=function(){function t(){var n=arguments.length>0&&void 0!==arguments[0]?arguments[0]:1,e=arguments.length>1&&void 0!==arguments[1]?arguments[1]:0,i=arguments.length>2&&void 0!==arguments[2]?arguments[2]:0,o=arguments.length>3&&void 0!==arguments[3]?arguments[3]:1,u=arguments.length>4&&void 0!==arguments[4]?arguments[4]:0,a=arguments.length>5&&void 0!==arguments[5]?arguments[5]:0;r(this,t),this.m=[n,e,i,o,u,a],this.i=null,this.w=null,this.s=null}return o(t,[{key:"determinant",get:function(){var t=this.m;return t[0]*t[3]-t[1]*t[2]}},{key:"isIdentity",get:function(){if(null===this.i){var t=this.m;this.i=1===t[0]&&0===t[1]&&0===t[2]&&1===t[3]&&0===t[4]&&0===t[5]}return this.i}},{key:"point",value:function(t,n){var e=this.m;return{x:e[0]*t+e[2]*n+e[4],y:e[1]*t+e[3]*n+e[5]}}},{key:"translateSelf",value:function(){var t=arguments.length>0&&void 0!==arguments[0]?arguments[0]:0,n=arguments.length>1&&void 0!==arguments[1]?arguments[1]:0;if(!t&&!n)return this;var e=this.m;return e[4]+=e[0]*t+e[2]*n,e[5]+=e[1]*t+e[3]*n,this.w=this.s=this.i=null,this}},{key:"rotateSelf",value:function(){var t=arguments.length>0&&void 0!==arguments[0]?arguments[0]:0;if(t%=360){var n=O(t*=R),e=j(t),r=this.m,i=r[0],o=r[1];r[0]=i*e+r[2]*n,r[1]=o*e+r[3]*n,r[2]=r[2]*e-i*n,r[3]=r[3]*e-o*n,this.w=this.s=this.i=null}return this}},{key:"scaleSelf",value:function(){var t=arguments.length>0&&void 0!==arguments[0]?arguments[0]:1,n=arguments.length>1&&void 0!==arguments[1]?arguments[1]:1;if(1!==t||1!==n){var e=this.m;e[0]*=t,e[1]*=t,e[2]*=n,e[3]*=n,this.w=this.s=this.i=null}return this}},{key:"skewSelf",value:function(t,n){if(n%=360,(t%=360)||n){var e=this.m,r=e[0],i=e[1],o=e[2],u=e[3];t&&(t=P(t*R),e[2]+=r*t,e[3]+=i*t),n&&(n=P(n*R),e[0]+=o*n,e[1]+=u*n),this.w=this.s=this.i=null}return this}},{key:"resetSelf",value:function(){var t=arguments.length>0&&void 0!==arguments[0]?arguments[0]:1,n=arguments.length>1&&void 0!==arguments[1]?arguments[1]:0,e=arguments.length>2&&void 0!==arguments[2]?arguments[2]:0,r=arguments.length>3&&void 0!==arguments[3]?arguments[3]:1,i=arguments.length>4&&void 0!==arguments[4]?arguments[4]:0,o=arguments.length>5&&void 0!==arguments[5]?arguments[5]:0,u=this.m;return u[0]=t,u[1]=n,u[2]=e,u[3]=r,u[4]=i,u[5]=o,this.w=this.s=this.i=null,this}},{key:"recomposeSelf",value:function(){var t=arguments.length>0&&void 0!==arguments[0]?arguments[0]:null,n=arguments.length>1&&void 0!==arguments[1]?arguments[1]:null,e=arguments.length>2&&void 0!==arguments[2]?arguments[2]:null,r=arguments.length>3&&void 0!==arguments[3]?arguments[3]:null,i=arguments.length>4&&void 0!==arguments[4]?arguments[4]:null;return this.isIdentity||this.resetSelf(),t&&(t.x||t.y)&&this.translateSelf(t.x,t.y),n&&this.rotateSelf(n),e&&(e.x&&this.skewSelf(e.x,0),e.y&&this.skewSelf(0,e.y)),!r||1===r.x&&1===r.y||this.scaleSelf(r.x,r.y),i&&(i.x||i.y)&&this.translateSelf(i.x,i.y),this}},{key:"decompose",value:function(){var t=arguments.length>0&&void 0!==arguments[0]?arguments[0]:0,n=arguments.length>1&&void 0!==arguments[1]?arguments[1]:0,e=this.m,r=e[0]*e[0]+e[1]*e[1],i=[[e[0],e[1]],[e[2],e[3]]],o=N(r);if(0===o)return{origin:{x:p(e[4]),y:p(e[5])},translate:{x:p(t),y:p(n)},scale:{x:0,y:0},skew:{x:0,y:0},rotate:0};i[0][0]/=o,i[0][1]/=o;var u=e[0]*e[3]-e[1]*e[2]<0;u&&(o=-o);var a=i[0][0]*i[1][0]+i[0][1]*i[1][1];i[1][0]-=i[0][0]*a,i[1][1]-=i[0][1]*a;var l=N(i[1][0]*i[1][0]+i[1][1]*i[1][1]);if(0===l)return{origin:{x:p(e[4]),y:p(e[5])},translate:{x:p(t),y:p(n)},scale:{x:p(o),y:0},skew:{x:0,y:0},rotate:0};i[1][0]/=l,i[1][1]/=l,a/=l;var s=0;return i[1][1]<0?(s=M(i[1][1])*F,i[0][1]<0&&(s=360-s)):s=E(i[0][1])*F,u&&(s=-s),a=I(a,N(i[0][0]*i[0][0]+i[0][1]*i[0][1]))*F,u&&(a=-a),{origin:{x:p(e[4]),y:p(e[5])},translate:{x:p(t),y:p(n)},scale:{x:p(o),y:p(l)},skew:{x:p(a),y:0},rotate:p(s)}}},{key:"clone",value:function(){var t=this.m;return new this.constructor(t[0],t[1],t[2],t[3],t[4],t[5])}},{key:"toString",value:function(){var t=arguments.length>0&&void 0!==arguments[0]?arguments[0]:" ";if(null===this.s){var n=this.m.map((function(t){return p(t)}));1===n[0]&&0===n[1]&&0===n[2]&&1===n[3]?this.s="translate("+n[4]+t+n[5]+")":this.s="matrix("+n.join(t)+")"}return this.s}}],[{key:"create",value:function(t){return t?Array.isArray(t)?f(this,v(t)):t instanceof this?t.clone():(new this).recomposeSelf(t.origin,t.rotate,t.skew,t.scale,t.translate):new this}}]),t}();function q(t,n,e){return t>=.5?e:n}function B(t,n,e){return 0===t||n===e?n:t*(e-n)+n}function D(t,n,e){var r=B(t,n,e);return r<=0?0:r}function L(t,n,e){var r=B(t,n,e);return r<=0?0:r>=1?1:r}function C(t,n,e){return 0===t?n:1===t?e:{x:B(t,n.x,e.x),y:B(t,n.y,e.y)}}function V(t,n,e){var r=function(t,n,e){return Math.round(B(t,n,e))}(t,n,e);return r<=0?0:r>=255?255:r}function G(t,n,e){return 0===t?n:1===t?e:{r:V(t,n.r,e.r),g:V(t,n.g,e.g),b:V(t,n.b,e.b),a:B(t,null==n.a?1:n.a,null==e.a?1:e.a)}}function z(t,n){for(var e=[],r=0;r<t;r++)e.push(n);return e}function Y(t,n){if(--n<=0)return t;var e=(t=Object.assign([],t)).length;do{for(var r=0;r<e;r++)t.push(t[r])}while(--n>0);return t}var $,U=function(){function t(n){r(this,t),this.list=n,this.length=n.length}return o(t,[{key:"setAttribute",value:function(t,n){for(var e=this.list,r=0;r<this.length;r++)e[r].setAttribute(t,n)}},{key:"removeAttribute",value:function(t){for(var n=this.list,e=0;e<this.length;e++)n[e].removeAttribute(t)}},{key:"style",value:function(t,n){for(var e=this.list,r=0;r<this.length;r++)e[r].style[t]=n}}]),t}(),Q=/-./g,H=function(t,n){return n.toUpperCase()};function J(t){return"function"==typeof t?t:q}function Z(t){return t?"function"==typeof t?t:Array.isArray(t)?function(t){var n=arguments.length>1&&void 0!==arguments[1]?arguments[1]:w;if(!Array.isArray(t))return n;switch(t.length){case 1:return S(t[0])||n;case 2:return S(t[0],t[1])||n;case 4:return _(t[0],t[1],t[2],t[3])||n}return n}(t,null):function(t,n){var e=arguments.length>2&&void 0!==arguments[2]?arguments[2]:w;switch(t){case"linear":return w;case"steps":return S(n.steps||1,n.jump||0)||e;case"bezier":case"cubic-bezier":return _(n.x1||0,n.y1||0,n.x2||0,n.y2||0)||e}return e}(t.type,t.value,null):null}function K(t,n,e){var r=arguments.length>3&&void 0!==arguments[3]&&arguments[3],i=n.length-1;if(t<=n[0].t)return r?[0,0,n[0].v]:n[0].v;if(t>=n[i].t)return r?[i,1,n[i].v]:n[i].v;var o,u=n[0],a=null;for(o=1;o<=i;o++){if(!(t>n[o].t)){a=n[o];break}u=n[o]}return null==a?r?[i,1,n[i].v]:n[i].v:u.t===a.t?r?[o,1,a.v]:a.v:(t=(t-u.t)/(a.t-u.t),u.e&&(t=u.e(t)),r?[o,t,e(t,u.v,a.v)]:e(t,u.v,a.v))}function W(t,n){var e=arguments.length>2&&void 0!==arguments[2]?arguments[2]:null;return t&&t.length?"function"!=typeof n?null:("function"!=typeof e&&(e=null),function(r){var i=K(r,t,n);return null!=i&&e&&(i=e(i)),i}):null}function X(t,n){return t.t-n.t}function tt(t,n,r,i,o){var u,a="@"===r[0],l="#"===r[0],s=$[r],f=q;switch(a?(u=r.substr(1),r=u.replace(Q,H)):l&&(r=r.substr(1)),e(s)){case"function":if(f=s(i,o,K,Z,r,a,n,t),l)return f;break;case"string":f=W(i,J(s));break;case"object":if((f=W(i,J(s.i),s.f))&&"function"==typeof s.u)return s.u(n,f,r,a,t)}return f?function(t,n,e){if(arguments.length>3&&void 0!==arguments[3]&&arguments[3])return t instanceof U?function(r){return t.style(n,e(r))}:function(r){return t.style[n]=e(r)};if(Array.isArray(n)){var r=n.length;return function(i){var o=e(i);if(null==o)for(var u=0;u<r;u++)t[u].removeAttribute(n);else for(var a=0;a<r;a++)t[a].setAttribute(n,o)}}return function(r){var i=e(r);null==i?t.removeAttribute(n):t.setAttribute(n,i)}}(n,r,f,a):null}function nt(t,n,r,i){if(!i||"object"!==e(i))return null;var o=null,u=null;return Array.isArray(i)?u=function(t){if(!t||!t.length)return null;for(var n=0;n<t.length;n++)t[n].e&&(t[n].e=Z(t[n].e));return t.sort(X)}(i):(u=i.keys,o=i.data||null),u?tt(t,n,r,u,o):null}function et(t,n,e){if(!e)return null;var r=[];for(var i in e)if(e.hasOwnProperty(i)){var o=nt(t,n,i,e[i]);o&&r.push(o)}return r.length?r:null}function rt(t,n){if(!n.settings.duration||n.settings.duration<0)return null;var e,r,i,o,u,a=function(t,n){if(!n)return null;var e=[];if(Array.isArray(n))for(var r=n.length,i=0;i<r;i++){var o=n[i];if(2===o.length){var u=null;if("string"==typeof o[0])u=t.getElementById(o[0]);else if(Array.isArray(o[0])){u=[];for(var a=0;a<o[0].length;a++)if("string"==typeof o[0][a]){var l=t.getElementById(o[0][a]);l&&u.push(l)}u=u.length?1===u.length?u[0]:new U(u):null}if(u){var s=et(t,u,o[1]);s&&(e=e.concat(s))}}}else for(var f in n)if(n.hasOwnProperty(f)){var c=t.getElementById(f);if(c){var h=et(t,c,n[f]);h&&(e=e.concat(h))}}return e.length?e:null}(t,n.elements);return a?(e=a,r=n.settings,i=r.duration,o=e.length,u=null,function(t,n){var a=r.iterations||1/0,l=(r.alternate&&a%2==0)^r.direction>0?i:0,s=t%i,f=1+(t-s)/i;n*=r.direction,r.alternate&&f%2==0&&(n=-n);var c=!1;if(f>a)s=l,c=!0,-1===r.fill&&(s=r.direction>0?0:i);else if(n<0&&(s=i-s),s===u)return!1;u=s;for(var h=0;h<o;h++)e[h](s);return c}):null}function it(t,n){for(var e=n.querySelectorAll("svg"),r=0;r<e.length;r++)if(e[r].id===t.root&&!e[r].svgatorAnimation)return e[r].svgatorAnimation=!0,e[r];return null}function ot(t){var n=function(t){return t.shadowRoot};return document?Array.from(t.querySelectorAll(":not("+["a","area","audio","br","canvas","circle","datalist","embed","g","head","hr","iframe","img","input","link","object","path","polygon","rect","script","source","style","svg","title","track","video"].join()+")")).filter(n).map(n):[]}function ut(t){var n=arguments.length>1&&void 0!==arguments[1]?arguments[1]:document,e=arguments.length>2&&void 0!==arguments[2]?arguments[2]:0,r=it(t,n);if(r)return r;if(e>=20)return null;for(var i=ot(n),o=0;o<i.length;o++){var u=ut(t,i[o],e+1);if(u)return u}return null}function at(t,n){if($=n,!t||!t.root||!Array.isArray(t.animations))return null;var e=ut(t);if(!e)return null;var r=t.animations.map((function(t){return rt(e,t)})).filter((function(t){return!!t}));return r.length?{svg:e,animations:r,animationSettings:t.animationSettings,options:t.options||void 0}:null}function lt(t){var n=arguments.length>1&&void 0!==arguments[1]?arguments[1]:null,e=arguments.length>2&&void 0!==arguments[2]?arguments[2]:Number,r=arguments.length>3&&void 0!==arguments[3]?arguments[3]:"undefined"!=typeof BigInt&&BigInt,i="0x"+(t.replace(/[^0-9a-fA-F]+/g,"")||27);return n&&r&&e.isSafeInteger&&!e.isSafeInteger(+i)?e(r(i))%n+n:+i}function st(t,n,e){return!t||!e||n>t.length?t:t.substring(0,n)+st(t.substring(n+1),e,e)}function ft(t){var n=arguments.length>1&&void 0!==arguments[1]?arguments[1]:27;return!t||t%n?t%n:[0,1].includes(n)?n:ft(t/n,n)}function ct(t,n,e){if(t&&t.length){var r=lt(e),i=ft(r)+5,o=st(t,ft(r,5),i);return o=o.replace(/\x7c$/g,"==").replace(/\x2f$/g,"="),o=function(t,n,e){var r=+("0x"+t.substring(0,4));t=t.substring(4);for(var i=lt(n,r)%r+e%27,o=[],u=0;u<t.length;u+=2)if("|"!==t[u]){var a=+("0x"+t[u]+t[u+1])-i;o.push(a)}else{var l=+("0x"+t.substring(u+1,u+1+4))-i;u+=3,o.push(l)}return String.fromCharCode.apply(String,o)}(o=(o=atob(o)).replace(/[\x41-\x5A]/g,""),n,r),o=JSON.parse(o)}}var ht=[{key:"alternate",def:!1},{key:"fill",def:1},{key:"iterations",def:0},{key:"direction",def:1},{key:"speed",def:1},{key:"fps",def:100}],vt=function(){function t(n,e){var i=this,o=arguments.length>2&&void 0!==arguments[2]?arguments[2]:null;r(this,t),this._id=0,this._running=!1,this._rollingBack=!1,this._animations=n,this._settings=e,(!o||o<"2022-05-02")&&delete this._settings.speed,ht.forEach((function(t){i._settings[t.key]=i._settings[t.key]||t.def})),this.duration=e.duration,this.offset=e.offset||0,this.rollbackStartOffset=0}return o(t,[{key:"alternate",get:function(){return this._settings.alternate}},{key:"fill",get:function(){return this._settings.fill}},{key:"iterations",get:function(){return this._settings.iterations}},{key:"direction",get:function(){return this._settings.direction}},{key:"speed",get:function(){return this._settings.speed}},{key:"fps",get:function(){return this._settings.fps}},{key:"maxFiniteDuration",get:function(){return this.iterations>0?this.iterations*this.duration:this.duration}},{key:"_apply",value:function(t){for(var n=arguments.length>1&&void 0!==arguments[1]?arguments[1]:{},e=this._animations,r=e.length,i=0,o=0;o<r;o++)n[o]?i++:(n[o]=e[o](t,1),n[o]&&i++);return i}},{key:"_rollback",value:function(t){var n=this,e=1/0,r=null;this.rollbackStartOffset=t,this._rollingBack=!0,this._running=!0;this._id=window.requestAnimationFrame((function i(o){if(n._rollingBack){null==r&&(r=o);var u=Math.round(t-(o-r)*n.speed);if(u>n.duration&&e!==1/0){var a=!!n.alternate&&u/n.duration%2>1,l=u%n.duration;u=(l+=a?n.duration:0)||n.duration}var s=(n.fps?1e3/n.fps:0)*n.speed,f=Math.max(0,u);f<=e-s&&(n.offset=f,e=f,n._apply(f));var c=n.iterations>0&&-1===n.fill&&u>=n.maxFiniteDuration;(u<=0||n.offset<u||c)&&n.stop(),n._id=window.requestAnimationFrame(i)}}))}},{key:"_start",value:function(){var t=this,n=arguments.length>0&&void 0!==arguments[0]?arguments[0]:0,e=-1/0,r=null,i={};this._running=!0;var o=function o(u){null==r&&(r=u);var a=Math.round((u-r)*t.speed+n),l=(t.fps?1e3/t.fps:0)*t.speed;if(a>=e+l&&!t._rollingBack&&(t.offset=a,e=a,t._apply(a,i)===t._animations.length))return void t.pause(!0);t._id=window.requestAnimationFrame(o)};this._id=window.requestAnimationFrame(o)}},{key:"_pause",value:function(){this._id&&window.cancelAnimationFrame(this._id),this._running=!1}},{key:"play",value:function(){if(!this._running)return this._rollingBack?this._rollback(this.offset):this._start(this.offset)}},{key:"stop",value:function(){this._pause(),this.offset=0,this.rollbackStartOffset=0,this._rollingBack=!1,this._apply(0)}},{key:"reachedToEnd",value:function(){return this.iterations>0&&this.offset>=this.iterations*this.duration}},{key:"restart",value:function(){var t=arguments.length>0&&void 0!==arguments[0]&&arguments[0];this.stop(t),this.play(t)}},{key:"pause",value:function(){this._pause()}},{key:"reverse",value:function(){this.direction=-this.direction}}],[{key:"build",value:function(t,n){delete t.animationSettings,t.options=ct(t.options,t.root,"5c7f360c"),t.animations.map((function(n){n.settings=ct(n.s,t.root,"5c7f360c"),delete n.s,t.animationSettings||(t.animationSettings=n.settings)}));var e=t.version;if(!(t=at(t,n)))return null;var r=t.options||{},i=new this(t.animations,t.animationSettings,e);return{el:t.svg,options:r,player:i}}},{key:"push",value:function(t){return this.build(t)}},{key:"init",value:function(){var t=this,n=window.__SVGATOR_PLAYER__&&window.__SVGATOR_PLAYER__["5c7f360c"];Array.isArray(n)&&n.splice(0).forEach((function(n){return t.build(n)}))}}]),t}();function yt(t){return p(t)+""}function gt(t){var n=arguments.length>1&&void 0!==arguments[1]?arguments[1]:" ";return t&&t.length?t.map(yt).join(n):""}function dt(t){if(!t)return"transparent";if(null==t.a||t.a>=1){var n=function(t){return 1===(t=parseInt(t).toString(16)).length?"0"+t:t},e=function(t){return t.charAt(0)===t.charAt(1)},r=n(t.r),i=n(t.g),o=n(t.b);return e(r)&&e(i)&&e(o)&&(r=r.charAt(0),i=i.charAt(0),o=o.charAt(0)),"#"+r+i+o}return"rgba("+t.r+","+t.g+","+t.b+","+t.a+")"}function pt(t){return t?"url(#"+t+")":"none"}!function(){for(var t=0,n=["ms","moz","webkit","o"],e=0;e<n.length&&!window.requestAnimationFrame;++e)window.requestAnimationFrame=window[n[e]+"RequestAnimationFrame"],window.cancelAnimationFrame=window[n[e]+"CancelAnimationFrame"]||window[n[e]+"CancelRequestAnimationFrame"];window.requestAnimationFrame||(window.requestAnimationFrame=function(n){var e=Date.now(),r=Math.max(0,16-(e-t)),i=window.setTimeout((function(){n(e+r)}),r);return t=e+r,i},window.cancelAnimationFrame=window.clearTimeout)}();var mt={f:null,i:function(t,n,e){return 0===t?n:1===t?e:{x:D(t,n.x,e.x),y:D(t,n.y,e.y)}},u:function(t,n){return function(e){var r=n(e);t.setAttribute("rx",yt(r.x)),t.setAttribute("ry",yt(r.y))}}},bt={f:null,i:function(t,n,e){return 0===t?n:1===t?e:{width:D(t,n.width,e.width),height:D(t,n.height,e.height)}},u:function(t,n){return function(e){var r=n(e);t.setAttribute("width",yt(r.width)),t.setAttribute("height",yt(r.height))}}};Object.freeze({M:2,L:2,Z:0,H:1,V:1,C:6,Q:4,T:2,S:4,A:7});var wt={},At=null;function _t(t){var n=function(){if(At)return At;if("object"!==("undefined"==typeof document?"undefined":e(document))||!document.createElementNS)return{};var t=document.createElementNS("http://www.w3.org/2000/svg","svg");return t&&t.style?(t.style.position="absolute",t.style.opacity="0.01",t.style.zIndex="-9999",t.style.left="-9999px",t.style.width="1px",t.style.height="1px",At={svg:t}):{}}().svg;if(!n)return function(t){return null};var r=document.createElementNS(n.namespaceURI,"path");r.setAttributeNS(null,"d",t),r.setAttributeNS(null,"fill","none"),r.setAttributeNS(null,"stroke","none"),n.appendChild(r);var i=r.getTotalLength();return function(t){var n=r.getPointAtLength(i*t);return{x:n.x,y:n.y}}}function xt(t){return wt[t]?wt[t]:wt[t]=_t(t)}function kt(t,n,e,r){if(!t||!r)return!1;var i=["M",t.x,t.y];if(n&&e&&(i.push("C"),i.push(n.x),i.push(n.y),i.push(e.x),i.push(e.y)),n?!e:e){var o=n||e;i.push("Q"),i.push(o.x),i.push(o.y)}return n||e||i.push("L"),i.push(r.x),i.push(r.y),i.join(" ")}function St(t,n,e,r){var i=arguments.length>4&&void 0!==arguments[4]?arguments[4]:1,o=kt(t,n,e,r),u=xt(o);try{return u(i)}catch(t){return null}}function Ot(t,n,e){return t+(n-t)*e}function jt(t,n,e){var r=arguments.length>3&&void 0!==arguments[3]&&arguments[3],i={x:Ot(t.x,n.x,e),y:Ot(t.y,n.y,e)};return r&&(i.a=Mt(t,n)),i}function Mt(t,n){return Math.atan2(n.y-t.y,n.x-t.x)}function Et(t,n,e,r){var i=1-r;return i*i*t+2*i*r*n+r*r*e}function Pt(t,n,e,r){return 2*(1-r)*(n-t)+2*r*(e-n)}function It(t,n,e,r){var i=arguments.length>4&&void 0!==arguments[4]&&arguments[4],o=St(t,n,null,e,r);return o||(o={x:Et(t.x,n.x,e.x,r),y:Et(t.y,n.y,e.y,r)}),i&&(o.a=Rt(t,n,e,r)),o}function Rt(t,n,e,r){return Math.atan2(Pt(t.y,n.y,e.y,r),Pt(t.x,n.x,e.x,r))}function Ft(t,n,e,r,i){var o=i*i;return i*o*(r-t+3*(n-e))+3*o*(t+e-2*n)+3*i*(n-t)+t}function Nt(t,n,e,r,i){var o=1-i;return 3*(o*o*(n-t)+2*o*i*(e-n)+i*i*(r-e))}function Tt(t,n,e,r,i){var o=arguments.length>5&&void 0!==arguments[5]&&arguments[5],u=St(t,n,e,r,i);return u||(u={x:Ft(t.x,n.x,e.x,r.x,i),y:Ft(t.y,n.y,e.y,r.y,i)}),o&&(u.a=qt(t,n,e,r,i)),u}function qt(t,n,e,r,i){return Math.atan2(Nt(t.y,n.y,e.y,r.y,i),Nt(t.x,n.x,e.x,r.x,i))}function Bt(t,n,e){var r=arguments.length>3&&void 0!==arguments[3]&&arguments[3];if(Lt(n)){if(Ct(e))return It(n,e.start,e,t,r)}else if(Lt(e)){if(Vt(n))return It(n,n.end,e,t,r)}else{if(Vt(n))return Ct(e)?Tt(n,n.end,e.start,e,t,r):It(n,n.end,e,t,r);if(Ct(e))return It(n,e.start,e,t,r)}return jt(n,e,t,r)}function Dt(t,n,e){var r=Bt(t,n,e,!0);return r.a=function(t){return arguments.length>1&&void 0!==arguments[1]&&arguments[1]?t+Math.PI:t}(r.a)/b,r}function Lt(t){return!t.type||"corner"===t.type}function Ct(t){return null!=t.start&&!Lt(t)}function Vt(t){return null!=t.end&&!Lt(t)}var Gt=new T;var zt={f:yt,i:B},Yt={f:yt,i:L};function $t(t,n,e){return t.map((function(t){return function(t,n,e){var r=t.v;if(!r||"g"!==r.t||r.s||!r.v||!r.r)return t;var i=e.getElementById(r.r),o=i&&i.querySelectorAll("stop")||[];return r.s=r.v.map((function(t,n){var e=o[n]&&o[n].getAttribute("offset");return{c:t,o:e=p(parseInt(e)/100)}})),delete r.v,t}(t,0,e)}))}var Ut={gt:"gradientTransform",c:{x:"cx",y:"cy"},rd:"r",f:{x:"x1",y:"y1"},to:{x:"x2",y:"y2"}};function Qt(t,n,r,i,o,u,a,l){return $t(t,0,l),n=function(t,n,e){for(var r,i,o,u=t.length-1,a={},l=0;l<=u;l++)(r=t[l]).e&&(r.e=n(r.e)),r.v&&"g"===(i=r.v).t&&i.r&&(o=e.getElementById(i.r))&&(a[i.r]={e:o,s:o.querySelectorAll("stop")});return a}(t,i,l),function(i){var o=r(i,t,Ht);if(!o)return"none";if("c"===o.t)return dt(o.v);if("g"===o.t){if(!n[o.r])return pt(o.r);var u=n[o.r];return function(t,n){for(var e=t.s,r=e.length;r<n.length;r++){var i=e[e.length-1].cloneNode();i.id=Kt(i.id),t.e.appendChild(i),e=t.s=t.e.querySelectorAll("stop")}for(var o=0,u=e.length,a=n.length-1;o<u;o++)e[o].setAttribute("stop-color",dt(n[Math.min(o,a)].c)),e[o].setAttribute("offset",n[Math.min(o,a)].o)}(u,o.s),Object.keys(Ut).forEach((function(t){if(void 0!==o[t])if("object"!==e(Ut[t])){var n,r="gt"===t?(n=o[t],Array.isArray(n)?"matrix("+n.join(" ")+")":""):o[t],i=Ut[t];u.e.setAttribute(i,r)}else Object.keys(Ut[t]).forEach((function(n){if(void 0!==o[t][n]){var e=o[t][n],r=Ut[t][n];u.e.setAttribute(r,e)}}))})),pt(o.r)}return"none"}}function Ht(t,e,r){if(0===t)return e;if(1===t)return r;if(e&&r){var i=e.t;if(i===r.t)switch(e.t){case"c":return{t:i,v:G(t,e.v,r.v)};case"g":if(e.r===r.r){var o={t:i,s:Jt(t,e.s,r.s),r:e.r};return e.gt&&r.gt&&(o.gt=function(t,n,e){var r=n.length;if(r!==e.length)return q(t,n,e);for(var i=new Array(r),o=0;o<r;o++)i[o]=B(t,n[o],e[o]);return i}(t,e.gt,r.gt)),e.c?(o.c=C(t,e.c,r.c),o.rd=D(t,e.rd,r.rd)):e.f&&(o.f=C(t,e.f,r.f),o.to=C(t,e.to,r.to)),o}}if("c"===e.t&&"g"===r.t||"c"===r.t&&"g"===e.t){var u="c"===e.t?e:r,a="g"===e.t?n({},e):n({},r),l=a.s.map((function(t){return{c:u.v,o:t.o}}));return a.s="c"===e.t?Jt(t,l,a.s):Jt(t,a.s,l),a}}return q(t,e,r)}function Jt(t,n,e){if(n.length===e.length)return n.map((function(n,r){return Zt(t,n,e[r])}));for(var r=Math.max(n.length,e.length),i=[],o=0;o<r;o++){var u=Zt(t,n[Math.min(o,n.length-1)],e[Math.min(o,e.length-1)]);i.push(u)}return i}function Zt(t,n,e){return{o:L(t,n.o,e.o||0),c:G(t,n.c,e.c||{})}}function Kt(t){return t.replace(/-fill-([0-9]+)$/,(function(t,n){return"-fill-"+(+n+1)}))}var Wt={fill:Qt,"fill-opacity":Yt,stroke:Qt,"stroke-opacity":Yt,"stroke-width":zt,"stroke-dashoffset":{f:yt,i:B},"stroke-dasharray":{f:function(t){var n=arguments.length>1&&void 0!==arguments[1]?arguments[1]:" ";return t&&t.length>0&&(t=t.map((function(t){return p(t,4)}))),gt(t,n)},i:function(t,n,e){var r,i,o,u=n.length,a=e.length;if(u!==a)if(0===u)n=z(u=a,0);else if(0===a)a=u,e=z(u,0);else{var l=(o=(r=u)*(i=a)/function(t,n){for(var e;n;)e=n,n=t%n,t=e;return t||1}(r,i))<0?-o:o;n=Y(n,Math.floor(l/u)),e=Y(e,Math.floor(l/a)),u=a=l}for(var s=[],f=0;f<u;f++)s.push(p(D(t,n[f],e[f])));return s}},opacity:Yt,transform:function(t,n,r,i){if(!(t=function(t,n){if(!t||"object"!==e(t))return null;var r=!1;for(var i in t)t.hasOwnProperty(i)&&(t[i]&&t[i].length?(t[i].forEach((function(t){t.e&&(t.e=n(t.e))})),r=!0):delete t[i]);return r?t:null}(t,i)))return null;var o=function(e,i,o){var u=arguments.length>3&&void 0!==arguments[3]?arguments[3]:null;return t[e]?r(i,t[e],o):n&&n[e]?n[e]:u};return n&&n.a&&t.o?function(n){var e=r(n,t.o,Dt);return Gt.recomposeSelf(e,o("r",n,B,0)+e.a,o("k",n,C),o("s",n,C),o("t",n,C)).toString()}:function(t){return Gt.recomposeSelf(o("o",t,Bt,null),o("r",t,B,0),o("k",t,C),o("s",t,C),o("t",t,C)).toString()}},r:zt,"#size":bt,"#radius":mt,_:function(t,n){if(Array.isArray(t))for(var e=0;e<t.length;e++)this[t[e]]=n;else this[t]=n}},Xt=function(t){!function(t,n){if("function"!=typeof n&&null!==n)throw new TypeError("Super expression must either be null or a function");t.prototype=Object.create(n&&n.prototype,{constructor:{value:t,writable:!0,configurable:!0}}),n&&l(t,n)}(u,t);var n,e,i=(n=u,e=s(),function(){var t,r=a(n);if(e){var i=a(this).constructor;t=Reflect.construct(r,arguments,i)}else t=r.apply(this,arguments);return c(this,t)});function u(){return r(this,u),i.apply(this,arguments)}return o(u,null,[{key:"build",value:function(t){var n=h(a(u),"build",this).call(this,t,Wt);if(!n)return null;n.el,n.options,function(t,n,e){t.play()}(n.player)}}]),u}(vt);return Xt.init(),Xt}));
(function(s,i,o,w,d,a,b){w[o]=w[o]||{};w[o][s]=w[o][s]||[];w[o][s].push(i);})('5c7f360c',{"root":"e5Ffg9CDekP1","version":"2022-05-04","animations":[{"elements":{"e5Ffg9CDekP64":{"transform":{"data":{"t":{"x":-439.970016,"y":-301.943825}},"keys":{"o":[{"t":0,"v":{"x":439.970016,"y":301.943825,"type":"corner"}},{"t":1000,"v":{"x":413.824426,"y":287.50953,"type":"corner"}},{"t":1800,"v":{"x":439.970016,"y":301.943825,"type":"corner"}}],"r":[{"t":0,"v":0},{"t":1000,"v":-15.114264},{"t":1800,"v":0}]}}}},"s":"MSDA1Y2IwNTc5OWFhQ2KE3OTZhOTllYTRhMzUM3NmY2NjZkNjU2NUQ2OMTU3OTk5ZVNhNzlhOEThhOTllYTRhMzU3NmLY2NjYxNTc5ZWE5OWFOhNzk2YTk5ZWE0YTNhUODU3NmY2NTYxNTc5YXjllYTFhMTU3UjZmNjUY2MTU3OTZhMWE5OWFWhN2EzOTZhOTlhNTc2VZjliUTk2WWExQmE4OIWE2MTU3YThhNTlhOWSFUOTlPNTc2ZjY2NjEU1NzliV2E1YTg1NzZmDNmJGNjViMk0/"}],"options":"MNDAxMDg4RTJmQjgwODME2ZTdmODEyZjQ3MmYJ3OTdjNmU3MTJmOGE/O"},'__SVGATOR_PLAYER__',window,document)
]]></script>
</svg>
