<svg xmlns="http://www.w3.org/2000/svg" id="canvas" viewBox="337.822 347.556 1178.318 249.126"><path d="M 459.83,373.47 C 459.57 372.05, 458.76 370.50, 456.52 369.01 C 454.29 367.53, 452.73 366.55, 448.67 366.03 C 444.62 365.52, 441.81 365.19, 436.26 366.43 C 430.70 367.67, 427.43 368.82, 420.90 372.23 C 414.37 375.65, 410.86 377.74, 403.61 383.52 C 396.35 389.30, 392.12 392.80, 384.62 401.14 C 377.12 409.49, 372.82 414.62, 366.11 425.23 C 359.40 435.84, 355.79 442.30, 351.06 454.20 C 346.32 466.09, 344.27 472.80, 342.44 484.70 C 340.61 496.60, 340.19 503.00, 341.92 513.70 C 343.65 524.40, 345.64 529.77, 351.08 538.21 C 356.52 546.65, 360.86 550.27, 369.13 555.89 C 377.39 561.51, 382.55 563.59, 392.43 566.31 C 402.30 569.02, 408.08 569.49, 418.48 569.46 C 428.88 569.43, 435.15 568.16, 444.42 566.17 C 453.68 564.18, 458.20 562.09, 464.81 559.51 C 471.42 556.93, 475.18 554.99, 477.47 553.26 C 479.76 551.53, 478.98 550.08, 476.26 550.86 C 473.55 551.64, 470.36 554.58, 463.89 557.17 C 457.42 559.75, 452.98 561.77, 443.89 563.79 C 434.81 565.80, 428.65 567.15, 418.47 567.24 C 408.29 567.33, 402.62 566.85, 392.99 564.24 C 383.36 561.62, 378.35 559.58, 370.30 554.15 C 362.26 548.73, 358.07 545.27, 352.77 537.12 C 347.48 528.97, 345.51 523.82, 343.81 513.39 C 342.10 502.97, 342.47 496.69, 344.26 484.98 C 346.05 473.28, 348.07 466.62, 352.77 454.88 C 357.47 443.14, 361.06 436.73, 367.76 426.28 C 374.46 415.83, 378.76 410.76, 386.25 402.62 C 393.75 394.49, 398.00 391.08, 405.23 385.61 C 412.46 380.14, 416.04 378.21, 422.40 375.28 C 428.77 372.34, 432.02 371.57, 437.06 370.94 C 442.09 370.30, 444.32 371.32, 447.59 372.11 C 450.85 372.90, 451.32 374.08, 453.38 374.89 C 455.43 375.70, 456.57 376.44, 457.87 376.16 C 459.16 375.87, 460.10 374.90, 459.83 373.47" style="stroke: black; fill: black;"/><path d="M 528.68,356.39 C 528.04 358.08, 528.41 359.80, 528.44 364.77 C 528.48 369.73, 528.71 373.08, 528.85 381.22 C 528.99 389.35, 528.96 394.60, 529.13 405.44 C 529.30 416.27, 529.48 422.94, 529.70 435.37 C 529.93 447.80, 529.98 454.88, 530.25 467.58 C 530.51 480.29, 530.49 487.21, 531.04 498.92 C 531.60 510.63, 531.91 516.63, 533.02 526.13 C 534.12 535.64, 534.60 540.03, 536.56 546.45 C 538.53 552.86, 539.97 555.03, 542.83 558.19 C 545.69 561.35, 548.04 561.75, 550.85 562.24 C 553.65 562.73, 555.72 561.45, 556.86 560.64 C 558.00 559.83, 557.57 558.70, 556.54 558.18 C 555.51 557.65, 553.90 558.51, 551.70 558.00 C 549.50 557.49, 548.04 558.10, 545.54 555.62 C 543.03 553.14, 541.25 551.54, 539.19 545.59 C 537.12 539.64, 536.46 535.21, 535.22 525.86 C 533.97 516.50, 533.60 510.48, 532.98 498.82 C 532.37 487.16, 532.38 480.24, 532.14 467.55 C 531.89 454.85, 531.85 447.77, 531.74 435.35 C 531.64 422.92, 531.54 416.25, 531.59 405.42 C 531.64 394.60, 531.85 389.35, 531.98 381.22 C 532.12 373.08, 532.33 369.71, 532.26 364.73 C 532.19 359.75, 532.36 357.99, 531.64 356.32 C 530.92 354.66, 529.31 354.71, 528.68 356.39" style="stroke: black; fill: black;"/><path d="M 609.51,452.67 C 608.92 454.41, 609.51 456.55, 609.75 461.10 C 609.99 465.64, 610.31 468.75, 610.69 475.38 C 611.07 482.01, 611.24 486.63, 611.65 494.23 C 612.06 501.83, 612.32 505.91, 612.74 513.39 C 613.17 520.87, 613.38 525.27, 613.78 531.63 C 614.18 537.99, 614.29 540.96, 614.74 545.19 C 615.19 549.43, 615.32 551.32, 616.04 552.80 C 616.75 554.29, 617.83 554.21, 618.32 552.63 C 618.80 551.05, 618.66 549.15, 618.46 544.91 C 618.26 540.66, 617.80 537.73, 617.30 531.39 C 616.81 525.04, 616.43 520.66, 615.99 513.20 C 615.55 505.74, 615.38 501.68, 615.11 494.08 C 614.84 486.48, 614.84 481.86, 614.64 475.21 C 614.43 468.55, 614.50 465.37, 614.11 460.80 C 613.71 456.23, 613.59 453.98, 612.67 452.35 C 611.75 450.73, 610.09 450.92, 609.51 452.67" style="stroke: black; fill: black;"/><path d="M 617.68,389.72 C 618.18 390.78, 619.05 392.47, 619.47 392.79 C 619.89 393.11, 620.35 392.88, 619.81 391.33 C 619.26 389.77, 617.55 386.44, 616.73 385.02 C 615.90 383.60, 615.62 383.75, 615.66 384.24 C 615.71 384.73, 616.55 386.38, 616.95 387.47 C 617.36 388.57, 617.18 388.66, 617.68 389.72" style="stroke: black; fill: black;"/><path d="M 735.22,446.99 C 734.32 445.74, 732.90 444.56, 729.89 443.87 C 726.88 443.18, 724.80 443.32, 720.17 443.55 C 715.54 443.79, 712.40 443.59, 706.75 445.06 C 701.10 446.53, 697.78 447.72, 691.93 450.90 C 686.07 454.08, 682.95 456.13, 677.47 460.96 C 671.99 465.78, 668.97 468.73, 664.53 475.03 C 660.09 481.33, 657.74 485.25, 655.27 492.47 C 652.81 499.69, 651.99 504.04, 652.22 511.13 C 652.45 518.21, 653.26 521.83, 656.42 527.90 C 659.58 533.98, 661.89 537.02, 668.01 541.48 C 674.13 545.95, 678.50 547.89, 687.02 550.22 C 695.54 552.56, 700.63 553.04, 710.58 553.16 C 720.54 553.28, 727.08 552.40, 736.77 550.82 C 746.47 549.24, 751.88 547.43, 759.04 545.27 C 766.21 543.11, 770.07 541.55, 772.59 540.02 C 775.11 538.49, 774.50 537.04, 771.64 537.60 C 768.79 538.17, 765.37 540.71, 758.31 542.85 C 751.26 544.99, 745.90 546.73, 736.36 548.30 C 726.82 549.86, 720.34 550.79, 710.62 550.67 C 700.89 550.55, 695.91 549.98, 687.73 547.68 C 679.54 545.38, 675.43 543.41, 669.70 539.18 C 663.96 534.95, 661.96 532.17, 659.07 526.54 C 656.18 520.91, 655.44 517.65, 655.25 511.03 C 655.07 504.42, 655.79 500.30, 658.15 493.46 C 660.50 486.61, 662.75 482.82, 667.04 476.81 C 671.34 470.81, 674.30 467.95, 679.62 463.43 C 684.94 458.91, 688.02 457.00, 693.65 454.21 C 699.27 451.42, 702.44 450.49, 707.75 449.48 C 713.06 448.47, 715.97 448.99, 720.21 449.17 C 724.44 449.34, 726.08 450.18, 728.92 450.36 C 731.76 450.55, 733.14 450.77, 734.40 450.10 C 735.67 449.42, 736.13 448.23, 735.22 446.99" style="stroke: black; fill: black;"/><path d="M 791.31,361.12 C 790.96 363.14, 791.79 365.51, 792.66 370.65 C 793.54 375.79, 794.35 379.25, 795.69 386.81 C 797.03 394.36, 798.03 399.06, 799.36 408.42 C 800.69 417.78, 801.48 423.15, 802.35 433.62 C 803.21 444.09, 803.29 450.03, 803.68 460.76 C 804.07 471.49, 804.11 477.25, 804.31 487.28 C 804.52 497.31, 804.33 502.52, 804.71 510.89 C 805.08 519.26, 805.27 523.16, 806.20 529.13 C 807.13 535.09, 808.22 538.53, 809.35 540.72 C 810.49 542.90, 811.96 542.45, 811.87 540.04 C 811.78 537.64, 809.82 534.56, 808.90 528.70 C 807.98 522.85, 807.72 519.06, 807.25 510.76 C 806.79 502.47, 806.85 497.24, 806.58 487.23 C 806.30 477.21, 806.26 471.44, 805.88 460.68 C 805.49 449.93, 805.43 443.96, 804.67 433.44 C 803.91 422.91, 803.20 417.50, 802.06 408.07 C 800.91 398.63, 800.07 393.89, 798.94 386.28 C 797.81 378.66, 797.31 375.14, 796.41 370.00 C 795.51 364.86, 795.45 362.35, 794.43 360.57 C 793.40 358.80, 791.66 359.11, 791.31 361.12" style="stroke: black; fill: black;"/><path d="M 869.71,457.66 C 868.15 456.93, 865.99 457.02, 862.17 457.32 C 858.34 457.63, 856.17 457.75, 850.58 459.18 C 845.00 460.61, 840.96 461.76, 834.25 464.47 C 827.54 467.18, 823.82 469.19, 817.03 472.73 C 810.25 476.27, 806.31 478.24, 800.33 482.16 C 794.35 486.08, 790.88 488.13, 787.12 492.32 C 783.35 496.52, 781.88 498.78, 781.50 503.12 C 781.11 507.46, 781.62 510.20, 785.19 514.03 C 788.75 517.86, 792.75 519.53, 799.32 522.28 C 805.89 525.03, 809.58 526.13, 818.04 527.77 C 826.49 529.42, 832.45 529.83, 841.61 530.49 C 850.77 531.16, 856.27 530.99, 863.84 531.09 C 871.41 531.20, 876.35 531.58, 879.47 531.03 C 882.59 530.48, 882.58 528.88, 879.46 528.35 C 876.35 527.82, 871.41 528.51, 863.88 528.37 C 856.36 528.23, 850.88 528.36, 841.83 527.65 C 832.78 526.94, 826.86 526.51, 818.63 524.80 C 810.40 523.09, 806.82 521.78, 800.68 519.10 C 794.54 516.42, 791.02 514.52, 787.94 511.40 C 784.86 508.28, 784.92 506.82, 785.30 503.49 C 785.67 500.17, 786.45 498.48, 789.82 494.77 C 793.20 491.06, 796.42 488.77, 802.17 484.95 C 807.92 481.13, 811.87 479.08, 818.55 475.68 C 825.24 472.28, 828.99 470.38, 835.59 467.94 C 842.20 465.50, 846.15 464.60, 851.58 463.49 C 857.00 462.37, 859.04 462.88, 862.71 462.37 C 866.39 461.87, 868.55 461.90, 869.95 460.96 C 871.35 460.01, 871.26 458.38, 869.71 457.66" style="stroke: black; fill: black;"/><path d="M 1040.58,445.14 C 1040.16 446.68, 1040.79 448.12, 1041.43 452.07 C 1042.06 456.02, 1042.98 458.80, 1043.76 464.89 C 1044.54 470.98, 1044.87 475.31, 1045.33 482.51 C 1045.78 489.71, 1046.04 493.71, 1046.04 500.89 C 1046.05 508.08, 1045.61 512.85, 1045.37 518.44 C 1045.13 524.03, 1044.19 526.31, 1044.84 528.83 C 1045.49 531.35, 1047.24 532.03, 1048.61 531.04 C 1049.98 530.06, 1050.39 528.50, 1051.68 523.91 C 1052.97 519.32, 1053.24 515.39, 1055.06 508.08 C 1056.87 500.77, 1057.85 495.62, 1060.76 487.38 C 1063.66 479.13, 1065.46 474.63, 1069.60 466.84 C 1073.74 459.04, 1076.37 454.98, 1081.45 448.39 C 1086.52 441.80, 1089.46 438.36, 1094.98 433.91 C 1100.51 429.45, 1103.57 427.92, 1109.08 426.12 C 1114.59 424.33, 1117.48 424.22, 1122.54 424.93 C 1127.59 425.63, 1130.13 426.48, 1134.36 429.66 C 1138.59 432.84, 1140.58 435.41, 1143.70 440.83 C 1146.81 446.24, 1148.14 450.07, 1149.96 456.74 C 1151.77 463.40, 1152.37 467.28, 1152.76 474.14 C 1153.14 481.00, 1152.39 485.02, 1151.88 491.03 C 1151.36 497.03, 1150.49 499.85, 1150.18 504.15 C 1149.86 508.44, 1149.28 510.52, 1150.30 512.49 C 1151.31 514.45, 1153.00 515.10, 1155.25 513.97 C 1157.50 512.85, 1158.63 511.09, 1161.56 506.86 C 1164.48 502.62, 1165.80 499.09, 1169.88 492.80 C 1173.97 486.50, 1176.53 482.31, 1181.99 475.37 C 1187.45 468.44, 1190.94 464.46, 1197.20 458.12 C 1203.45 451.78, 1207.07 448.43, 1213.29 443.68 C 1219.50 438.94, 1222.87 436.78, 1228.27 434.39 C 1233.67 432.01, 1236.19 431.58, 1240.29 431.76 C 1244.39 431.95, 1245.89 432.66, 1248.78 435.31 C 1251.67 437.96, 1252.86 440.02, 1254.74 445.02 C 1256.61 450.02, 1257.30 453.49, 1258.15 460.32 C 1259.00 467.16, 1259.00 471.41, 1258.98 479.21 C 1258.96 487.01, 1258.43 491.69, 1258.06 499.31 C 1257.69 506.94, 1257.32 511.14, 1257.12 517.31 C 1256.91 523.48, 1256.85 526.21, 1257.05 530.16 C 1257.24 534.11, 1257.45 535.70, 1258.08 537.07 C 1258.72 538.43, 1259.68 538.39, 1260.23 537.00 C 1260.78 535.61, 1260.75 534.03, 1260.84 530.11 C 1260.92 526.19, 1260.60 523.53, 1260.68 517.40 C 1260.76 511.26, 1260.93 507.09, 1261.23 499.45 C 1261.54 491.82, 1262.10 487.13, 1262.18 479.23 C 1262.26 471.32, 1262.40 467.03, 1261.63 459.92 C 1260.87 452.81, 1260.40 449.18, 1258.35 443.67 C 1256.29 438.16, 1254.96 435.49, 1251.38 432.38 C 1247.80 429.28, 1245.32 428.32, 1240.43 428.14 C 1235.55 427.97, 1232.74 428.84, 1226.97 431.50 C 1221.19 434.17, 1217.91 436.51, 1211.57 441.45 C 1205.22 446.39, 1201.64 449.80, 1195.26 456.20 C 1188.88 462.61, 1185.37 466.60, 1179.66 473.49 C 1173.95 480.38, 1171.15 484.52, 1166.73 490.64 C 1162.31 496.76, 1160.42 500.04, 1157.58 504.09 C 1154.74 508.14, 1153.34 509.30, 1152.52 510.88 C 1151.71 512.45, 1153.04 513.21, 1153.51 511.94 C 1153.98 510.68, 1154.45 508.69, 1154.86 504.55 C 1155.28 500.42, 1155.33 497.39, 1155.59 491.26 C 1155.84 485.14, 1156.60 481.01, 1156.13 473.93 C 1155.65 466.85, 1155.08 462.82, 1153.20 455.86 C 1151.32 448.89, 1150.06 444.90, 1146.72 439.09 C 1143.37 433.28, 1141.22 430.33, 1136.48 426.81 C 1131.73 423.30, 1128.67 422.27, 1122.99 421.53 C 1117.31 420.79, 1114.04 421.10, 1108.08 423.13 C 1102.12 425.16, 1098.92 426.96, 1093.18 431.69 C 1087.43 436.42, 1084.52 439.99, 1079.34 446.77 C 1074.15 453.55, 1071.54 457.66, 1067.25 465.57 C 1062.96 473.48, 1061.09 478.03, 1057.90 486.32 C 1054.70 494.62, 1053.44 499.75, 1051.27 507.05 C 1049.10 514.34, 1047.98 518.17, 1047.05 522.79 C 1046.12 527.42, 1046.21 528.97, 1046.62 530.16 C 1047.02 531.36, 1048.51 531.09, 1049.09 528.77 C 1049.67 526.45, 1049.41 524.15, 1049.51 518.57 C 1049.61 512.99, 1049.68 508.12, 1049.58 500.87 C 1049.48 493.62, 1049.32 489.61, 1049.02 482.32 C 1048.71 475.03, 1048.61 470.66, 1048.04 464.42 C 1047.48 458.19, 1047.10 455.16, 1046.19 451.15 C 1045.29 447.14, 1044.65 445.59, 1043.52 444.39 C 1042.40 443.18, 1041.00 443.60, 1040.58 445.14" style="stroke: black; fill: black;"/><path d="M 1286.06,506.72 C 1287.42 507.17, 1288.78 507.17, 1291.80 506.14 C 1294.82 505.11, 1296.51 503.91, 1301.16 501.58 C 1305.81 499.25, 1308.99 497.76, 1315.05 494.50 C 1321.12 491.23, 1324.86 489.14, 1331.48 485.26 C 1338.10 481.37, 1341.75 479.05, 1348.16 475.06 C 1354.56 471.06, 1358.09 469.12, 1363.51 465.28 C 1368.93 461.43, 1371.68 459.41, 1375.27 455.84 C 1378.85 452.27, 1380.42 450.82, 1381.43 447.42 C 1382.44 444.03, 1382.30 441.59, 1380.31 438.86 C 1378.32 436.12, 1376.15 434.73, 1371.47 433.74 C 1366.79 432.74, 1363.51 432.89, 1356.90 433.90 C 1350.30 434.90, 1346.09 435.80, 1338.46 438.76 C 1330.82 441.72, 1326.25 443.77, 1318.73 448.70 C 1311.20 453.64, 1306.90 456.97, 1300.82 463.44 C 1294.74 469.91, 1291.74 473.88, 1288.34 481.04 C 1284.94 488.19, 1283.88 492.26, 1283.82 499.24 C 1283.77 506.22, 1284.46 509.96, 1288.08 515.93 C 1291.70 521.90, 1294.88 524.69, 1301.93 529.10 C 1308.98 533.51, 1313.64 535.20, 1323.33 537.97 C 1333.02 540.73, 1339.15 541.83, 1350.39 542.92 C 1361.64 544.01, 1369.05 543.67, 1379.55 543.40 C 1390.06 543.14, 1395.22 542.36, 1402.91 541.60 C 1410.59 540.84, 1415.03 540.49, 1417.98 539.61 C 1420.93 538.73, 1420.72 537.26, 1417.66 537.19 C 1414.59 537.13, 1410.31 538.52, 1402.68 539.30 C 1395.04 540.07, 1389.91 540.80, 1379.49 541.07 C 1369.08 541.35, 1361.71 541.75, 1350.61 540.66 C 1339.51 539.58, 1333.45 538.42, 1323.99 535.66 C 1314.54 532.89, 1310.04 531.09, 1303.34 526.85 C 1296.64 522.61, 1293.83 519.99, 1290.49 514.47 C 1287.15 508.95, 1286.58 505.71, 1286.64 499.26 C 1286.71 492.81, 1287.58 489.00, 1290.81 482.21 C 1294.03 475.41, 1296.88 471.50, 1302.76 465.27 C 1308.65 459.04, 1312.88 455.75, 1320.24 451.04 C 1327.60 446.34, 1332.14 444.40, 1339.57 441.76 C 1347.01 439.12, 1351.24 438.49, 1357.42 437.83 C 1363.59 437.17, 1366.67 437.64, 1370.46 438.46 C 1374.26 439.27, 1375.11 440.39, 1376.39 441.89 C 1377.67 443.39, 1377.67 443.72, 1376.86 445.96 C 1376.06 448.19, 1375.45 449.73, 1372.38 453.05 C 1369.30 456.36, 1366.69 458.66, 1361.51 462.52 C 1356.33 466.39, 1352.81 468.40, 1346.48 472.37 C 1340.14 476.34, 1336.46 478.64, 1329.82 482.36 C 1323.18 486.08, 1319.41 488.04, 1313.27 490.98 C 1307.13 493.93, 1303.87 495.16, 1299.12 497.08 C 1294.38 499.01, 1292.37 499.26, 1289.54 500.62 C 1286.72 501.98, 1285.70 502.66, 1285.00 503.88 C 1284.30 505.10, 1284.70 506.27, 1286.06 506.72" style="stroke: black; fill: black;"/><path d="M 1504.93,352.00 C 1504.50 353.43, 1505.05 354.80, 1505.73 358.29 C 1506.40 361.78, 1507.54 363.76, 1508.31 369.43 C 1509.08 375.10, 1509.57 379.07, 1509.56 386.65 C 1509.55 394.22, 1508.99 398.54, 1508.24 407.31 C 1507.50 416.08, 1506.83 421.27, 1505.83 430.51 C 1504.83 439.75, 1504.20 444.85, 1503.23 453.52 C 1502.26 462.20, 1500.96 469.75, 1501.00 473.88 C 1501.04 478.01, 1502.49 478.17, 1503.44 474.15 C 1504.38 470.13, 1504.72 462.47, 1505.71 453.80 C 1506.71 445.13, 1507.34 440.04, 1508.41 430.80 C 1509.49 421.55, 1510.15 416.39, 1511.07 407.58 C 1511.98 398.76, 1512.68 394.44, 1512.99 386.72 C 1513.31 379.00, 1513.08 374.90, 1512.64 368.98 C 1512.21 363.06, 1511.76 360.69, 1510.81 357.12 C 1509.85 353.54, 1509.04 352.13, 1507.87 351.10 C 1506.69 350.08, 1505.36 350.56, 1504.93 352.00" style="stroke: black; fill: black;"/><path d="M 1482.48,584.92 C 1481.34 584.41, 1480.62 584.27, 1480.01 584.59 C 1479.39 584.91, 1479.27 585.30, 1479.41 586.52 C 1479.55 587.74, 1479.67 589.25, 1480.69 590.68 C 1481.71 592.11, 1483.34 593.62, 1484.53 593.68 C 1485.72 593.74, 1486.70 592.52, 1486.65 590.96 C 1486.60 589.41, 1485.08 587.10, 1484.26 585.90 C 1483.45 584.70, 1482.68 584.63, 1482.58 584.97 C 1482.49 585.32, 1483.22 586.64, 1483.80 587.62 C 1484.37 588.60, 1484.89 589.44, 1485.47 589.86 C 1486.04 590.28, 1486.63 590.27, 1486.68 589.72 C 1486.74 589.17, 1486.58 588.06, 1485.74 587.10 C 1484.90 586.14, 1483.63 585.42, 1482.48 584.92" style="stroke: black; fill: black;"/></svg>