<svg xmlns="http://www.w3.org/2000/svg" id="canvas" viewBox="180.639 128.017 940.747 218.116"><path d="M 200.60,163.88 C 199.92 164.54, 199.39 165.21, 198.79 167.56 C 198.20 169.90, 198.09 171.01, 197.63 175.61 C 197.17 180.20, 196.90 183.51, 196.48 190.53 C 196.07 197.56, 195.99 201.92, 195.55 210.72 C 195.12 219.51, 194.80 224.74, 194.31 234.50 C 193.82 244.27, 193.58 249.82, 193.11 259.55 C 192.63 269.27, 192.28 274.63, 191.93 283.13 C 191.58 291.62, 191.43 295.79, 191.38 302.03 C 191.33 308.27, 191.23 311.05, 191.69 314.33 C 192.14 317.61, 192.92 318.52, 193.64 318.42 C 194.35 318.31, 195.05 317.26, 195.25 313.80 C 195.45 310.35, 195.00 307.52, 194.63 301.14 C 194.26 294.76, 193.91 290.47, 193.42 281.90 C 192.92 273.34, 192.55 268.03, 192.15 258.31 C 191.76 248.60, 191.48 243.09, 191.45 233.32 C 191.42 223.56, 191.45 218.52, 192.00 209.50 C 192.56 200.48, 192.96 195.95, 194.23 188.20 C 195.51 180.46, 196.30 176.76, 198.37 170.78 C 200.44 164.80, 201.82 162.19, 204.60 158.32 C 207.37 154.45, 209.03 152.98, 212.23 151.44 C 215.43 149.89, 216.99 149.95, 220.59 150.59 C 224.20 151.23, 226.31 151.89, 230.27 154.64 C 234.22 157.39, 236.56 159.34, 240.36 164.34 C 244.16 169.35, 246.24 172.67, 249.28 179.69 C 252.31 186.70, 253.66 190.95, 255.53 199.40 C 257.41 207.86, 258.28 212.53, 258.66 221.97 C 259.05 231.40, 258.89 236.74, 257.47 246.58 C 256.06 256.43, 254.92 261.67, 251.60 271.20 C 248.29 280.73, 245.80 285.56, 240.88 294.24 C 235.96 302.91, 232.67 307.48, 227.00 314.59 C 221.33 321.71, 217.93 325.11, 212.53 329.80 C 207.13 334.50, 204.19 335.94, 200.00 338.08 C 195.82 340.22, 193.95 340.78, 191.61 340.51 C 189.27 340.24, 189.06 338.87, 188.30 336.73 C 187.53 334.59, 187.97 332.52, 187.79 329.80 C 187.61 327.08, 187.93 324.50, 187.41 323.13 C 186.89 321.76, 185.96 321.58, 185.20 322.94 C 184.45 324.30, 183.61 326.91, 183.64 329.95 C 183.68 332.99, 183.83 335.52, 185.36 338.14 C 186.90 340.77, 188.20 342.72, 191.32 343.07 C 194.44 343.42, 196.50 342.30, 200.95 339.89 C 205.41 337.48, 208.19 335.91, 213.62 331.03 C 219.04 326.14, 222.42 322.70, 228.10 315.46 C 233.77 308.23, 237.06 303.64, 242.00 294.87 C 246.95 286.10, 249.45 281.24, 252.81 271.62 C 256.16 262.00, 257.32 256.71, 258.77 246.77 C 260.23 236.83, 260.41 231.45, 260.07 221.91 C 259.72 212.37, 258.88 207.66, 257.05 199.07 C 255.23 190.49, 253.93 186.18, 250.94 178.98 C 247.94 171.78, 245.93 168.34, 242.08 163.07 C 238.23 157.79, 235.90 155.63, 231.70 152.62 C 227.49 149.60, 225.15 148.68, 221.04 148.00 C 216.93 147.32, 214.78 147.39, 211.14 149.21 C 207.50 151.03, 205.74 152.90, 202.85 157.10 C 199.96 161.30, 198.71 164.04, 196.69 170.21 C 194.66 176.39, 193.94 180.12, 192.72 187.96 C 191.51 195.80, 191.13 200.34, 190.60 209.42 C 190.07 218.49, 190.06 223.54, 190.07 233.33 C 190.08 243.12, 190.35 248.64, 190.65 258.37 C 190.95 268.10, 191.27 273.41, 191.57 281.99 C 191.88 290.56, 192.05 294.87, 192.19 301.24 C 192.33 307.61, 192.00 310.43, 192.27 313.83 C 192.55 317.23, 193.17 318.18, 193.55 318.24 C 193.92 318.30, 194.22 317.38, 194.16 314.14 C 194.10 310.89, 193.39 308.20, 193.25 302.01 C 193.11 295.82, 193.19 291.66, 193.44 283.18 C 193.70 274.70, 194.05 269.33, 194.51 259.61 C 194.98 249.90, 195.22 244.34, 195.77 234.58 C 196.32 224.82, 196.67 219.59, 197.26 210.82 C 197.84 202.04, 198.01 197.67, 198.69 190.71 C 199.38 183.75, 199.98 180.50, 200.69 176.00 C 201.39 171.50, 201.91 170.56, 202.22 168.22 C 202.52 165.87, 202.55 165.13, 202.22 164.26 C 201.90 163.39, 201.29 163.22, 200.60 163.88" style="stroke: black; fill: black;"/><path d="M 313.48,243.10 C 313.94 242.48, 314.17 241.54, 313.74 240.60 C 313.30 239.67, 312.64 238.96, 311.31 238.40 C 309.98 237.85, 309.01 237.17, 307.10 237.83 C 305.20 238.49, 304.14 239.10, 301.77 241.69 C 299.41 244.27, 298.09 246.15, 295.27 250.78 C 292.46 255.40, 290.57 258.45, 287.70 264.81 C 284.83 271.17, 283.23 275.35, 280.91 282.56 C 278.59 289.76, 277.31 294.15, 276.11 300.84 C 274.90 307.52, 274.68 311.00, 274.88 316.00 C 275.08 321.00, 275.39 323.37, 277.12 325.83 C 278.86 328.28, 280.65 328.94, 283.55 328.29 C 286.46 327.64, 288.28 326.06, 291.65 322.57 C 295.02 319.08, 296.79 316.53, 300.41 310.85 C 304.02 305.17, 306.15 301.34, 309.72 294.16 C 313.29 286.99, 315.24 282.29, 318.25 274.98 C 321.27 267.67, 322.65 263.53, 324.78 257.60 C 326.90 251.67, 328.12 248.84, 328.88 245.32 C 329.65 241.81, 329.27 240.31, 328.60 240.01 C 327.94 239.72, 326.68 240.76, 325.55 243.86 C 324.41 246.97, 323.88 249.94, 322.94 255.54 C 321.99 261.14, 321.40 265.00, 320.83 271.88 C 320.26 278.76, 319.99 283.17, 320.07 289.93 C 320.15 296.68, 320.24 300.21, 321.22 305.67 C 322.20 311.12, 322.78 313.82, 324.98 317.19 C 327.18 320.57, 328.85 322.03, 332.23 322.54 C 335.61 323.04, 337.79 322.15, 341.89 319.72 C 345.99 317.28, 348.24 315.13, 352.73 310.35 C 357.23 305.57, 359.70 302.14, 364.35 295.82 C 369.00 289.50, 371.62 285.46, 376.00 278.77 C 380.38 272.07, 382.58 268.26, 386.24 262.34 C 389.90 256.42, 391.59 253.33, 394.29 249.17 C 397.00 245.02, 398.29 243.56, 399.77 241.58 C 401.25 239.61, 401.38 239.08, 401.70 239.31 C 402.02 239.55, 401.44 240.30, 401.36 242.75 C 401.28 245.21, 401.34 247.30, 401.30 251.58 C 401.27 255.86, 401.33 258.77, 401.18 264.16 C 401.03 269.55, 400.86 272.95, 400.57 278.53 C 400.27 284.11, 400.03 287.28, 399.72 292.07 C 399.40 296.87, 399.05 299.10, 398.98 302.49 C 398.92 305.88, 398.79 307.39, 399.37 309.01 C 399.96 310.64, 400.70 311.11, 401.89 310.60 C 403.08 310.10, 404.23 309.10, 405.32 306.47 C 406.41 303.84, 406.34 301.79, 407.32 297.46 C 408.31 293.12, 408.87 290.27, 410.25 284.81 C 411.63 279.35, 412.60 275.86, 414.22 270.16 C 415.85 264.47, 416.67 261.46, 418.38 256.32 C 420.09 251.19, 421.08 248.71, 422.78 244.49 C 424.48 240.27, 425.08 238.51, 426.89 235.21 C 428.70 231.91, 429.67 230.51, 431.83 227.99 C 434.00 225.47, 435.21 224.50, 437.73 222.61 C 440.25 220.73, 441.54 219.90, 444.43 218.57 C 447.31 217.24, 448.97 216.87, 452.15 215.96 C 455.33 215.04, 457.04 214.91, 460.32 214.01 C 463.60 213.11, 465.35 212.61, 468.56 211.46 C 471.77 210.31, 473.40 209.95, 476.38 208.26 C 479.35 206.58, 481.01 205.69, 483.45 203.04 C 485.90 200.40, 486.98 198.70, 488.60 195.03 C 490.23 191.35, 490.79 189.19, 491.56 184.66 C 492.33 180.13, 492.35 177.45, 492.45 172.37 C 492.56 167.29, 492.37 164.33, 492.07 159.26 C 491.77 154.19, 491.64 151.41, 490.95 147.02 C 490.26 142.63, 489.93 140.34, 488.60 137.32 C 487.27 134.30, 486.29 132.96, 484.31 131.90 C 482.33 130.83, 480.85 130.58, 478.71 132.01 C 476.57 133.44, 475.51 134.99, 473.61 139.05 C 471.72 143.11, 470.95 145.91, 469.25 152.33 C 467.54 158.75, 466.68 162.70, 465.08 171.15 C 463.49 179.61, 462.79 184.77, 461.27 194.60 C 459.75 204.43, 458.98 210.15, 457.48 220.30 C 455.99 230.46, 455.18 236.03, 453.79 245.37 C 452.40 254.72, 451.61 259.30, 450.54 267.01 C 449.46 274.72, 449.02 278.51, 448.40 283.92 C 447.78 289.34, 447.20 291.52, 447.43 294.10 C 447.66 296.68, 448.52 297.35, 449.55 296.82 C 450.59 296.30, 451.37 295.07, 452.60 291.46 C 453.83 287.85, 454.05 284.70, 455.70 278.79 C 457.35 272.87, 458.35 268.82, 460.83 261.88 C 463.30 254.94, 464.84 250.64, 468.08 244.09 C 471.31 237.54, 473.43 234.12, 477.00 229.12 C 480.58 224.12, 482.67 222.03, 485.96 219.07 C 489.25 216.11, 490.90 215.39, 493.46 214.32 C 496.02 213.25, 497.05 213.30, 498.77 213.71 C 500.48 214.13, 501.10 214.75, 502.04 216.38 C 502.98 218.01, 503.26 219.18, 503.48 221.87 C 503.70 224.55, 503.83 226.29, 503.14 229.81 C 502.45 233.33, 501.87 235.51, 500.02 239.46 C 498.18 243.41, 496.82 245.66, 493.94 249.56 C 491.05 253.45, 489.08 255.50, 485.61 258.93 C 482.14 262.35, 479.97 264.07, 476.59 266.67 C 473.21 269.27, 471.19 270.13, 468.70 271.92 C 466.22 273.72, 465.25 274.28, 464.17 275.66 C 463.10 277.03, 462.93 277.51, 463.33 278.81 C 463.73 280.12, 464.22 280.92, 466.15 282.17 C 468.07 283.42, 469.69 283.84, 472.95 285.05 C 476.21 286.26, 478.47 286.72, 482.46 288.21 C 486.45 289.69, 488.69 290.67, 492.89 292.50 C 497.08 294.32, 499.38 295.50, 503.42 297.33 C 507.46 299.15, 509.52 300.04, 513.08 301.63 C 516.64 303.22, 518.43 304.08, 521.22 305.27 C 524.01 306.47, 525.21 307.04, 527.01 307.62 C 528.81 308.19, 529.31 308.11, 530.21 308.14 C 531.11 308.16, 531.28 307.93, 531.51 307.72 C 531.75 307.51, 531.44 307.12, 531.39 307.09 C 531.34 307.06, 531.16 307.57, 531.24 307.58 C 531.32 307.59, 531.82 307.49, 531.78 307.15 C 531.74 306.81, 531.72 306.43, 531.03 305.88 C 530.35 305.32, 530.00 305.21, 528.33 304.37 C 526.67 303.53, 525.52 302.83, 522.72 301.69 C 519.92 300.54, 517.95 300.07, 514.33 298.65 C 510.72 297.23, 508.68 296.39, 504.65 294.59 C 500.61 292.80, 498.32 291.62, 494.16 289.68 C 489.99 287.73, 487.74 286.67, 483.83 284.89 C 479.93 283.10, 477.80 282.07, 474.62 280.77 C 471.44 279.46, 469.88 278.90, 467.92 278.35 C 465.95 277.79, 465.19 278.16, 464.78 278.01 C 464.37 277.86, 464.65 278.22, 465.86 277.61 C 467.08 277.00, 468.32 276.70, 470.85 274.98 C 473.37 273.26, 475.14 271.84, 478.48 269.02 C 481.82 266.20, 484.02 264.44, 487.56 260.88 C 491.10 257.32, 493.13 255.25, 496.18 251.24 C 499.23 247.23, 500.72 244.95, 502.82 240.82 C 504.92 236.69, 505.72 234.47, 506.69 230.60 C 507.66 226.73, 508.01 224.71, 507.66 221.46 C 507.31 218.22, 506.60 216.50, 504.95 214.38 C 503.31 212.25, 501.96 211.39, 499.43 210.83 C 496.90 210.26, 495.30 210.25, 492.28 211.55 C 489.26 212.85, 487.73 214.05, 484.34 217.33 C 480.95 220.61, 478.95 222.78, 475.35 227.96 C 471.75 233.13, 469.65 236.59, 466.35 243.23 C 463.04 249.87, 461.47 254.18, 458.82 261.14 C 456.18 268.10, 454.98 272.14, 453.12 278.02 C 451.27 283.91, 450.39 286.93, 449.53 290.58 C 448.68 294.23, 448.77 295.55, 448.84 296.27 C 448.91 296.98, 449.56 296.57, 449.88 294.14 C 450.20 291.71, 449.99 289.51, 450.43 284.12 C 450.87 278.74, 451.14 274.92, 452.09 267.21 C 453.03 259.51, 453.81 254.92, 455.15 245.57 C 456.50 236.23, 457.31 230.65, 458.82 220.50 C 460.33 210.35, 461.11 204.63, 462.71 194.83 C 464.30 185.03, 465.04 179.86, 466.78 171.49 C 468.53 163.12, 469.52 159.18, 471.45 152.96 C 473.37 146.74, 474.58 144.10, 476.39 140.38 C 478.21 136.65, 479.23 135.63, 480.54 134.35 C 481.86 133.07, 482.00 133.11, 482.96 133.97 C 483.92 134.82, 484.34 135.93, 485.35 138.64 C 486.37 141.36, 487.23 143.37, 488.03 147.53 C 488.82 151.69, 489.00 154.48, 489.33 159.43 C 489.67 164.39, 489.82 167.36, 489.68 172.30 C 489.54 177.24, 489.44 179.86, 488.63 184.13 C 487.82 188.40, 487.17 190.37, 485.61 193.67 C 484.06 196.96, 483.08 198.33, 480.87 200.60 C 478.66 202.87, 477.29 203.55, 474.58 205.01 C 471.87 206.47, 470.36 206.84, 467.30 207.91 C 464.25 208.99, 462.57 209.49, 459.32 210.38 C 456.08 211.27, 454.40 211.39, 451.10 212.36 C 447.81 213.33, 445.96 213.73, 442.85 215.22 C 439.75 216.71, 438.27 217.67, 435.57 219.81 C 432.87 221.95, 431.59 223.12, 429.34 225.93 C 427.10 228.75, 426.15 230.35, 424.36 233.88 C 422.58 237.40, 422.06 239.23, 420.41 243.56 C 418.76 247.90, 417.81 250.39, 416.11 255.57 C 414.40 260.75, 413.59 263.78, 411.88 269.48 C 410.18 275.18, 409.18 278.66, 407.57 284.07 C 405.96 289.48, 405.14 292.32, 403.83 296.52 C 402.53 300.73, 401.67 302.47, 401.06 305.10 C 400.46 307.73, 400.67 308.94, 400.80 309.68 C 400.93 310.42, 401.39 310.22, 401.71 308.81 C 402.02 307.39, 402.23 305.92, 402.38 302.60 C 402.53 299.28, 402.29 297.00, 402.45 292.21 C 402.61 287.42, 402.85 284.26, 403.18 278.67 C 403.51 273.09, 403.76 269.69, 404.10 264.30 C 404.44 258.90, 404.69 256.05, 404.88 251.68 C 405.07 247.30, 405.60 245.14, 405.07 242.43 C 404.54 239.71, 403.70 238.65, 402.21 238.11 C 400.73 237.57, 399.62 237.76, 397.65 239.73 C 395.68 241.70, 394.96 243.64, 392.35 247.96 C 389.75 252.29, 388.21 255.40, 384.63 261.36 C 381.06 267.33, 378.87 271.13, 374.50 277.79 C 370.14 284.45, 367.48 288.47, 362.81 294.67 C 358.13 300.87, 355.56 304.24, 351.12 308.81 C 346.67 313.38, 344.28 315.30, 340.58 317.51 C 336.87 319.73, 335.29 320.21, 332.60 319.87 C 329.90 319.53, 328.94 318.76, 327.10 315.83 C 325.27 312.91, 324.42 310.44, 323.44 305.26 C 322.46 300.07, 322.26 296.54, 322.21 289.91 C 322.16 283.27, 322.49 278.87, 323.19 272.10 C 323.90 265.33, 324.65 261.53, 325.72 256.04 C 326.79 250.56, 328.01 247.85, 328.55 244.67 C 329.10 241.49, 328.87 240.15, 328.45 240.14 C 328.03 240.14, 327.55 241.29, 326.43 244.65 C 325.31 248.01, 324.81 251.00, 322.83 256.93 C 320.86 262.85, 319.52 267.01, 316.56 274.29 C 313.59 281.56, 311.62 286.24, 308.01 293.30 C 304.40 300.37, 302.16 304.13, 298.49 309.60 C 294.83 315.08, 292.82 317.45, 289.68 320.66 C 286.55 323.87, 284.90 324.91, 282.81 325.66 C 280.73 326.42, 280.39 326.39, 279.27 324.44 C 278.14 322.49, 277.44 320.55, 277.21 315.90 C 276.98 311.25, 276.98 307.73, 278.09 301.18 C 279.21 294.64, 280.47 290.26, 282.80 283.17 C 285.12 276.09, 286.75 271.92, 289.73 265.76 C 292.71 259.60, 294.68 256.61, 297.70 252.38 C 300.73 248.14, 302.66 246.80, 304.84 244.58 C 307.02 242.36, 307.64 241.87, 308.60 241.28 C 309.57 240.69, 309.35 241.33, 309.66 241.62 C 309.97 241.90, 309.80 242.29, 310.17 242.70 C 310.53 243.12, 310.81 243.62, 311.47 243.70 C 312.14 243.78, 313.03 243.72, 313.48 243.10" style="stroke: black; fill: black;"/><path d="M 655.69,211.41 C 655.22 211.89, 655.08 211.99, 654.79 213.69 C 654.50 215.38, 654.29 216.47, 654.25 219.88 C 654.21 223.29, 654.59 225.58, 654.61 230.74 C 654.62 235.91, 654.55 239.38, 654.33 245.72 C 654.10 252.06, 653.84 255.97, 653.48 262.44 C 653.12 268.91, 652.66 272.56, 652.52 278.09 C 652.38 283.61, 652.13 286.50, 652.77 290.06 C 653.41 293.62, 654.04 295.03, 655.70 295.87 C 657.35 296.70, 658.81 296.48, 661.04 294.23 C 663.28 291.99, 664.22 289.59, 666.89 284.63 C 669.56 279.66, 671.03 276.07, 674.38 269.42 C 677.73 262.77, 679.84 258.33, 683.65 251.37 C 687.46 244.41, 689.78 240.20, 693.41 234.63 C 697.04 229.05, 699.20 226.49, 701.80 223.50 C 704.40 220.51, 705.45 219.67, 706.42 219.66 C 707.40 219.64, 706.85 220.41, 706.66 223.42 C 706.47 226.43, 706.08 229.29, 705.48 234.70 C 704.87 240.12, 704.32 243.99, 703.63 250.50 C 702.95 257.00, 702.50 261.04, 702.04 267.21 C 701.59 273.38, 701.26 276.64, 701.36 281.34 C 701.45 286.04, 701.26 288.12, 702.53 290.71 C 703.80 293.29, 705.24 294.13, 707.71 294.25 C 710.17 294.38, 711.72 293.68, 714.86 291.35 C 717.99 289.01, 719.65 286.97, 723.38 282.60 C 727.11 278.23, 729.38 275.13, 733.51 269.51 C 737.64 263.88, 740.07 260.13, 744.02 254.48 C 747.97 248.83, 750.03 245.41, 753.24 241.24 C 756.46 237.08, 758.25 235.42, 760.09 233.66 C 761.94 231.90, 761.99 231.43, 762.47 232.44 C 762.94 233.46, 762.64 235.02, 762.47 238.73 C 762.30 242.44, 762.14 245.53, 761.60 251.00 C 761.06 256.47, 760.51 260.05, 759.77 266.07 C 759.03 272.10, 758.34 275.73, 757.90 281.12 C 757.45 286.50, 756.97 289.20, 757.55 293.00 C 758.13 296.80, 758.75 298.32, 760.79 300.10 C 762.83 301.89, 764.44 302.50, 767.74 301.93 C 771.04 301.37, 773.02 300.08, 777.29 297.28 C 781.55 294.48, 783.99 292.34, 789.08 287.93 C 794.16 283.51, 797.21 280.50, 802.71 275.20 C 808.21 269.89, 811.44 266.55, 816.57 261.40 C 821.69 256.24, 824.27 253.43, 828.33 249.43 C 832.39 245.43, 834.38 243.79, 836.89 241.40 C 839.39 239.01, 840.16 238.29, 840.86 237.47 C 841.56 236.66, 841.16 236.44, 840.38 237.33 C 839.61 238.22, 838.35 239.14, 837.01 241.91 C 835.66 244.68, 835.01 247.07, 833.67 251.19 C 832.33 255.31, 831.51 257.94, 830.31 262.52 C 829.11 267.10, 828.32 269.82, 827.67 274.08 C 827.03 278.33, 826.55 280.57, 827.09 283.79 C 827.63 287.01, 828.50 288.45, 830.38 290.17 C 832.26 291.89, 833.82 292.53, 836.50 292.40 C 839.19 292.27, 840.97 291.65, 843.81 289.53 C 846.65 287.42, 848.27 285.58, 850.72 281.84 C 853.17 278.11, 854.37 275.56, 856.08 270.84 C 857.79 266.12, 858.56 263.28, 859.27 258.26 C 859.97 253.23, 860.25 250.30, 859.60 245.72 C 858.96 241.13, 858.10 238.88, 856.05 235.34 C 854.01 231.80, 852.54 230.18, 849.38 228.02 C 846.21 225.86, 843.90 225.20, 840.23 224.55 C 836.56 223.91, 834.30 224.01, 831.01 224.78 C 827.72 225.55, 825.84 226.49, 823.78 228.41 C 821.73 230.33, 821.11 231.79, 820.74 234.39 C 820.37 237.00, 820.35 239.04, 821.93 241.42 C 823.52 243.81, 826.96 245.77, 828.67 246.34 C 830.38 246.91, 831.09 245.75, 830.48 244.27 C 829.87 242.80, 826.90 240.86, 825.62 238.96 C 824.34 237.07, 823.97 236.34, 824.10 234.79 C 824.22 233.25, 824.67 232.46, 826.24 231.24 C 827.80 230.01, 829.23 229.30, 831.92 228.67 C 834.61 228.03, 836.55 227.65, 839.69 228.05 C 842.83 228.45, 844.86 228.92, 847.62 230.68 C 850.39 232.43, 851.68 233.74, 853.52 236.83 C 855.36 239.91, 856.24 241.90, 856.84 246.11 C 857.44 250.32, 857.24 253.12, 856.53 257.86 C 855.83 262.60, 855.04 265.39, 853.32 269.80 C 851.60 274.21, 850.30 276.61, 847.92 279.93 C 845.54 283.24, 843.78 284.57, 841.43 286.38 C 839.08 288.20, 837.96 288.69, 836.16 289.02 C 834.36 289.34, 833.55 289.17, 832.44 288.02 C 831.34 286.88, 830.95 285.98, 830.63 283.28 C 830.32 280.59, 830.32 278.52, 830.88 274.55 C 831.45 270.57, 832.16 267.80, 833.46 263.39 C 834.76 258.99, 835.81 256.46, 837.37 252.52 C 838.93 248.57, 840.26 246.60, 841.26 243.65 C 842.26 240.70, 842.59 239.30, 842.36 237.77 C 842.13 236.24, 841.58 235.68, 840.10 235.99 C 838.62 236.30, 837.62 236.92, 834.95 239.31 C 832.29 241.69, 830.74 243.76, 826.79 247.91 C 822.84 252.05, 820.29 254.87, 815.20 260.04 C 810.11 265.22, 806.87 268.55, 801.35 273.77 C 795.83 279.00, 792.71 281.96, 787.60 286.19 C 782.49 290.42, 779.89 292.40, 775.79 294.92 C 771.69 297.45, 769.75 298.16, 767.10 298.81 C 764.44 299.47, 763.85 299.43, 762.51 298.19 C 761.17 296.95, 760.81 295.98, 760.40 292.61 C 759.99 289.23, 760.07 286.56, 760.45 281.32 C 760.84 276.08, 761.50 272.40, 762.31 266.40 C 763.13 260.40, 763.84 256.85, 764.51 251.32 C 765.18 245.79, 765.80 242.74, 765.67 238.75 C 765.54 234.75, 765.31 232.81, 763.85 231.36 C 762.39 229.91, 760.87 229.80, 758.36 231.48 C 755.86 233.17, 754.55 235.44, 751.33 239.80 C 748.11 244.15, 746.19 247.59, 742.26 253.26 C 738.34 258.93, 735.88 262.65, 731.70 268.16 C 727.52 273.67, 725.12 276.69, 721.36 280.82 C 717.60 284.95, 715.63 286.61, 712.89 288.81 C 710.16 291.01, 709.25 291.67, 707.69 291.83 C 706.13 291.99, 705.84 291.72, 705.10 289.61 C 704.35 287.49, 704.10 285.72, 703.96 281.27 C 703.81 276.83, 703.95 273.48, 704.38 267.38 C 704.81 261.28, 705.33 257.25, 706.11 250.78 C 706.89 244.31, 707.58 240.52, 708.28 235.04 C 708.98 229.55, 709.96 226.71, 709.62 223.35 C 709.27 219.99, 708.48 218.52, 706.56 218.22 C 704.64 217.93, 703.00 218.81, 700.03 221.87 C 697.06 224.93, 695.32 227.82, 691.71 233.53 C 688.09 239.25, 685.82 243.47, 681.97 250.45 C 678.11 257.42, 675.92 261.84, 672.44 268.42 C 668.95 274.99, 667.29 278.56, 664.53 283.31 C 661.77 288.06, 660.25 289.92, 658.64 292.17 C 657.02 294.42, 657.07 295.06, 656.48 294.56 C 655.88 294.06, 655.95 292.95, 655.65 289.66 C 655.34 286.38, 654.93 283.54, 654.94 278.12 C 654.96 272.70, 655.36 269.02, 655.72 262.57 C 656.08 256.11, 656.37 252.18, 656.76 245.83 C 657.15 239.49, 657.32 236.01, 657.67 230.84 C 658.03 225.67, 658.39 223.42, 658.52 219.99 C 658.65 216.56, 658.60 215.43, 658.32 213.69 C 658.04 211.96, 657.65 211.78, 657.12 211.32 C 656.59 210.86, 656.15 210.94, 655.69 211.41" style="stroke: black; fill: black;"/><path d="M 919.63,252.28 C 920.39 252.12, 921.05 251.65, 921.77 250.55 C 922.48 249.45, 923.11 248.60, 923.22 246.80 C 923.33 245.00, 923.20 243.40, 922.31 241.54 C 921.43 239.67, 920.83 238.73, 918.81 237.47 C 916.79 236.20, 915.40 235.25, 912.22 235.20 C 909.04 235.16, 907.00 235.52, 902.89 237.23 C 898.79 238.94, 896.38 240.24, 891.69 243.77 C 887.00 247.30, 883.98 249.78, 879.43 254.89 C 874.88 260.00, 872.30 263.51, 868.94 269.33 C 865.58 275.15, 864.05 278.71, 862.65 283.98 C 861.26 289.26, 860.91 292.01, 861.98 295.71 C 863.04 299.41, 864.58 301.18, 867.98 302.48 C 871.38 303.79, 874.03 303.61, 879.00 302.23 C 883.97 300.86, 887.14 299.28, 892.82 295.60 C 898.51 291.92, 901.82 289.34, 907.41 283.84 C 913.00 278.34, 915.87 274.88, 920.77 268.10 C 925.67 261.31, 927.86 257.32, 931.91 249.90 C 935.96 242.48, 937.90 238.44, 941.01 230.98 C 944.12 223.53, 945.41 219.45, 947.44 212.62 C 949.47 205.79, 950.28 202.23, 951.15 196.83 C 952.01 191.43, 952.44 188.65, 951.77 185.64 C 951.10 182.62, 949.63 181.48, 947.79 181.76 C 945.94 182.03, 944.64 183.29, 942.54 187.02 C 940.43 190.74, 939.29 193.80, 937.26 200.39 C 935.22 206.98, 934.00 211.55, 932.37 219.97 C 930.74 228.39, 930.07 233.58, 929.13 242.48 C 928.19 251.37, 927.74 256.25, 927.67 264.44 C 927.61 272.63, 927.72 276.81, 928.80 283.45 C 929.87 290.08, 930.75 293.12, 933.04 297.63 C 935.33 302.14, 936.78 303.98, 940.25 306.01 C 943.73 308.04, 946.09 308.41, 950.41 307.79 C 954.73 307.16, 957.15 305.92, 961.87 302.87 C 966.59 299.83, 969.12 297.48, 973.99 292.57 C 978.86 287.67, 981.72 284.43, 986.21 278.35 C 990.71 272.28, 992.96 268.45, 996.46 262.20 C 999.96 255.96, 1001.54 252.49, 1003.72 247.13 C 1005.90 241.77, 1006.84 239.24, 1007.36 235.40 C 1007.87 231.55, 1007.55 229.82, 1006.31 227.90 C 1005.07 225.98, 1003.67 225.36, 1001.16 225.82 C 998.66 226.27, 996.85 227.33, 993.80 230.19 C 990.75 233.06, 989.02 235.41, 985.91 240.14 C 982.81 244.88, 980.88 248.02, 978.26 253.87 C 975.64 259.73, 974.22 263.30, 972.82 269.44 C 971.42 275.58, 970.88 278.96, 971.27 284.57 C 971.65 290.19, 972.29 293.19, 974.72 297.53 C 977.16 301.88, 979.01 303.85, 983.43 306.30 C 987.85 308.75, 990.99 309.45, 996.82 309.78 C 1002.65 310.11, 1006.05 309.76, 1012.59 307.94 C 1019.14 306.13, 1023.22 303.89, 1029.53 300.69 C 1035.84 297.50, 1039.25 295.24, 1044.14 291.96 C 1049.03 288.68, 1051.06 286.79, 1053.98 284.28 C 1056.89 281.77, 1057.93 280.58, 1058.72 279.42 C 1059.50 278.26, 1059.13 277.86, 1057.89 278.47 C 1056.65 279.09, 1055.51 280.16, 1052.51 282.48 C 1049.51 284.81, 1047.66 286.82, 1042.88 290.09 C 1038.09 293.37, 1034.76 295.69, 1028.59 298.86 C 1022.42 302.03, 1018.37 304.20, 1012.04 305.94 C 1005.71 307.69, 1002.45 307.92, 996.95 307.59 C 991.45 307.26, 988.59 306.53, 984.54 304.29 C 980.49 302.06, 978.92 300.40, 976.71 296.43 C 974.49 292.45, 973.82 289.73, 973.46 284.43 C 973.11 279.13, 973.56 275.85, 974.95 269.93 C 976.33 264.02, 977.74 260.50, 980.40 254.85 C 983.06 249.21, 985.09 246.17, 988.23 241.72 C 991.38 237.28, 993.38 235.28, 996.13 232.64 C 998.87 230.00, 1000.29 229.26, 1001.94 228.53 C 1003.60 227.79, 1003.85 227.66, 1004.40 228.96 C 1004.95 230.26, 1005.23 231.54, 1004.69 235.01 C 1004.16 238.49, 1003.70 241.10, 1001.72 246.35 C 999.73 251.60, 998.19 255.10, 994.79 261.27 C 991.38 267.44, 989.13 271.25, 984.67 277.21 C 980.22 283.17, 977.33 286.35, 972.51 291.08 C 967.69 295.82, 965.09 298.03, 960.59 300.87 C 956.09 303.71, 953.86 304.67, 950.03 305.28 C 946.20 305.89, 944.48 305.65, 941.46 303.92 C 938.43 302.20, 937.08 300.82, 934.90 296.67 C 932.72 292.52, 931.67 289.60, 930.55 283.15 C 929.43 276.71, 929.24 272.55, 929.27 264.45 C 929.31 256.35, 929.75 251.48, 930.73 242.65 C 931.70 233.83, 932.42 228.64, 934.17 220.33 C 935.92 212.02, 937.29 207.50, 939.46 201.10 C 941.63 194.70, 943.28 191.91, 945.02 188.33 C 946.77 184.74, 947.38 183.65, 948.18 183.19 C 948.99 182.73, 948.89 183.37, 949.05 186.03 C 949.20 188.70, 949.63 191.30, 948.97 196.51 C 948.30 201.73, 947.62 205.36, 945.73 212.13 C 943.84 218.90, 942.57 222.97, 939.53 230.37 C 936.49 237.77, 934.56 241.80, 930.54 249.15 C 926.52 256.50, 924.33 260.46, 919.45 267.13 C 914.57 273.81, 911.68 277.20, 906.13 282.52 C 900.57 287.85, 897.22 290.30, 891.66 293.76 C 886.10 297.22, 882.89 298.57, 878.33 299.82 C 873.77 301.07, 871.66 300.97, 868.88 300.02 C 866.09 299.06, 865.20 298.13, 864.40 295.04 C 863.60 291.95, 863.59 289.49, 864.87 284.56 C 866.15 279.64, 867.56 276.04, 870.80 270.40 C 874.04 264.76, 876.60 261.28, 881.08 256.37 C 885.56 251.46, 888.60 249.06, 893.20 245.85 C 897.79 242.64, 900.27 241.57, 904.05 240.32 C 907.83 239.08, 909.56 239.50, 912.09 239.62 C 914.63 239.73, 915.52 240.19, 916.71 240.89 C 917.90 241.60, 917.79 242.01, 918.04 243.14 C 918.29 244.28, 917.96 245.36, 917.95 246.58 C 917.93 247.79, 917.95 248.26, 917.95 249.21 C 917.95 250.16, 917.60 250.73, 917.94 251.34 C 918.27 251.96, 918.86 252.44, 919.63 252.28" style="stroke: black; fill: black;"/><path d="M 1118.36,166.43 C 1118.52 165.74, 1117.94 164.45, 1116.94 164.04 C 1115.94 163.62, 1114.60 163.07, 1113.36 164.34 C 1112.13 165.61, 1111.55 166.77, 1110.76 170.37 C 1109.98 173.97, 1110.06 176.51, 1109.43 182.33 C 1108.79 188.14, 1108.21 192.20, 1107.59 199.43 C 1106.96 206.66, 1106.65 211.52, 1106.29 218.50 C 1105.92 225.47, 1105.82 229.15, 1105.77 234.32 C 1105.73 239.49, 1105.70 242.33, 1106.05 244.33 C 1106.41 246.34, 1107.20 246.32, 1107.55 244.33 C 1107.90 242.34, 1107.63 239.51, 1107.80 234.37 C 1107.97 229.22, 1108.00 225.56, 1108.41 218.61 C 1108.81 211.67, 1109.06 206.83, 1109.82 199.65 C 1110.59 192.47, 1111.25 188.40, 1112.23 182.72 C 1113.20 177.04, 1113.94 174.60, 1114.71 171.26 C 1115.49 167.91, 1115.94 167.07, 1116.11 166.00 C 1116.28 164.93, 1115.59 165.60, 1115.59 165.90 C 1115.58 166.21, 1115.55 167.41, 1116.10 167.52 C 1116.66 167.63, 1118.19 167.13, 1118.36 166.43" style="stroke: black; fill: black;"/><path d="M 1108.73,256.10 C 1108.03 255.88, 1107.52 256.24, 1107.04 256.44 C 1106.56 256.63, 1106.61 256.70, 1106.34 257.09 C 1106.07 257.48, 1105.72 257.83, 1105.70 258.39 C 1105.67 258.94, 1105.87 259.50, 1106.21 259.87 C 1106.56 260.25, 1107.00 260.09, 1107.41 260.25 C 1107.82 260.41, 1107.84 260.62, 1108.26 260.68 C 1108.68 260.74, 1109.07 260.81, 1109.51 260.56 C 1109.95 260.30, 1110.26 259.98, 1110.47 259.39 C 1110.67 258.79, 1110.88 258.24, 1110.53 257.58 C 1110.18 256.93, 1109.43 256.33, 1108.73 256.10" style="stroke: black; fill: black;"/></svg>