<svg xmlns="http://www.w3.org/2000/svg" id="canvas" viewBox="183.591 169.560 741.525 182.233"><path d="M 281.05,176.51 C 280.37 175.72, 279.28 175.16, 277.22 174.48 C 275.16 173.81, 273.76 173.28, 270.75 173.13 C 267.75 172.98, 265.70 173.14, 262.18 173.73 C 258.66 174.31, 256.88 174.93, 253.17 176.06 C 249.46 177.19, 247.45 177.91, 243.64 179.39 C 239.82 180.86, 237.76 181.60, 234.09 183.44 C 230.42 185.27, 228.51 186.55, 225.29 188.57 C 222.06 190.59, 220.46 191.45, 217.99 193.53 C 215.51 195.60, 214.31 196.65, 212.90 198.94 C 211.50 201.23, 211.06 202.62, 210.96 204.99 C 210.86 207.35, 211.16 208.62, 212.42 210.77 C 213.69 212.91, 214.72 214.00, 217.30 215.73 C 219.87 217.46, 221.66 218.02, 225.29 219.40 C 228.92 220.79, 231.05 221.34, 235.45 222.64 C 239.86 223.94, 242.41 224.46, 247.32 225.91 C 252.24 227.35, 254.90 228.15, 260.02 229.86 C 265.14 231.58, 267.93 232.48, 272.92 234.48 C 277.91 236.48, 280.46 237.52, 284.98 239.88 C 289.50 242.25, 291.71 243.64, 295.51 246.30 C 299.31 248.95, 301.12 250.39, 303.98 253.15 C 306.83 255.90, 307.98 257.29, 309.78 260.07 C 311.58 262.85, 312.15 264.39, 312.96 267.06 C 313.77 269.73, 313.94 271.01, 313.81 273.43 C 313.68 275.85, 313.37 276.92, 312.31 279.17 C 311.25 281.42, 310.59 282.48, 308.52 284.69 C 306.45 286.89, 305.20 288.07, 301.96 290.18 C 298.73 292.29, 296.74 293.42, 292.34 295.24 C 287.94 297.07, 285.41 297.98, 279.95 299.32 C 274.50 300.66, 271.22 301.23, 265.06 301.94 C 258.90 302.66, 255.48 302.83, 249.16 302.88 C 242.84 302.93, 239.52 302.79, 233.47 302.20 C 227.41 301.61, 224.23 301.15, 218.89 299.93 C 213.55 298.72, 210.94 297.98, 206.76 296.12 C 202.57 294.27, 200.77 293.07, 197.98 290.66 C 195.18 288.25, 194.37 286.54, 192.79 284.06 C 191.21 281.58, 190.83 280.28, 190.07 278.24 C 189.32 276.20, 189.54 274.72, 189.00 273.86 C 188.46 273.00, 187.83 272.88, 187.38 273.94 C 186.93 274.99, 186.29 276.72, 186.75 279.15 C 187.22 281.58, 187.84 283.32, 189.71 286.08 C 191.57 288.85, 192.87 290.50, 196.08 292.99 C 199.28 295.47, 201.28 296.65, 205.74 298.50 C 210.20 300.34, 212.89 301.03, 218.39 302.20 C 223.90 303.37, 227.11 303.80, 233.26 304.37 C 239.42 304.94, 242.76 305.08, 249.17 305.05 C 255.58 305.02, 259.04 304.87, 265.31 304.21 C 271.58 303.56, 274.91 303.03, 280.53 301.78 C 286.15 300.53, 288.76 299.69, 293.40 297.96 C 298.05 296.22, 300.18 295.21, 303.77 293.11 C 307.35 291.00, 308.86 289.87, 311.33 287.45 C 313.80 285.02, 314.80 283.74, 316.12 280.97 C 317.43 278.21, 317.80 276.62, 317.90 273.60 C 318.00 270.58, 317.67 268.96, 316.61 265.87 C 315.54 262.79, 314.69 261.15, 312.58 258.17 C 310.46 255.19, 309.13 253.78, 306.02 250.96 C 302.92 248.14, 301.02 246.72, 297.05 244.05 C 293.07 241.39, 290.79 240.00, 286.15 237.62 C 281.51 235.24, 278.91 234.20, 273.86 232.16 C 268.80 230.12, 266.00 229.20, 260.86 227.42 C 255.72 225.63, 253.03 224.80, 248.14 223.23 C 243.26 221.66, 240.71 221.05, 236.44 219.57 C 232.17 218.09, 230.11 217.37, 226.79 215.83 C 223.48 214.28, 222.08 213.30, 219.85 211.86 C 217.62 210.41, 216.71 209.94, 215.65 208.61 C 214.58 207.27, 214.41 206.68, 214.52 205.17 C 214.63 203.67, 214.98 202.80, 216.19 201.08 C 217.40 199.36, 218.35 198.46, 220.56 196.57 C 222.77 194.67, 224.22 193.59, 227.23 191.58 C 230.25 189.56, 232.11 188.29, 235.63 186.49 C 239.16 184.70, 241.15 183.98, 244.86 182.62 C 248.57 181.25, 250.61 180.58, 254.18 179.66 C 257.76 178.75, 259.46 178.32, 262.73 178.05 C 265.99 177.77, 267.75 178.16, 270.50 178.29 C 273.26 178.42, 274.47 178.66, 276.49 178.69 C 278.52 178.72, 279.71 178.87, 280.62 178.43 C 281.53 178.00, 281.73 177.30, 281.05 176.51" style="stroke: black; fill: black;"/><path d="M 341.04,229.00 C 340.32 229.28, 339.75 229.83, 339.13 231.11 C 338.51 232.39, 338.24 233.26, 337.95 235.41 C 337.66 237.55, 337.66 239.11, 337.68 241.82 C 337.70 244.52, 337.75 245.94, 338.04 248.93 C 338.34 251.91, 338.55 253.66, 339.14 256.72 C 339.72 259.78, 339.98 261.35, 340.98 264.22 C 341.98 267.09, 342.69 268.49, 344.13 271.07 C 345.58 273.65, 346.31 274.89, 348.21 277.12 C 350.11 279.35, 351.31 280.47, 353.63 282.21 C 355.94 283.95, 357.21 284.68, 359.78 285.82 C 362.36 286.97, 363.69 287.39, 366.50 287.93 C 369.31 288.48, 370.95 288.70, 373.82 288.54 C 376.69 288.38, 378.22 288.00, 380.85 287.13 C 383.48 286.27, 384.72 285.57, 386.98 284.22 C 389.24 282.86, 390.27 282.25, 392.15 280.36 C 394.02 278.47, 394.97 277.18, 396.35 274.77 C 397.72 272.35, 398.18 271.00, 399.01 268.30 C 399.83 265.61, 399.98 264.23, 400.48 261.29 C 400.98 258.35, 401.23 256.54, 401.49 253.62 C 401.75 250.70, 401.74 249.46, 401.78 246.69 C 401.82 243.91, 401.91 242.36, 401.69 239.76 C 401.47 237.17, 401.14 235.96, 400.67 233.72 C 400.19 231.48, 400.07 230.32, 399.31 228.54 C 398.54 226.77, 397.96 225.75, 396.86 224.85 C 395.76 223.95, 394.90 223.85, 393.80 224.02 C 392.71 224.19, 392.07 224.55, 391.38 225.71 C 390.69 226.87, 390.47 227.80, 390.37 229.83 C 390.27 231.86, 390.47 233.11, 390.90 235.85 C 391.32 238.60, 391.85 240.30, 392.50 243.57 C 393.15 246.84, 393.46 248.70, 394.14 252.21 C 394.82 255.72, 395.14 257.59, 395.91 261.14 C 396.69 264.68, 396.98 266.55, 398.01 269.93 C 399.05 273.32, 399.67 274.97, 401.09 278.05 C 402.51 281.13, 403.33 282.74, 405.12 285.34 C 406.91 287.95, 407.94 289.20, 410.04 291.06 C 412.14 292.91, 413.33 293.53, 415.64 294.60 C 417.95 295.67, 419.09 296.15, 421.58 296.42 C 424.06 296.70, 425.61 296.64, 428.05 295.97 C 430.48 295.29, 431.64 294.54, 433.77 293.07 C 435.91 291.60, 436.97 290.82, 438.73 288.62 C 440.49 286.41, 441.39 284.94, 442.57 282.05 C 443.76 279.16, 444.07 277.37, 444.65 274.16 C 445.23 270.94, 445.38 269.29, 445.46 265.98 C 445.55 262.66, 445.37 260.84, 445.07 257.57 C 444.77 254.30, 444.51 252.55, 443.96 249.62 C 443.41 246.69, 443.04 245.30, 442.33 242.92 C 441.61 240.55, 441.31 239.22, 440.38 237.75 C 439.46 236.28, 438.69 235.69, 437.71 235.56 C 436.73 235.42, 436.07 235.79, 435.49 237.08 C 434.91 238.38, 434.69 239.64, 434.81 242.01 C 434.93 244.39, 435.26 246.07, 436.09 248.94 C 436.91 251.81, 437.78 253.38, 438.93 256.36 C 440.09 259.34, 440.79 260.97, 441.87 263.83 C 442.96 266.69, 443.38 268.17, 444.36 270.66 C 445.34 273.15, 445.84 274.68, 446.78 276.29 C 447.72 277.89, 448.29 278.33, 449.07 278.68 C 449.84 279.03, 450.24 278.86, 450.66 278.03 C 451.07 277.20, 451.27 276.35, 451.15 274.55 C 451.04 272.76, 450.88 271.44, 450.08 269.04 C 449.28 266.65, 448.29 265.20, 447.14 262.58 C 446.00 259.96, 445.36 258.57, 444.36 255.96 C 443.36 253.34, 442.94 252.05, 442.17 249.49 C 441.39 246.94, 440.94 245.59, 440.48 243.19 C 440.02 240.78, 439.84 239.56, 439.87 237.48 C 439.91 235.40, 440.05 234.47, 440.64 232.76 C 441.23 231.06, 441.68 230.31, 442.83 228.95 C 443.98 227.59, 444.62 226.94, 446.39 225.96 C 448.17 224.98, 449.27 224.63, 451.71 224.05 C 454.15 223.46, 455.83 223.39, 458.58 223.06 C 461.32 222.73, 463.04 222.76, 465.44 222.38 C 467.84 222.01, 469.54 221.79, 470.57 221.18 C 471.60 220.57, 471.64 219.98, 470.60 219.33 C 469.56 218.69, 467.87 218.26, 465.36 217.97 C 462.86 217.68, 461.06 217.64, 458.06 217.87 C 455.07 218.11, 453.19 218.32, 450.39 219.16 C 447.58 220.00, 446.20 220.65, 444.03 222.08 C 441.86 223.50, 441.00 224.42, 439.53 226.27 C 438.07 228.12, 437.51 229.14, 436.70 231.35 C 435.88 233.55, 435.62 234.77, 435.46 237.30 C 435.31 239.83, 435.48 241.29, 435.92 243.99 C 436.36 246.69, 436.90 248.09, 437.67 250.81 C 438.43 253.52, 438.87 254.82, 439.75 257.57 C 440.62 260.31, 441.16 261.83, 442.05 264.53 C 442.94 267.22, 443.39 268.73, 444.18 271.05 C 444.98 273.36, 445.13 274.53, 446.03 276.10 C 446.93 277.66, 447.72 278.46, 448.67 278.88 C 449.62 279.30, 450.34 279.02, 450.78 278.19 C 451.22 277.36, 451.24 276.58, 450.86 274.73 C 450.48 272.87, 449.83 271.42, 448.89 268.92 C 447.94 266.41, 447.22 265.02, 446.13 262.20 C 445.04 259.38, 444.31 257.74, 443.43 254.81 C 442.55 251.88, 442.31 250.28, 441.73 247.53 C 441.15 244.79, 441.16 243.21, 440.54 241.08 C 439.93 238.94, 439.39 237.80, 438.65 236.86 C 437.92 235.92, 437.27 235.92, 436.87 236.38 C 436.47 236.84, 436.44 237.60, 436.66 239.15 C 436.87 240.70, 437.36 241.87, 437.92 244.14 C 438.49 246.41, 438.91 247.73, 439.49 250.50 C 440.07 253.28, 440.48 254.93, 440.82 258.00 C 441.17 261.07, 441.33 262.79, 441.22 265.85 C 441.11 268.91, 440.89 270.43, 440.28 273.30 C 439.67 276.18, 439.21 277.73, 438.16 280.22 C 437.12 282.71, 436.45 283.91, 435.05 285.74 C 433.65 287.57, 432.83 288.18, 431.18 289.36 C 429.53 290.54, 428.64 291.08, 426.80 291.64 C 424.96 292.20, 423.87 292.32, 421.99 292.17 C 420.11 292.01, 419.21 291.73, 417.40 290.87 C 415.58 290.00, 414.67 289.43, 412.91 287.83 C 411.16 286.24, 410.26 285.19, 408.61 282.90 C 406.96 280.60, 406.05 279.16, 404.66 276.35 C 403.26 273.53, 402.64 272.01, 401.64 268.81 C 400.64 265.61, 400.34 263.80, 399.64 260.35 C 398.94 256.89, 398.63 255.02, 398.13 251.53 C 397.62 248.05, 397.39 246.20, 397.10 242.91 C 396.81 239.63, 396.96 237.82, 396.69 235.11 C 396.42 232.41, 396.15 231.17, 395.75 229.40 C 395.34 227.62, 395.07 226.95, 394.68 226.23 C 394.29 225.51, 393.94 225.63, 393.80 225.80 C 393.67 225.98, 393.72 226.25, 394.00 227.10 C 394.28 227.95, 394.75 228.55, 395.20 230.06 C 395.65 231.56, 395.87 232.60, 396.25 234.61 C 396.64 236.63, 396.95 237.73, 397.13 240.13 C 397.31 242.52, 397.20 243.98, 397.13 246.59 C 397.05 249.20, 397.04 250.39, 396.76 253.18 C 396.49 255.96, 396.20 257.75, 395.75 260.51 C 395.31 263.26, 395.23 264.56, 394.53 266.96 C 393.83 269.36, 393.38 270.43, 392.26 272.49 C 391.14 274.55, 390.44 275.66, 388.94 277.25 C 387.44 278.83, 386.65 279.32, 384.74 280.41 C 382.84 281.50, 381.67 282.01, 379.44 282.70 C 377.20 283.38, 375.98 283.70, 373.56 283.84 C 371.14 283.98, 369.73 283.82, 367.35 283.40 C 364.96 282.97, 363.80 282.68, 361.61 281.70 C 359.43 280.73, 358.40 280.04, 356.41 278.52 C 354.43 277.01, 353.35 276.08, 351.69 274.14 C 350.02 272.21, 349.36 271.13, 348.08 268.85 C 346.80 266.57, 346.16 265.33, 345.28 262.74 C 344.40 260.16, 344.13 258.76, 343.69 255.93 C 343.26 253.10, 343.17 251.42, 343.10 248.61 C 343.02 245.80, 343.27 244.45, 343.34 241.87 C 343.41 239.29, 343.53 237.71, 343.46 235.71 C 343.39 233.70, 343.14 233.07, 343.01 231.86 C 342.87 230.65, 343.17 230.25, 342.77 229.67 C 342.38 229.10, 341.77 228.71, 341.04 229.00" style="stroke: black; fill: black;"/><path d="M 499.44,239.42 C 498.88 239.84, 498.55 240.16, 498.22 241.55 C 497.89 242.95, 497.73 244.05, 497.79 246.40 C 497.86 248.75, 498.17 250.29, 498.55 253.30 C 498.93 256.31, 499.32 258.09, 499.70 261.46 C 500.09 264.83, 500.22 266.49, 500.48 270.16 C 500.75 273.83, 500.87 275.84, 501.04 279.82 C 501.22 283.80, 501.23 285.86, 501.38 290.05 C 501.53 294.24, 501.68 296.51, 501.80 300.78 C 501.91 305.04, 501.88 307.20, 501.97 311.38 C 502.05 315.56, 502.08 317.70, 502.24 321.67 C 502.40 325.64, 502.58 327.71, 502.75 331.23 C 502.91 334.76, 502.74 336.49, 503.06 339.29 C 503.39 342.08, 503.76 343.38, 504.36 345.21 C 504.97 347.03, 505.46 347.85, 506.07 348.43 C 506.68 349.02, 507.12 348.87, 507.41 348.12 C 507.71 347.37, 507.56 346.54, 507.56 344.68 C 507.56 342.83, 507.64 341.60, 507.41 338.85 C 507.19 336.11, 506.79 334.42, 506.42 330.95 C 506.05 327.48, 505.81 325.42, 505.56 321.49 C 505.30 317.56, 505.26 315.46, 505.14 311.30 C 505.02 307.14, 505.07 304.97, 504.96 300.70 C 504.86 296.43, 504.74 294.15, 504.64 289.95 C 504.54 285.75, 504.55 283.70, 504.47 279.71 C 504.38 275.71, 504.30 273.68, 504.20 269.97 C 504.09 266.27, 504.02 264.59, 503.95 261.17 C 503.88 257.76, 503.95 255.93, 503.85 252.88 C 503.75 249.83, 503.79 248.23, 503.46 245.92 C 503.14 243.61, 502.70 242.62, 502.22 241.33 C 501.74 240.03, 501.61 239.82, 501.05 239.44 C 500.50 239.06, 500.01 238.99, 499.44 239.42" style="stroke: black; fill: black;"/><path d="M 497.02,226.99 C 498.10 226.94, 499.23 226.02, 501.09 225.11 C 502.94 224.20, 503.93 223.61, 506.30 222.44 C 508.66 221.27, 510.18 220.20, 512.91 219.27 C 515.65 218.34, 517.05 218.20, 519.97 217.79 C 522.89 217.39, 524.53 217.14, 527.52 217.25 C 530.50 217.36, 532.10 217.57, 534.91 218.34 C 537.72 219.11, 539.13 219.67, 541.55 221.09 C 543.96 222.51, 545.19 223.58, 546.97 225.43 C 548.75 227.28, 549.50 228.27, 550.45 230.35 C 551.39 232.43, 551.69 233.53, 551.69 235.82 C 551.69 238.11, 551.35 239.36, 550.44 241.81 C 549.53 244.25, 548.87 245.52, 547.14 248.06 C 545.42 250.60, 544.34 252.04, 541.80 254.51 C 539.26 256.97, 537.63 258.24, 534.43 260.38 C 531.22 262.52, 529.16 263.60, 525.78 265.21 C 522.40 266.82, 520.54 267.53, 517.53 268.42 C 514.51 269.30, 513.15 269.42, 510.69 269.63 C 508.22 269.84, 506.95 269.78, 505.20 269.48 C 503.46 269.17, 502.88 268.79, 501.96 268.12 C 501.03 267.46, 500.95 266.88, 500.56 266.16 C 500.16 265.44, 500.22 265.13, 499.96 264.53 C 499.71 263.92, 499.73 263.44, 499.27 263.14 C 498.82 262.85, 498.19 262.70, 497.70 263.05 C 497.21 263.40, 496.90 263.95, 496.83 264.89 C 496.75 265.84, 496.75 266.55, 497.33 267.78 C 497.91 269.01, 498.33 269.93, 499.74 271.04 C 501.15 272.16, 502.11 272.80, 504.38 273.35 C 506.64 273.90, 508.19 274.07, 511.05 273.81 C 513.91 273.56, 515.41 273.16, 518.67 272.09 C 521.93 271.02, 523.81 270.21, 527.35 268.47 C 530.90 266.72, 533.01 265.62, 536.41 263.38 C 539.82 261.14, 541.57 259.84, 544.39 257.26 C 547.21 254.67, 548.47 253.23, 550.51 250.45 C 552.56 247.67, 553.53 246.30, 554.63 243.37 C 555.73 240.43, 556.06 238.73, 556.01 235.78 C 555.96 232.83, 555.52 231.31, 554.36 228.62 C 553.20 225.93, 552.34 224.60, 550.21 222.34 C 548.07 220.09, 546.54 218.97, 543.70 217.36 C 540.86 215.75, 539.21 215.13, 536.01 214.27 C 532.81 213.42, 531.01 213.23, 527.70 213.07 C 524.39 212.90, 522.70 213.14, 519.46 213.46 C 516.22 213.78, 514.63 213.82, 511.51 214.67 C 508.39 215.52, 506.45 216.34, 503.86 217.72 C 501.28 219.10, 500.23 220.04, 498.60 221.57 C 496.97 223.10, 496.03 224.30, 495.71 225.39 C 495.39 226.47, 495.95 227.05, 497.02 226.99" style="stroke: black; fill: black;"/><path d="M 578.60,233.34 C 577.93 233.94, 577.64 234.82, 577.22 236.45 C 576.81 238.08, 576.69 239.28, 576.51 241.49 C 576.33 243.71, 576.42 245.03, 576.31 247.52 C 576.21 250.02, 576.08 251.34, 575.99 253.97 C 575.90 256.60, 575.83 258.08, 575.85 260.66 C 575.88 263.25, 576.04 264.69, 576.13 266.88 C 576.22 269.07, 576.18 270.16, 576.30 271.62 C 576.42 273.09, 576.57 273.83, 576.72 274.20 C 576.88 274.58, 577.16 274.23, 577.06 273.51 C 576.96 272.79, 576.75 272.16, 576.24 270.61 C 575.72 269.06, 575.37 267.90, 574.49 265.76 C 573.62 263.62, 572.94 262.32, 571.87 259.90 C 570.80 257.48, 570.12 256.25, 569.14 253.64 C 568.17 251.03, 567.69 249.48, 566.99 246.85 C 566.28 244.23, 565.87 243.01, 565.62 240.54 C 565.37 238.06, 565.52 236.77, 565.72 234.47 C 565.92 232.16, 566.02 230.98, 566.62 229.02 C 567.21 227.07, 567.59 226.25, 568.69 224.70 C 569.79 223.15, 570.51 222.50, 572.12 221.27 C 573.72 220.04, 574.59 219.43, 576.74 218.55 C 578.89 217.68, 580.25 217.48, 582.88 216.92 C 585.51 216.36, 586.99 216.04, 589.87 215.75 C 592.76 215.46, 594.14 215.28, 597.31 215.48 C 600.48 215.68, 602.58 216.29, 605.71 216.75 C 608.83 217.21, 610.47 217.61, 612.94 217.78 C 615.41 217.95, 616.96 217.95, 618.04 217.59 C 619.13 217.22, 619.24 216.71, 618.36 215.96 C 617.49 215.21, 616.06 214.58, 613.67 213.84 C 611.28 213.11, 609.62 212.82, 606.40 212.29 C 603.18 211.76, 600.95 211.39, 597.57 211.19 C 594.20 210.99, 592.66 211.12, 589.52 211.31 C 586.39 211.50, 584.84 211.55, 581.90 212.13 C 578.97 212.70, 577.37 213.04, 574.86 214.18 C 572.34 215.31, 571.26 216.18, 569.33 217.80 C 567.40 219.41, 566.57 220.26, 565.19 222.24 C 563.82 224.22, 563.25 225.33, 562.46 227.68 C 561.66 230.04, 561.51 231.37, 561.22 234.03 C 560.94 236.68, 560.81 238.15, 561.03 240.95 C 561.26 243.75, 561.65 245.17, 562.34 248.04 C 563.03 250.91, 563.55 252.53, 564.48 255.30 C 565.41 258.06, 566.06 259.33, 566.99 261.86 C 567.91 264.40, 568.17 265.74, 569.11 267.99 C 570.05 270.24, 570.50 271.56, 571.71 273.12 C 572.92 274.67, 573.82 275.27, 575.16 275.76 C 576.49 276.25, 577.32 276.31, 578.39 275.58 C 579.46 274.85, 579.98 273.87, 580.48 272.12 C 580.99 270.38, 580.85 269.14, 580.91 266.84 C 580.97 264.55, 580.75 263.17, 580.77 260.65 C 580.78 258.12, 580.80 256.79, 580.97 254.23 C 581.15 251.66, 581.46 250.34, 581.65 247.84 C 581.85 245.33, 581.95 243.95, 581.94 241.70 C 581.93 239.46, 581.89 238.29, 581.61 236.63 C 581.33 234.98, 581.14 234.09, 580.54 233.43 C 579.93 232.77, 579.26 232.73, 578.60 233.34" style="stroke: black; fill: black;"/><path d="M 652.16,222.46 C 651.57 223.08, 651.37 223.93, 651.19 225.47 C 651.02 227.02, 651.02 228.02, 651.27 230.18 C 651.52 232.34, 651.89 233.72, 652.45 236.27 C 653.01 238.81, 653.46 240.16, 654.08 242.90 C 654.70 245.65, 654.98 247.28, 655.55 250.00 C 656.13 252.72, 656.36 253.99, 656.96 256.51 C 657.55 259.04, 657.99 260.54, 658.53 262.64 C 659.07 264.73, 659.16 265.61, 659.66 267.00 C 660.16 268.38, 660.57 268.82, 661.02 269.55 C 661.46 270.29, 661.49 270.48, 661.88 270.68 C 662.27 270.88, 662.63 270.89, 662.96 270.56 C 663.29 270.23, 663.42 269.91, 663.53 269.04 C 663.64 268.16, 663.62 267.66, 663.52 266.19 C 663.42 264.71, 663.41 263.81, 663.03 261.66 C 662.65 259.52, 662.15 257.99, 661.62 255.47 C 661.08 252.95, 660.82 251.79, 660.34 249.07 C 659.85 246.35, 659.70 244.65, 659.19 241.86 C 658.68 239.07, 658.34 237.63, 657.80 235.11 C 657.27 232.59, 657.01 231.27, 656.52 229.26 C 656.04 227.24, 655.86 226.42, 655.38 225.04 C 654.90 223.66, 654.76 222.87, 654.11 222.35 C 653.47 221.84, 652.74 221.83, 652.16 222.46" style="stroke: black; fill: black;"/><path d="M 642.49,176.33 C 642.97 176.91, 643.67 177.32, 644.22 177.15 C 644.77 176.98, 645.25 176.29, 645.22 175.47 C 645.19 174.66, 644.64 173.64, 644.08 173.08 C 643.51 172.52, 642.85 172.45, 642.40 172.69 C 641.94 172.93, 641.79 173.54, 641.81 174.26 C 641.83 174.99, 642.01 175.75, 642.49 176.33" style="stroke: black; fill: black;"/><path d="M 732.02,222.79 C 732.13 222.04, 731.82 221.32, 731.12 220.43 C 730.42 219.53, 729.90 219.10, 728.51 218.32 C 727.12 217.53, 726.14 217.00, 724.16 216.50 C 722.19 216.00, 721.10 215.97, 718.65 215.84 C 716.20 215.70, 714.64 215.65, 711.93 215.82 C 709.21 215.99, 707.75 216.20, 705.07 216.68 C 702.39 217.16, 700.92 217.49, 698.53 218.24 C 696.14 218.98, 694.94 219.31, 693.12 220.41 C 691.29 221.50, 690.36 222.25, 689.40 223.71 C 688.45 225.17, 688.16 226.04, 688.34 227.72 C 688.52 229.40, 688.88 230.36, 690.32 232.13 C 691.76 233.91, 692.94 234.98, 695.52 236.59 C 698.11 238.20, 699.91 238.75, 703.26 240.17 C 706.61 241.58, 708.44 242.16, 712.27 243.66 C 716.10 245.16, 718.35 245.96, 722.42 247.66 C 726.49 249.37, 728.75 250.30, 732.62 252.19 C 736.48 254.08, 738.48 255.07, 741.74 257.11 C 744.99 259.16, 746.49 260.36, 748.91 262.39 C 751.32 264.42, 752.28 265.38, 753.82 267.26 C 755.36 269.14, 755.96 270.06, 756.60 271.77 C 757.24 273.48, 757.27 274.35, 757.03 275.82 C 756.80 277.29, 756.49 277.82, 755.43 279.11 C 754.37 280.40, 753.56 281.12, 751.72 282.28 C 749.87 283.45, 748.86 283.98, 746.20 284.95 C 743.54 285.92, 741.92 286.56, 738.43 287.14 C 734.94 287.72, 732.85 287.77, 728.75 287.86 C 724.65 287.94, 722.24 287.96, 717.92 287.57 C 713.60 287.17, 711.19 286.76, 707.14 285.89 C 703.09 285.03, 701.06 284.44, 697.67 283.24 C 694.28 282.04, 692.64 281.30, 690.19 279.88 C 687.75 278.45, 686.78 277.66, 685.45 276.12 C 684.11 274.58, 683.67 273.83, 683.52 272.19 C 683.37 270.54, 684.03 269.60, 684.69 267.89 C 685.36 266.19, 686.10 265.26, 686.82 263.67 C 687.54 262.09, 688.30 260.96, 688.30 259.98 C 688.30 258.99, 687.82 258.49, 686.80 258.76 C 685.79 259.04, 684.49 259.81, 683.21 261.34 C 681.92 262.88, 681.07 264.14, 680.37 266.42 C 679.68 268.70, 679.30 270.30, 679.73 272.73 C 680.16 275.16, 680.80 276.46, 682.51 278.57 C 684.21 280.68, 685.44 281.68, 688.25 283.26 C 691.07 284.85, 692.93 285.35, 696.58 286.51 C 700.22 287.66, 702.28 288.19, 706.49 289.05 C 710.69 289.91, 713.16 290.33, 717.61 290.78 C 722.07 291.24, 724.50 291.27, 728.77 291.31 C 733.03 291.36, 735.17 291.41, 738.96 291.01 C 742.74 290.61, 744.60 290.28, 747.68 289.32 C 750.75 288.35, 752.09 287.74, 754.32 286.19 C 756.55 284.64, 757.53 283.53, 758.82 281.57 C 760.12 279.60, 760.50 278.57, 760.79 276.36 C 761.08 274.14, 761.05 272.82, 760.29 270.49 C 759.52 268.15, 758.76 266.88, 756.95 264.68 C 755.14 262.49, 753.92 261.59, 751.22 259.51 C 748.52 257.43, 746.91 256.31, 743.47 254.27 C 740.02 252.24, 737.97 251.25, 734.01 249.33 C 730.06 247.41, 727.77 246.47, 723.69 244.69 C 719.62 242.90, 717.36 242.07, 713.63 240.41 C 709.91 238.74, 708.14 238.03, 705.09 236.37 C 702.04 234.71, 700.70 233.59, 698.39 232.08 C 696.08 230.57, 694.95 229.83, 693.53 228.83 C 692.11 227.83, 691.59 227.67, 691.29 227.09 C 690.99 226.51, 691.27 226.50, 692.03 225.94 C 692.79 225.38, 693.55 224.91, 695.10 224.28 C 696.65 223.65, 697.64 223.30, 699.79 222.79 C 701.94 222.27, 703.38 222.04, 705.86 221.70 C 708.35 221.37, 709.70 221.23, 712.21 221.12 C 714.72 221.01, 716.25 221.07, 718.40 221.16 C 720.55 221.24, 721.39 221.19, 722.96 221.53 C 724.54 221.88, 725.15 222.47, 726.29 222.90 C 727.43 223.34, 727.82 223.46, 728.67 223.72 C 729.53 223.98, 729.90 224.40, 730.57 224.21 C 731.24 224.03, 731.91 223.55, 732.02 222.79" style="stroke: black; fill: black;"/><path d="M 791.31,260.47 C 792.10 260.65, 792.82 260.37, 794.09 259.80 C 795.36 259.23, 796.17 258.76, 797.66 257.61 C 799.15 256.46, 800.03 255.54, 801.55 254.05 C 803.08 252.56, 803.79 251.73, 805.29 250.18 C 806.79 248.62, 807.65 247.88, 809.05 246.29 C 810.44 244.70, 811.14 243.81, 812.27 242.21 C 813.40 240.62, 813.96 239.92, 814.70 238.30 C 815.45 236.67, 815.87 235.79, 816.00 234.10 C 816.13 232.41, 816.05 231.38, 815.36 229.83 C 814.67 228.28, 814.03 227.45, 812.54 226.35 C 811.04 225.25, 809.98 224.80, 807.89 224.33 C 805.80 223.85, 804.53 223.77, 802.09 223.96 C 799.65 224.16, 798.32 224.43, 795.68 225.28 C 793.03 226.13, 791.55 226.77, 788.85 228.23 C 786.16 229.68, 784.79 230.55, 782.20 232.56 C 779.60 234.57, 778.22 235.82, 775.88 238.29 C 773.54 240.75, 772.22 242.06, 770.49 244.90 C 768.75 247.75, 767.97 249.37, 767.20 252.50 C 766.43 255.62, 766.19 257.44, 766.63 260.52 C 767.06 263.61, 767.62 265.14, 769.39 267.91 C 771.16 270.67, 772.43 272.01, 775.48 274.35 C 778.53 276.70, 780.48 277.73, 784.64 279.63 C 788.80 281.52, 791.31 282.35, 796.28 283.80 C 801.26 285.26, 804.10 285.83, 809.52 286.89 C 814.93 287.94, 818.27 288.36, 823.35 289.07 C 828.42 289.78, 831.02 290.18, 834.88 290.43 C 838.74 290.69, 841.06 290.70, 842.64 290.36 C 844.21 290.02, 844.24 289.28, 842.74 288.74 C 841.25 288.20, 838.95 288.13, 835.15 287.65 C 831.35 287.16, 828.75 286.99, 823.72 286.32 C 818.70 285.64, 815.35 285.31, 810.03 284.27 C 804.70 283.23, 801.90 282.61, 797.10 281.10 C 792.30 279.60, 789.88 278.65, 786.02 276.73 C 782.15 274.81, 780.39 273.69, 777.76 271.50 C 775.12 269.31, 774.22 268.07, 772.84 265.77 C 771.45 263.46, 771.15 262.41, 770.85 259.96 C 770.55 257.52, 770.71 256.10, 771.35 253.53 C 772.00 250.96, 772.57 249.57, 774.08 247.11 C 775.60 244.65, 776.78 243.43, 778.94 241.23 C 781.09 239.03, 782.43 237.85, 784.86 236.11 C 787.28 234.37, 788.59 233.72, 791.06 232.51 C 793.53 231.31, 794.91 230.81, 797.20 230.10 C 799.49 229.39, 800.57 229.15, 802.52 228.96 C 804.47 228.77, 805.43 228.95, 806.97 229.16 C 808.50 229.37, 809.23 229.57, 810.20 230.03 C 811.17 230.49, 811.45 230.76, 811.81 231.48 C 812.17 232.20, 812.18 232.65, 811.99 233.63 C 811.81 234.60, 811.57 235.18, 810.89 236.35 C 810.21 237.52, 809.68 238.13, 808.61 239.47 C 807.54 240.82, 806.88 241.65, 805.53 243.08 C 804.17 244.50, 803.37 245.20, 801.83 246.60 C 800.28 247.99, 799.37 248.66, 797.82 250.04 C 796.26 251.42, 795.34 252.22, 794.06 253.50 C 792.78 254.79, 792.19 255.37, 791.40 256.45 C 790.61 257.54, 790.13 258.12, 790.11 258.92 C 790.09 259.72, 790.51 260.30, 791.31 260.47" style="stroke: black; fill: black;"/><path d="M 910.36,177.74 C 909.87 178.24, 909.91 178.78, 909.75 179.86 C 909.59 180.94, 909.57 181.44, 909.54 183.14 C 909.51 184.84, 909.54 185.98, 909.61 188.35 C 909.69 190.72, 909.73 192.11, 909.92 194.99 C 910.11 197.87, 910.35 199.55, 910.57 202.75 C 910.78 205.95, 910.81 207.58, 910.99 211.01 C 911.17 214.43, 911.22 216.40, 911.48 219.88 C 911.74 223.35, 911.84 225.08, 912.29 228.39 C 912.74 231.70, 913.16 233.31, 913.74 236.43 C 914.32 239.55, 914.52 241.20, 915.19 243.99 C 915.85 246.78, 916.33 248.20, 917.05 250.39 C 917.77 252.57, 918.19 253.45, 918.80 254.94 C 919.40 256.42, 919.53 257.27, 920.09 257.81 C 920.64 258.35, 921.17 258.34, 921.57 257.63 C 921.98 256.92, 922.15 255.93, 922.11 254.25 C 922.06 252.57, 921.83 251.49, 921.33 249.22 C 920.84 246.94, 920.34 245.61, 919.63 242.89 C 918.92 240.16, 918.47 238.60, 917.79 235.59 C 917.10 232.58, 916.69 231.04, 916.22 227.84 C 915.75 224.64, 915.65 222.99, 915.42 219.59 C 915.19 216.20, 915.16 214.24, 915.08 210.85 C 914.99 207.45, 914.99 205.81, 915.00 202.61 C 915.01 199.41, 915.09 197.73, 915.12 194.85 C 915.15 191.96, 915.23 190.60, 915.15 188.17 C 915.08 185.75, 915.05 184.52, 914.75 182.74 C 914.45 180.95, 914.17 180.32, 913.67 179.24 C 913.17 178.17, 912.89 177.65, 912.23 177.35 C 911.57 177.05, 910.86 177.23, 910.36 177.74" style="stroke: black; fill: black;"/><path d="M 909.16,290.30 C 909.48 290.73, 910.23 290.62, 910.41 290.12 C 910.59 289.63, 910.40 288.24, 910.08 287.81 C 909.77 287.39, 909.02 287.49, 908.84 287.99 C 908.66 288.48, 908.85 289.87, 909.16 290.30" style="stroke: black; fill: black;"/></svg>